<svg width="14" height="12" xmlns="http://www.w3.org/2000/svg"><path d="M1.312 2.688a1.313 1.313 0 100-2.627 1.313 1.313 0 000 2.627zm12.25-.438A.438.438 0 0014 1.813V.938A.438.438 0 0013.562.5h-8.75a.438.438 0 00-.437.438v.875c0 .241.196.437.437.437h8.75zM1.312 7.063a1.313 1.313 0 100-2.627 1.313 1.313 0 000 2.627zm12.25-.438A.438.438 0 0014 6.188v-.875a.438.438 0 00-.438-.438h-8.75a.438.438 0 00-.437.438v.875c0 .241.196.437.437.437h8.75zm-12.25 4.813a1.313 1.313 0 100-2.627 1.313 1.313 0 000 2.627zM13.562 11a.438.438 0 00.438-.438v-.874a.438.438 0 00-.438-.438h-8.75a.438.438 0 00-.437.438v.874c0 .242.196.438.437.438h8.75z"/></svg>