<svg width="13" height="13" xmlns="http://www.w3.org/2000/svg"><path d="M3.408 12.875a.329.329 0 00.323-.27l.42-2.355h2.697l-.4 2.24a.328.328 0 00.324.385h1.11a.329.329 0 00.324-.27l.42-2.355h2.163a.329.329 0 00.323-.27l.195-1.094a.328.328 0 00-.323-.386H8.94L9.564 5h2.162a.329.329 0 00.323-.27l.196-1.094a.328.328 0 00-.323-.386H9.876l.4-2.24a.328.328 0 00-.323-.385H8.842a.329.329 0 00-.323.27l-.42 2.355H5.4l.4-2.24a.328.328 0 00-.323-.385h-1.11a.329.329 0 00-.324.27l-.42 2.355H1.46a.329.329 0 00-.323.27L.943 4.614A.328.328 0 001.266 5H3.31l-.625 3.5H.524a.329.329 0 00-.323.27L.005 9.864a.328.328 0 00.323.386h2.046l-.4 2.24a.328.328 0 00.323.385h1.111zM7.161 8.5H4.464L5.089 5h2.697l-.625 3.5z" fill="#00A6ED"/></svg>