<svg width="86" height="93" xmlns="http://www.w3.org/2000/svg"><path d="M54.097 93v-.93c-.906-11.939-7.192-18.453-18.938-20.474l-.932-.16v-4.333h3.995v-9.705H16.461v9.705h3.995v4.36l-.959.266C7.831 73.75.986 80.237.08 92.202L0 93h54.097zM22.134 72.952v-7.578h-3.968v-6.248H36.41v6.248h-3.995v7.605h.772c10.521 1.382 17.313 6.062 18.885 16.937l.186 1.276H1.838l.213-1.303c1.625-10.795 8.976-15.501 19.258-16.804h.745l.08-.133zM81.08 21.211a.88.88 0 00.746-.426c2.983-5.317 6.765-14.437 1.678-19.622h-.933L71.01 12.357V.79a.824.824 0 00-.372-.692.8.8 0 00-.773 0A51.706 51.706 0 0051.22 12.543a52.802 52.802 0 00-12.012 17.495c-1.519 3.935-2.664 9.519-.347 13.294l.453.745-5.647 5.663a.85.85 0 000 1.223.907.907 0 001.226 0l5.646-5.663.773.479a9.629 9.629 0 005.14 1.302c7.352 0 15.822-5.53 21.31-10.05a.85.85 0 00.265-.957.879.879 0 00-.799-.585h-16.78l6.126-6.302H75.22a.878.878 0 000-1.728H58.44l6.126-6.248H81.08zm-17.633-1.303l-7.698 7.684-.16.186-7.697 7.684-.16.16-7.085 7.072-.64-1.648c-1.384-3.696 0-8.721 1.626-12.178A52.487 52.487 0 0152.66 13.394 54.574 54.574 0 0167.68 2.599l1.572-.612v12.098l-5.514 5.557-.16.16-.133.106zm2.85-.426L82.97 2.865l.666 1.542c1.864 4.413-.64 10.635-2.664 14.517l-.32.585-14.356-.027zM41.605 44.157l6.978-6.993h16.248l-3.01 2.074c-4.501 3.058-12.998 7.764-18.645 5.557l-1.598-.638h.027z"/></svg>