<svg width="106" height="115" xmlns="http://www.w3.org/2000/svg"><path d="M66.678 115v-1.15c-1.117-14.763-8.864-22.818-23.342-25.317l-1.15-.197v-5.36h4.925v-12H20.289v12h4.924v5.392l-1.181.33C9.652 91.195 1.215 99.217.098 114.013L0 115h66.678zM27.282 90.21v-9.37H22.39v-7.727h22.489v7.726h-4.925v9.404h.952c12.968 1.71 21.34 7.496 23.277 20.943l.23 1.578H2.264l.263-1.61c2.003-13.35 11.064-19.169 23.736-20.78h.92l.098-.164zm72.652-63.982c.377-.003.726-.202.92-.526 3.677-6.575 8.338-17.853 2.068-24.264h-1.15L87.526 15.28V.978a1.02 1.02 0 00-.46-.855.984.984 0 00-.952 0A63.717 63.717 0 0063.132 15.51a65.3 65.3 0 00-14.806 21.634c-1.872 4.866-3.283 11.77-.427 16.44l.558.92-6.96 7.003a1.053 1.053 0 000 1.512 1.115 1.115 0 001.51 0l6.96-7.003.952.592a11.838 11.838 0 006.336 1.611c9.062 0 19.501-6.839 26.264-12.428.352-.283.485-.76.329-1.184a1.084 1.084 0 00-.985-.723H62.18l7.55-7.792h22.982a1.085 1.085 0 000-2.137H72.029l7.55-7.727h20.355zm-21.733-1.61l-9.488 9.501-.197.23-9.488 9.502-.197.197-8.732 8.746-.788-2.038c-1.708-4.57 0-10.785 2.002-15.059a64.9 64.9 0 0113.592-19.135A67.272 67.272 0 0183.42 3.213l1.937-.756v14.96l-6.796 6.871-.197.198-.164.131zm3.513-.527l20.551-20.549.821 1.907c2.298 5.458-.788 13.152-3.283 17.952l-.394.723-17.695-.033zM51.28 54.602l8.602-8.647h20.026l-3.71 2.565c-5.548 3.78-16.02 9.6-22.98 6.871l-1.97-.789h.032z"/></svg>