<svg width="84" height="73" xmlns="http://www.w3.org/2000/svg"><path d="M66.584 17.215l.125.017 13.606 6.362c3.187 1.505 4.569 5.305 3.096 8.515L66.109 69.303a6.407 6.407 0 01-8.488 3.106l-10.186-4.784-.101-.035a.777.777 0 01-.473-.742.8.8 0 01.799-.801.821.821 0 01.374 0l.949.526 9.312 4.383a4.812 4.812 0 006.366-2.33l17.302-37.193a4.84 4.84 0 00-2.322-6.387L66.758 19.16l-.091-.036c-.422-.178-1.132-.6-1.132-1.066a.803.803 0 01.799-.826.946.946 0 01.375 0zM51.354 0a6.406 6.406 0 014.554 1.877 6.447 6.447 0 011.888 4.56V51.52a6.448 6.448 0 01-1.88 4.577 6.406 6.406 0 01-4.561 1.885H6.416a6.406 6.406 0 01-4.545-1.894A6.448 6.448 0 010 51.52V6.437C0 2.882 2.873 0 6.416 0zM10.636 56.354c0-.551.175-1.077.25-1.578.075-.5.275-1.453.45-2.229 1.473-6.612 5.517-6.913 8.912-7.188 2.222-.15 3.97-.276 4.045-2.78v-2.256a20.742 20.742 0 01-4.12-2.755 5.711 5.711 0 01-1.872-2.78 54.58 54.58 0 01-1.323-6.562 26.282 26.282 0 010-6.412 9.373 9.373 0 013.795-6.437 13.924 13.924 0 018.088-2.504 13.95 13.95 0 018.114 2.504 9.272 9.272 0 013.87 6.412 25.126 25.126 0 010 6.412 54.58 54.58 0 01-1.323 6.562 5.886 5.886 0 01-1.923 2.805 19.668 19.668 0 01-3.97 2.655v2.254c0 2.505 1.898 2.756 4.045 2.906 3.396.275 7.49.576 8.888 7.188.175.777.325 1.528.45 2.23.124.7.174 1.026.25 1.577h4.268c1.276 0 2.499-.51 3.399-1.417a4.817 4.817 0 001.395-3.417V6.462a4.817 4.817 0 00-1.456-3.48 4.785 4.785 0 00-3.512-1.354H6.416c-2.647 0-4.793 2.153-4.793 4.809V51.52a4.817 4.817 0 001.395 3.417 4.786 4.786 0 003.398 1.417h4.22zm34.703 0c0-.4-.125-.826-.2-1.277a34.353 34.353 0 00-.45-2.154c-1.173-5.335-4.493-5.56-7.24-5.786-2.746-.225-5.617-.426-5.741-4.558v-1.453c0-.501 0-1.002.174-1.553v-.45l.575-.301a18.64 18.64 0 004.019-2.505 4.057 4.057 0 001.373-1.903 53.803 53.803 0 001.273-6.337c.25-1.98.25-3.982 0-5.961a7.518 7.518 0 00-3.17-5.31 12.206 12.206 0 00-7.066-2.23 12.455 12.455 0 00-7.09 2.23 7.693 7.693 0 00-3.146 5.21 25.126 25.126 0 000 5.96 53.724 53.724 0 001.324 6.337c.26.757.738 1.42 1.373 1.904a18.665 18.665 0 004.02 2.505l.399.225v.45c0 .552.125 1.078.15 1.554a9.51 9.51 0 010 1.452c0 4.208-2.647 4.408-5.668 4.634-3.02.225-5.991.55-7.19 5.886-.15.701-.3 1.427-.424 2.154-.125.726-.15.876-.15 1.277h32.855z"/></svg>