<svg width="108" height="108" xmlns="http://www.w3.org/2000/svg"><path d="M96.466 11.572V0A62.297 62.297 0 0083.03 6.705c-7.668 5.254-12.017 11.96-5.123 20.147l.806.967-7.41 7.414-.967-.838C53.695 19.353 28.191 20 12.334 35.867-3.524 51.733-4.171 77.251 10.862 93.901l.902.967-.998.967L.456 106.15a1.032 1.032 0 000 1.483c.195.2.461.317.74.322.27-.01.525-.126.71-.322L12.28 97.286l.902-.967.999.87c15.946 14.415 40.21 14.415 56.156 0l.967-.87.966.967 10.342 10.347c.195.2.461.317.741.322a1.063 1.063 0 00.709-1.805L73.72 95.77l-.934-.902.87-.967c14.307-16.005 14.307-40.213 0-56.218l-.87-.967 7.41-7.414.966.806a12.884 12.884 0 008.023 3.481c8.956 0 15.915-13.893 18.815-22.017H96.466zM82.29 65.792c.028 18.901-13.14 35.256-31.604 39.253s-37.21-5.448-44.995-22.67c-7.783-17.223-2.49-37.545 12.704-48.777C33.59 22.367 54.56 23.276 68.726 35.781l1.095.967-8.763 8.768-.966-.838c-11.31-9.587-28.165-8.543-38.206 2.368-10.04 10.911-9.692 27.804.79 38.291 10.481 10.487 27.365 10.836 38.27.79 10.905-10.046 11.95-26.91 2.367-38.226l-.805-.934 8.763-8.768.967 1.063a39.92 39.92 0 0110.052 26.53zm-40.015 3.481a3.48 3.48 0 003.447-3.481 2.903 2.903 0 000-.903l-.193-.773 5.477-5.448.87 1.515a10.837 10.837 0 011.547 5.609c.035 6.102-4.877 11.079-10.976 11.12-6.1.042-11.078-4.868-11.126-10.97-.047-6.102 4.855-11.089 10.954-11.142 1.96-.006 3.886.517 5.574 1.515l1.546.902-5.477 5.48-.773-.225a3.993 3.993 0 00-.87 0 3.483 3.483 0 100 6.93v-.129zm8.538-13.506l-.935-.677a13.14 13.14 0 00-16.237.76 13.157 13.157 0 00-3.084 15.968 13.143 13.143 0 0024.83-6.026 13.092 13.092 0 00-2.416-7.608l-.676-.934 8.763-8.897.967 1.192c8.617 10.546 7.456 25.999-2.64 35.137-10.096 9.138-25.58 8.75-35.206-.881-9.626-9.632-10.014-25.124-.88-35.225 9.132-10.1 24.578-11.262 35.117-2.64l1.16.934-8.763 8.897zM86.8 6.802l.71-.355c1.6-.91 3.244-1.739 4.929-2.482l1.933-.903v9.123L86.8 19.76V6.802zm-6.443 19.566l-.967-1.192a9.255 9.255 0 01-2.48-7.995 15.118 15.118 0 015.573-7.51l2.223-1.741v13.925l-4.35 4.513zm8.989 5.126a10.371 10.371 0 01-6.444-2.708l-1.192-.935 14.176-14.216h9.15l-.87 1.967c-2.545 5.48-8.151 15.892-14.981 15.892h.16z"/></svg>