<svg width="88" height="88" xmlns="http://www.w3.org/2000/svg"><path d="M78.602 9.43V0a50.76 50.76 0 00-10.947 5.463c-6.248 4.282-9.792 9.745-4.174 16.416l.656.788-6.038 6.041-.787-.683c-13.56-12.256-34.341-11.728-47.262 1.2-12.922 12.928-13.45 33.72-1.2 47.287l.736.788-.814.788-8.4 8.405a.84.84 0 000 1.208.866.866 0 00.603.263.84.84 0 00.578-.263l8.453-8.431.735-.788.814.709c12.993 11.745 32.763 11.745 45.757 0l.787-.71.788.789 8.427 8.431a.866.866 0 00.603.263.866.866 0 00.578-1.471l-8.427-8.458-.761-.735.709-.788c11.658-13.042 11.658-32.766 0-45.807l-.71-.788 6.039-6.042.787.657a10.498 10.498 0 006.537 2.837c7.298 0 12.968-11.32 15.331-17.94h-9.398zm-11.55 44.178C67.073 69.01 56.344 82.335 41.3 85.592 26.255 88.85 10.98 81.152 4.637 67.12c-6.342-14.033-2.03-30.592 10.352-39.744 12.38-9.151 29.467-8.41 41.01 1.779l.893.788-7.14 7.144-.788-.683c-9.216-7.812-22.95-6.96-31.13 1.93-8.182 8.89-7.898 22.655.642 31.2 8.541 8.545 22.298 8.83 31.184.644 8.886-8.186 9.736-21.927 1.929-31.147l-.657-.762 7.14-7.144.788.867a32.527 32.527 0 018.191 21.616zm-32.606 2.837a2.836 2.836 0 002.81-2.837 2.365 2.365 0 000-.735l-.158-.63 4.462-4.44.71 1.235a8.83 8.83 0 011.26 4.57c.028 4.972-3.974 9.028-8.944 9.061-4.97.034-9.026-3.967-9.065-8.939-.039-4.972 3.956-9.035 8.925-9.078a8.87 8.87 0 014.542 1.234l1.26.736-4.463 4.465-.63-.184a3.254 3.254 0 00-.709 0 2.835 2.835 0 00-2.68 4.32 2.835 2.835 0 002.68 1.327v-.105zm6.957-11.005l-.761-.552a10.706 10.706 0 00-13.23.62 10.72 10.72 0 00-2.514 13.01 10.709 10.709 0 0020.233-4.91 10.668 10.668 0 00-1.97-6.198l-.55-.762 7.14-7.25.788.972c7.02 8.593 6.075 21.184-2.151 28.63-8.226 7.446-20.843 7.13-28.687-.718-7.843-7.848-8.159-20.471-.717-28.701 7.442-8.23 20.027-9.177 28.614-2.152l.945.761-7.14 7.25zM70.726 5.542l.578-.289a44.173 44.173 0 014.016-2.022l1.575-.736v7.433l-6.169 6.173V5.542zm-5.25 15.943l-.788-.972A7.54 7.54 0 0162.667 14c.83-2.47 2.42-4.612 4.542-6.12l1.81-1.419v11.347l-3.543 3.677zm7.324 4.177a8.45 8.45 0 01-5.25-2.207l-.972-.761L78.13 11.11h7.456l-.709 1.603c-2.074 4.465-6.642 12.949-12.207 12.949h.131z"/></svg>