<svg width="584" height="470" xmlns="http://www.w3.org/2000/svg"><g fill="none" fill-rule="evenodd"><path d="M382.42 162.48h-13.88v26.79a6.94 6.94 0 0013.88 0m109.75-26.79h13.88v26.79a6.94 6.94 0 01-13.88 0m-90.92-40.52h25.4v32.75h21.15v-29.63m-41.94 11.27h6.19m50.47 0h6.2m-18.63 56.48a12.81 12.81 0 11-25.61 0h25.61zm-60.86 6.68a53.14 53.14 0 0196.11 0m-71.92 28.29v19.46l23.86 13.66 23.88-13.66v-19.46m0 9.11h14.67v19l-38.54 21.72-38.53-21.72v-19h14.67m78.74-45.37v-90.47c-.044-17.728-14.392-32.094-32.12-32.16h-45.51c-17.728.066-32.076 14.432-32.12 32.16v90.47l31 36.26h47.75l31-36.26zm-43.53 223.21a7 7 0 000 13.93h37.74a7 7 0 007-7l20.21-.07m-70.54-20.8a7 7 0 000 13.94h5.58m33.19-122.49h53.92c25.3 0 45.81 20.51 45.81 45.81s-20.51 45.81-45.81 45.81h-37c-11.5 0-19.21-15.12-22.18-40.7-7.9 0-11.79 3.17-11.79 11.73a92.16 92.16 0 001.92 18.35l-28.59-.32a7 7 0 00-7 7h0a7 7 0 007 7h3.72m1.23 13.87h-1.24a7 7 0 01-7-7h0a7 7 0 017-7m-59.16-70.8v126.25M280.31 223.9v245.15m76.5-220.76h-153m27.52-86.85v-60.73a233.88 233.88 0 0049.35 5.27 232.59 232.59 0 0048.84-5.16v47.81a9.28 9.28 0 019.25-9.26h4.08a9 9 0 012.72.41V95.64c-.016-6.304-5.117-11.413-11.42-11.44h-7.4c10.79-15.25-7.88-28.05-33.27-15.52 3.9-36.2-70.35-13.27-61.2 15.52h-4.76c-6.301.033-11.398 5.139-11.42 11.44v45.13a9.3 9.3 0 00-6.77 8.92v16.18a9.28 9.28 0 009.25 9.26h9.47c8.534 22.227 30.098 36.709 53.902 36.198 23.803-.511 44.726-15.905 52.298-38.478m-3.71-4a9.27 9.27 0 008.29 5.18h4.08a9.28 9.28 0 009.25-9.26v-16.14a9.3 9.3 0 00-6.72-8.91m-93.28 1.12h9.66m32.78 0h9.67m-12.22 44.77a12.5 12.5 0 01-22.58 0m18.41-23.82v2.45a3.7 3.7 0 01-3.68 3.69h-9.33a3.7 3.7 0 01-3.68-3.69v-35.37m72.73 162.71h-140.1M126.76 64.93c.016-6.939 5.631-12.563 12.57-12.59h0v24.5c0 9.73-7.28 26.05-24.37 26.81v7.86m11.77-33.14V18.71a6.33 6.33 0 00-6.31-6.31h0a6.33 6.33 0 00-6.3 6.31m-12.57 32.87V7.91a6.3 6.3 0 1112.6 0v43.67m-12.6-36.64a6.31 6.31 0 10-12.61 0v36.64m0 0V28.47m-6.3 83v-8.88a6.33 6.33 0 01-6.3-6.31V28.47a6.3 6.3 0 0112.6 0m62.43 440.58V366.21c-.011-8.909-7.221-16.132-16.13-16.16h-23m-60.94 0H28.16c-8.899.044-16.094 7.261-16.11 16.16v102.84m52.82-152.09v31.79a16.86 16.86 0 1033.72 0v-31.79m0 22.18h13.64v9.61c0 16.845-13.655 30.5-30.5 30.5s-30.5-13.655-30.5-30.5v-9.61h13.64m-20.94-95.61a13.75 13.75 0 1127.49 0m59-67.87l48.12 48.18c-25.99 25.88-68.01 25.88-94 0l-48.13-48.18c25.998-25.888 68.032-25.888 94.03 0h-.02zm213.49 293.39v-177c.044-15.604 12.676-28.245 28.28-28.3h3.11v-11.84c-.038-15.596-12.654-28.239-28.25-28.31h-35.92v-21.37M186.11 469.05V289.41a134.15 134.15 0 01-34.82-9.16M67.05 158.28v-42.09a4.68 4.68 0 014.66-4.67h52.67a4.68 4.68 0 014.67 4.67v38.29a73.19 73.19 0 003.9 23.63m45.39 46a72.79 72.79 0 0020.62 4.13 28 28 0 0115.49-4.66h35.89v-21.4m-112.63 40.8v20.67a55.86 55.86 0 11-111.72 0v-43.54a55.8 55.8 0 0115.93-39m-16 82.58a26.33 26.33 0 01.13-47.64m124.6 24.41a26.32 26.32 0 01-16.9 46.47h-1.23m-101.66-.29a26.33 26.33 0 01-19.44-41.42m0 0c-18.82-25-6.25-62.5 25-69.55" stroke="#FFF" stroke-width="3.2"/><path d="M103.64 393.15a1.67 1.67 0 00-2.29 0 1.49 1.49 0 00-.39 1.08v7.56a1.47 1.47 0 001.47 1.38 1.49 1.49 0 001.59-1.37v-4.51l.3.29c.54.52 1 1.1 1.57 1.61a1.59 1.59 0 001.65.4c.91-.4 1.48-1.36 2.22-2l.28-.24v3.74a2.76 2.76 0 00.16 1.28 1.63 1.63 0 001.86.72 1.44 1.44 0 001.07-1.4v-7.44a1.45 1.45 0 00-.4-1.09 1.66 1.66 0 00-2.25 0c-1.12 1.06-2.19 2.17-3.31 3.24v.05h-.21v-.05c-1.09-1.07-2.17-2.15-3.27-3.22m9.87-5.43a1.9 1.9 0 00-1 2.7 1.93 1.93 0 103-2.32 2.1 2.1 0 00-2-.39m11.65 0a1.91 1.91 0 00-1 2.7 1.93 1.93 0 103-2.32 2.1 2.1 0 00-2-.39m-23.3 0a1.91 1.91 0 00-1 2.7 1.93 1.93 0 103-2.32 2.1 2.1 0 00-2-.39m16 5.43a1.67 1.67 0 00-2.29 0 1.5 1.5 0 00-.4 1.08v7.56a1.49 1.49 0 001.48 1.38 1.49 1.49 0 001.59-1.37v-4.51l.29.29c.55.52 1 1.1 1.58 1.61a1.59 1.59 0 001.65.4c.91-.4 1.48-1.36 2.22-2l.27-.24v3.74a2.77 2.77 0 00.17 1.28 1.63 1.63 0 001.86.72 1.46 1.46 0 001.07-1.4v-7.44a1.42 1.42 0 00-.41-1.09 1.65 1.65 0 00-2.24 0c-1.12 1.06-2.19 2.17-3.31 3.24v.05h-.21v-.05c-1.09-1.07-2.17-2.15-3.27-3.22" fill="#FFF"/><path d="M101.31 271.05c0 10.786-8.744 19.53-19.53 19.53-10.786 0-19.53-8.744-19.53-19.53h39.06z" stroke="#FFF" stroke-width="3.2"/></g></svg>