<svg width="253" height="204" xmlns="http://www.w3.org/2000/svg"><g fill="none" fill-rule="evenodd"><path d="M165.672 70.863h-6.018v11.634a3.011 3.011 0 003.009 3.014 3.011 3.011 0 003.009-3.014m47.58-11.634h6.017v11.634a3.011 3.011 0 01-3.009 3.014 3.011 3.011 0 01-3.009-3.014M173.835 64.9h11.012v14.223h9.169V66.255m-18.183 4.894h2.684m21.88 0h2.688m-8.077 24.528a5.565 5.565 0 01-2.73 4.948 5.545 5.545 0 01-5.642 0 5.565 5.565 0 01-2.73-4.948h11.102zm-26.384 2.901a23.035 23.035 0 0120.833-13.226 23.035 23.035 0 0120.833 13.226m-31.18 12.286v8.451l10.345 5.933 10.353-5.933v-8.45m0 3.956h6.36v8.25l-16.709 9.433-16.704-9.432v-8.251h6.36m34.136-19.704v-39.29c-.019-7.698-6.24-13.937-13.925-13.966h-19.73c-7.685.03-13.905 6.268-13.924 13.967v39.29l13.439 15.746h20.7l13.44-15.747zm-18.871 96.936a3.038 3.038 0 00-2.732 3.025 3.038 3.038 0 002.732 3.024h16.361a3.037 3.037 0 003.035-3.04l8.761-.03M191.957 186a3.038 3.038 0 00-2.755 3.027 3.038 3.038 0 002.754 3.027h2.42m14.388-53.195h23.376c10.968 0 19.86 8.907 19.86 19.894 0 10.988-8.892 19.895-19.86 19.895H216.1c-4.986 0-8.329-6.567-9.616-17.675-3.425 0-5.111 1.376-5.111 5.094.01 2.677.29 5.347.832 7.969l-12.395-.14a3.037 3.037 0 00-3.034 3.04h0a3.037 3.037 0 003.034 3.04h1.613m.533 6.024h-.537a3.037 3.037 0 01-3.035-3.04h0a3.037 3.037 0 013.035-3.04m-25.648-30.747V204M121.404 97.536V204m33.165-95.872h-66.33m11.93-37.717V44.037a101.225 101.225 0 0021.395 2.289 100.74 100.74 0 0021.174-2.241v20.763a4.027 4.027 0 014.01-4.022h1.769c.4-.001.797.059 1.18.179v-19.17a4.977 4.977 0 00-4.952-4.968h-3.208c4.678-6.623-3.416-12.181-14.423-6.74 1.69-15.72-30.5-5.763-26.532 6.74h-2.064a4.981 4.981 0 00-4.95 4.968v19.6a4.038 4.038 0 00-2.936 3.873v7.027a4.027 4.027 0 004.01 4.021h4.106c3.7 9.653 13.048 15.942 23.368 15.72 10.32-.222 19.39-6.907 22.673-16.71m-1.609-1.737a4.018 4.018 0 003.594 2.25h1.769a4.027 4.027 0 004.01-4.022v-7.01a4.038 4.038 0 00-2.913-3.869m-40.44.487h4.188m14.211 0h4.192m-5.297 19.443a5.418 5.418 0 01-4.895 3.098 5.418 5.418 0 01-4.894-3.098m7.98-10.345v1.064a1.605 1.605 0 01-1.595 1.603h-4.044a1.605 1.605 0 01-1.596-1.603v-15.36m31.53 70.661H88.244m-33.407-98.43a5.476 5.476 0 015.45-5.467h0v10.64c0 4.225-3.157 11.313-10.566 11.643v3.413m5.103-14.392V8.426a2.747 2.747 0 00-2.736-2.74h0a2.747 2.747 0 00-2.731 2.74m-5.45 14.275V3.736c0-.978.521-1.88 1.366-2.37a2.727 2.727 0 012.731 0 2.737 2.737 0 011.366 2.37v18.965M43.907 6.789a2.741 2.741 0 00-1.335-2.464 2.731 2.731 0 00-2.798 0A2.741 2.741 0 0038.44 6.79v15.912m0 0V12.665M35.709 48.71v-3.856a2.747 2.747 0 01-2.732-2.74v-29.45A2.734 2.734 0 0135.71 9.93a2.734 2.734 0 012.73 2.736M65.506 204v-44.661c-.005-3.87-3.13-7.006-6.993-7.018h-9.971m-26.42 0H12.09c-3.858.019-6.977 3.153-6.984 7.018V204m22.899-66.05v13.806a7.324 7.324 0 003.654 6.341 7.298 7.298 0 007.31 0 7.324 7.324 0 003.654-6.34V137.95m0 9.633h5.914v4.173c0 7.315-5.92 13.246-13.223 13.246-7.303 0-13.223-5.93-13.223-13.246v-4.173h5.914m-9.078-41.522a5.974 5.974 0 012.932-5.305 5.952 5.952 0 016.053 0 5.974 5.974 0 012.932 5.305m25.579-29.475l20.86 20.924c-11.266 11.239-29.483 11.239-40.75 0L15.666 76.586c11.27-11.242 29.493-11.242 40.764 0h-.008zM148.976 204v-76.868c.02-6.776 5.496-12.266 12.26-12.29h1.349V109.7c-.017-6.773-5.486-12.263-12.247-12.294h-15.573v-9.28M80.565 204v-78.014a58.077 58.077 0 01-15.095-3.978m-36.52-52.97V50.76a2.03 2.03 0 012.02-2.028h22.834a2.03 2.03 0 012.025 2.028v16.628a31.835 31.835 0 001.69 10.262m19.678 19.977a31.509 31.509 0 008.94 1.794 12.124 12.124 0 016.715-2.024h15.56v-9.293m-48.83 17.718v8.977a24.267 24.267 0 01-12.107 21.009 24.18 24.18 0 01-24.217 0 24.267 24.267 0 01-12.109-21.01V95.89a24.255 24.255 0 016.906-16.937m-6.936 35.863a11.436 11.436 0 01-6.523-10.362 11.436 11.436 0 016.58-10.327m54.017 10.6a11.443 11.443 0 013.382 12.658 11.411 11.411 0 01-10.709 7.524h-.533m-44.073-.126a11.415 11.415 0 01-9.431-6.54 11.451 11.451 0 011.004-11.448m0 0c-8.16-10.857-2.71-27.142 10.838-30.204" stroke="#FFF" stroke-width="2"/><path d="M44.199 172.49a.627.627 0 00-.927 0 .717.717 0 00-.158.486v3.401c.02.35.28.622.595.621.33.026.618-.25.644-.616v-2.03l.121.131c.219.234.405.495.635.724a.6.6 0 00.668.18c.368-.18.6-.612.899-.9l.113-.108v1.683c-.02.195.002.393.065.576.155.286.464.42.752.324.257-.076.435-.335.433-.63v-3.347a.696.696 0 00-.162-.49.623.623 0 00-.91 0c-.453.476-.886.976-1.34 1.457v.022h-.085v-.022c-.44-.481-.878-.967-1.323-1.449m3.994-2.443a.817.817 0 00-.453.504.941.941 0 00.049.71c.142.312.439.498.752.473.313-.025.583-.257.683-.588a.934.934 0 00-.221-.928.785.785 0 00-.81-.176m4.715 0a.822.822 0 00-.451.505.946.946 0 00.046.71c.142.311.439.498.752.472.314-.025.583-.256.684-.587a.934.934 0 00-.222-.929.785.785 0 00-.81-.175m-9.428 0a.822.822 0 00-.45.505.946.946 0 00.045.71c.143.311.44.497.753.472.313-.025.582-.257.683-.588a.934.934 0 00-.222-.928.785.785 0 00-.81-.176m6.476 2.444a.627.627 0 00-.927 0 .72.72 0 00-.162.486v3.401c.023.35.284.62.599.621.33.026.617-.25.643-.616v-2.03l.118.131c.222.234.404.495.64.724a.6.6 0 00.667.18c.368-.18.599-.612.898-.9l.11-.108v1.683c-.019.196.005.393.068.576.155.286.465.42.753.324.255-.078.432-.336.433-.63v-3.347a.68.68 0 00-.166-.49.62.62 0 00-.907 0c-.453.476-.886.976-1.339 1.457v.022h-.085v-.022c-.441-.481-.878-.967-1.323-1.449" fill="#FFF"/><path d="M43 118c0 4.418-3.806 8-8.5 8s-8.5-3.582-8.5-8h17z" stroke="#FFF" stroke-width="2"/></g></svg>