<svg width="14" height="15" xmlns="http://www.w3.org/2000/svg"><path d="M6.193 10.104l.576-.576a1.09 1.09 0 00.32-.815.438.438 0 00-.19-.345 1.968 1.968 0 01-.283-3.019l1.837-1.837a1.971 1.971 0 012.798.014c.76.774.735 2.022-.031 2.788l-.358.358a.44.44 0 00-.103.454c.16.47.247.957.265 1.442.013.38.477.559.746.29l1.014-1.015a4.16 4.16 0 000-5.878 4.16 4.16 0 00-5.877 0L5.069 3.803a4.154 4.154 0 00.561 6.348.44.44 0 00.563-.047zm.9 3.43l1.838-1.837A4.154 4.154 0 008.37 5.35a.44.44 0 00-.563.047l-.576.576a1.09 1.09 0 00-.32.815c.006.143.08.269.19.345a1.968 1.968 0 01.283 3.019l-1.838 1.837a1.971 1.971 0 01-2.798-.014c-.758-.774-.734-2.022.032-2.788l.358-.358a.44.44 0 00.103-.454 5.038 5.038 0 01-.265-1.442.437.437 0 00-.746-.29L1.215 7.657a4.16 4.16 0 000 5.878 4.16 4.16 0 005.878 0z"/></svg>