<svg width="101" height="18" xmlns="http://www.w3.org/2000/svg"><path d="M18.365 9.018c1.102-.223 2.349-.033 3.19.768 1.14 1.086 1.136 3.098.012 4.195-.76.742-1.874.962-2.892.83-.876-.1-1.73-.556-2.199-1.32-.646-1.008-.603-2.41.11-3.372.427-.579 1.08-.96 1.779-1.101zm-.287-3.065c-1.491.182-2.937.85-3.951 1.985-1.154 1.292-1.646 3.112-1.407 4.823.22 1.569 1.079 3.046 2.377 3.95 1.492 1.038 3.385 1.325 5.159 1.127 1.499-.168 2.972-.799 4.006-1.93 1.305-1.426 1.798-3.515 1.375-5.396-.339-1.501-1.278-2.842-2.585-3.641-1.478-.904-3.282-1.124-4.974-.918zm28.571.443c-.678-.694-1.937-.683-2.607.024-.32.321-.46.783-.45 1.234.012 2.888-.014 5.775.012 8.662.007.877.832 1.577 1.674 1.577h.014c.877.06 1.795-.645 1.807-1.566.02-1.567 0-3.133.012-4.7l.003-.468.334.325c.616.598 1.159 1.27 1.788 1.849.494.437 1.23.762 1.877.456 1.034-.456 1.683-1.553 2.523-2.28l.318-.274.01.422c.035 1.288.013 2.576.012 3.86.01.477-.055 1.046.189 1.475l.003.007c.383.732 1.335 1.057 2.108.821.693-.19 1.249-.857 1.219-1.596V7.646c.02-.457-.135-.923-.46-1.248-.669-.668-1.874-.69-2.556-.032-1.268 1.221-2.49 2.49-3.758 3.711l-.058.055h-.24l-.058-.056c-1.243-1.22-2.47-2.457-3.716-3.68zm-16.112 0c-.678-.694-1.937-.683-2.607.024-.319.321-.46.783-.45 1.234.012 2.888-.014 5.775.012 8.662.008.877.833 1.577 1.674 1.577h.014c.877.06 1.796-.645 1.808-1.566.02-1.567 0-3.133.01-4.7l.004-.468.334.325c.616.598 1.159 1.27 1.788 1.849.494.437 1.23.762 1.877.456 1.035-.456 1.683-1.553 2.524-2.28l.317-.274.011.422c.034 1.288.011 2.576.011 3.86.011.477-.055 1.046.189 1.475l.003.007c.384.732 1.335 1.057 2.108.821.693-.19 1.25-.857 1.22-1.596l-.001-.008v-8.57c.02-.457-.135-.923-.46-1.248-.669-.668-1.874-.69-2.556-.032-1.268 1.221-2.49 2.49-3.758 3.711l-.058.055h-.24l-.058-.056c-1.243-1.22-2.47-2.457-3.716-3.68zm32.493.929c-.094-1.097-1.406-1.72-2.37-1.338l-.004.002-.006.001c-.635.21-1.135.857-1.105 1.543v.008c0 1.582-.022 3.163 0 4.744.022 1.513.63 3.03 1.762 4.042 2.368 2.12 6.336 2.09 8.673-.066 1.11-1.024 1.685-2.54 1.696-4.043.012-1.592.02-3.184 0-4.777-.011-.901-.903-1.584-1.758-1.555h-.014c-.848-.03-1.731.668-1.746 1.557-.028 1.589.004 3.178-.012 4.768-.008.794-.3 1.61-.93 2.11-.946.781-2.445.739-3.343-.098-.542-.505-.81-1.256-.82-1.989-.025-1.636.022-3.273-.023-4.91m12.671 10.558c.787-.06 1.517-.735 1.52-1.554.007-1.415.001-2.83.012-4.246l.004-.475.335.334c1.761 1.753 3.477 3.552 5.227 5.316.408.412.992.709 1.581.627l.007-.001h.006c.789-.061 1.54-.74 1.543-1.566.008-2.959.016-5.918 0-8.877-.006-.933-.964-1.646-1.847-1.554h-.013c-.803.03-1.595.702-1.603 1.543-.013 1.416 0 2.831-.01 4.246l-.005.475-.335-.333c-1.595-1.587-3.168-3.196-4.753-4.794-.39-.393-.79-.878-1.319-1.066-.757-.244-1.686.07-2.082.787-.161.275-.198.61-.198.922v8.083c0 .393-.024.847.16 1.21.313.65 1.065 1.005 1.763.924h.007m17.103-5.179c.375-.804.737-1.613 1.13-2.407l.174-.351.181.348c.41.792.783 1.603 1.165 2.408l.137.288H92.67l.134-.287zM90.25 17.61c.51-.381.752-1.04 1.005-1.603l.052-.116.125-.002c1.789-.034 3.577-.012 5.366-.012h.128l.053.118c.256.57.496 1.225 1.015 1.602.737.51 1.872.357 2.431-.36.366-.449.47-1.124.191-1.648-1.424-2.815-2.834-5.636-4.268-8.45-.802-1.669-3.58-1.702-4.418-.042-1.422 2.812-2.858 5.617-4.292 8.429-.287.529-.208 1.237.175 1.704.555.723 1.688.877 2.437.38zm-80.43-.15c.555-.217 1.234-.447 1.554-.993.502-.86-.011-2.195-1.015-2.376l-.008-.002c-.822-.184-1.644.488-2.447.65-1.119.226-2.394.125-3.31-.618-.977-.765-1.29-2.205-.831-3.338.284-.761.935-1.34 1.688-1.61 1.127-.402 2.403-.302 3.473.225.47.232 1.034.427 1.553.252l.01-.002c.922-.26 1.371-1.522.87-2.325-.402-.607-1.12-.903-1.783-1.102-1.255-.347-2.575-.416-3.864-.268-2.061.239-4.086 1.411-5.037 3.318-.842 1.687-.798 3.784.109 5.436.828 1.508 2.344 2.55 3.991 2.941a9.444 9.444 0 005.046-.188M28.512.168c-1.25.348-1.803 1.996-1.189 3.1l.004.008c.666 1.343 2.848 1.433 3.679.212.606-.85.527-2.14-.235-2.867-.591-.565-1.5-.666-2.26-.453m26.497 0c-1.25.348-1.803 1.996-1.19 3.1l.005.008c.666 1.343 2.847 1.433 3.679.212.606-.85.528-2.14-.235-2.867-.591-.565-1.5-.666-2.26-.453m-13.249 0c-1.249.348-1.803 1.996-1.189 3.1l.005.008c.665 1.343 2.847 1.433 3.678.212.606-.85.528-2.14-.235-2.867-.59-.565-1.5-.666-2.259-.453" fill="#00A6ED" fill-rule="evenodd"/></svg>