<svg width="95" height="17" xmlns="http://www.w3.org/2000/svg"><path d="M17.215 8.871c1.008-.203 2.148-.03 2.917.703 1.042.995 1.04 2.836.012 3.841-.695.68-1.714.881-2.645.76-.801-.09-1.582-.509-2.011-1.209-.59-.923-.551-2.205.1-3.086.391-.53.989-.88 1.627-1.009zm-.262-2.805c-1.364.166-2.686.777-3.613 1.816-1.055 1.183-1.505 2.85-1.286 4.416.2 1.437.986 2.79 2.173 3.616 1.365.951 3.095 1.214 4.717 1.032 1.37-.153 2.718-.73 3.664-1.766 1.193-1.306 1.644-3.219 1.256-4.941-.309-1.374-1.167-2.602-2.363-3.334-1.351-.827-3-1.028-4.548-.84zm26.927.404c-.631-.635-1.806-.625-2.431.022-.297.294-.429.717-.42 1.13.011 2.644-.013 5.287.011 7.93.008.803.777 1.444 1.562 1.444h.013c.818.056 1.675-.59 1.686-1.434.019-1.434 0-2.868.01-4.303l.004-.428.312.297c.574.548 1.08 1.164 1.667 1.693.461.4 1.147.698 1.751.418.965-.418 1.57-1.422 2.354-2.087l.296-.251.01.386c.032 1.179.011 2.358.011 3.534.01.436-.051.957.176 1.35l.003.006c.358.671 1.245.969 1.966.753.647-.174 1.165-.785 1.137-1.462V7.615a1.508 1.508 0 00-.43-1.143c-.623-.612-1.747-.631-2.383-.03-1.183 1.119-2.323 2.28-3.506 3.398l-.054.05-.223.001-.055-.052c-1.16-1.117-2.304-2.25-3.466-3.369zm-15.029 0c-.632-.635-1.806-.625-2.431.022-.298.294-.429.717-.42 1.13.011 2.644-.013 5.287.011 7.93.007.803.777 1.444 1.562 1.444h.013c.818.056 1.675-.59 1.686-1.434.019-1.434 0-2.868.01-4.303l.003-.428.312.297c.575.548 1.08 1.164 1.668 1.693.461.4 1.147.698 1.75.418.966-.418 1.57-1.422 2.355-2.087l.296-.251.01.386c.032 1.179.01 2.358.01 3.534.01.436-.05.957.176 1.35l.003.006c.358.671 1.246.969 1.967.753.646-.174 1.165-.785 1.137-1.462V7.615a1.508 1.508 0 00-.43-1.143c-.623-.612-1.747-.631-2.383-.03-1.183 1.119-2.324 2.28-3.506 3.398l-.054.05-.223.001-.055-.052c-1.16-1.117-2.304-2.25-3.467-3.369zm30.312.857c-.085-1.003-1.272-1.573-2.145-1.224l-.004.002-.005.001c-.575.193-1.027.784-1 1.411v.008c0 1.447-.02 2.894 0 4.34.02 1.384.57 2.772 1.594 3.698 2.144 1.94 5.735 1.912 7.85-.06 1.005-.937 1.526-2.325 1.536-3.699.01-1.457.019-2.913 0-4.37-.01-.825-.817-1.45-1.591-1.423h-.013c-.768-.028-1.567.61-1.58 1.424-.026 1.454.003 2.908-.011 4.362-.007.727-.273 1.473-.842 1.932-.856.713-2.213.675-3.026-.091-.49-.461-.733-1.149-.742-1.82-.022-1.496.02-2.994-.02-4.491m12.581 9.659c.71-.055 1.37-.673 1.373-1.422.007-1.295 0-2.59.01-3.885l.004-.435.303.306c1.591 1.604 3.141 3.25 4.722 4.864.37.377.896.648 1.43.574l.005-.001.005-.001c.713-.055 1.392-.676 1.394-1.432.008-2.707.015-5.415 0-8.122-.004-.854-.87-1.506-1.668-1.422h-.012c-.725.028-1.44.643-1.448 1.412-.012 1.295 0 2.59-.01 3.885l-.003.434-.303-.305c-1.441-1.451-2.863-2.924-4.294-4.385-.352-.36-.715-.804-1.192-.976-.684-.224-1.523.064-1.881.72-.146.251-.179.558-.179.844v7.395c0 .36-.022.775.145 1.107.282.594.962.92 1.592.846l.007-.001m15.468-4.738c.367-.734.72-1.474 1.104-2.2l.17-.322.177.32c.4.723.765 1.464 1.138 2.201l.134.263h-2.854l.131-.262zm-2.493 4.487c.498-.348.734-.95.981-1.465l.051-.106.123-.003c1.747-.03 3.493-.01 5.24-.01h.126l.051.108c.25.52.485 1.12.991 1.465.72.465 1.83.327 2.375-.33.357-.41.46-1.028.187-1.507-1.39-2.573-2.768-5.153-4.17-7.727-.782-1.525-3.495-1.555-4.314-.038-1.39 2.572-2.792 5.136-4.192 7.708-.28.483-.203 1.13.17 1.558.543.661 1.65.802 2.38.347zm-75.394-.141c.532-.199 1.182-.41 1.487-.909.48-.786-.01-2.008-.97-2.173l-.008-.002c-.786-.168-1.572.446-2.34.595-1.071.206-2.292.114-3.167-.566-.935-.7-1.235-2.017-.796-3.053.272-.697.895-1.227 1.616-1.473 1.077-.368 2.298-.277 3.322.206.45.212.989.39 1.486.23l.01-.002c.881-.238 1.311-1.392.831-2.127-.384-.555-1.071-.826-1.706-1.008-1.2-.317-2.463-.38-3.696-.245-1.972.218-3.909 1.29-4.819 3.035a5.242 5.242 0 00.105 4.973c.792 1.38 2.242 2.332 3.818 2.69a9.432 9.432 0 004.827-.17M27.328.096c-1.152.326-1.662 1.864-1.096 2.896l.004.008c.614 1.254 2.626 1.338 3.393.198.559-.794.486-1.999-.217-2.68-.545-.526-1.383-.62-2.084-.422m24 0c-1.151.326-1.662 1.864-1.096 2.896l.004.008c.614 1.254 2.626 1.338 3.393.198.559-.794.486-1.999-.217-2.68-.545-.526-1.383-.62-2.084-.422m-12 0c-1.151.326-1.662 1.864-1.096 2.896l.004.008c.614 1.254 2.626 1.338 3.393.198.559-.794.486-1.999-.217-2.68-.545-.526-1.383-.62-2.084-.422" fill="#00A6ED" fill-rule="evenodd"/></svg>