<svg width="14" height="15" xmlns="http://www.w3.org/2000/svg"><path d="M11.563 9.065l1.222-1.222a4.16 4.16 0 000-5.878 4.161 4.161 0 00-5.878 0L5.685 3.187a.328.328 0 000 .464l1.083 1.083a.328.328 0 00.464 0l1.222-1.222a1.971 1.971 0 012.784 0 1.971 1.971 0 010 2.784l-1.222 1.222a.328.328 0 000 .464L11.1 9.065a.328.328 0 00.464 0zm1.626 5.493l.619-.619a.656.656 0 000-.928L1.739.942a.656.656 0 00-.928 0l-.619.619a.656.656 0 000 .928l12.069 12.069a.656.656 0 00.928 0zm-6.096-1.023l1.222-1.222a.328.328 0 000-.464l-1.083-1.083a.328.328 0 00-.464 0l-1.222 1.222a1.971 1.971 0 01-2.784 0 1.971 1.971 0 010-2.784l1.222-1.222a.328.328 0 000-.464L2.9 6.435a.328.328 0 00-.464 0L1.215 7.657a4.16 4.16 0 000 5.878 4.161 4.161 0 005.878 0z"/></svg>