<svg width="8" height="16" xmlns="http://www.w3.org/2000/svg"><path d="M2.637.824C3.307.23 4.254.028 5.153.004 6.1-.002 7.049.002 7.997.002c.004.936.004 1.867 0 2.803H6.159c-.387-.023-.786.252-.857.613-.008.625-.004 1.25-.004 1.876.898.003 1.797 0 2.695.003a32.548 32.548 0 01-.329 2.699c-.794.007-1.588 0-2.383.004-.008 2.667.005 5.33-.004 7.997-1.18.004-2.358-.004-3.539.004-.02-2.667 0-5.334-.012-8.001C1.152 7.995.574 8.002 0 7.995.004 7.098 0 6.2 0 5.308c.574-.008 1.152 0 1.726-.004.016-.87-.017-1.743.016-2.613.063-.694.342-1.39.895-1.867z"/></svg>