<svg width="114" height="99" xmlns="http://www.w3.org/2000/svg"><path d="M90.025 23.37c.167-.035.34-.035.508 0l18.466 8.627c4.325 2.04 6.2 7.195 4.201 11.549l-23.48 50.44c-2.036 4.336-7.178 6.216-11.52 4.212L64.376 91.71l-.115-.037a1.053 1.053 0 01-.664-1.016c0-.6.485-1.087 1.084-1.087.167-.039.341-.039.508 0l1.288.714 12.638 5.944a6.532 6.532 0 008.64-3.159l23.48-50.44c1.494-3.266.089-7.128-3.151-8.662L90.6 25.985l-.102-.04c-.568-.236-1.558-.815-1.558-1.455a1.088 1.088 0 011.084-1.12zM69.695 0a8.697 8.697 0 016.18 2.545 8.74 8.74 0 012.562 6.185v61.14a8.74 8.74 0 01-2.55 6.206 8.697 8.697 0 01-6.191 2.557H8.708a8.697 8.697 0 01-6.17-2.569A8.741 8.741 0 010 69.87V8.73C0 3.908 3.9 0 8.708 0zm-55.26 76.425c0-.747.237-1.46.339-2.14.101-.679.372-1.97.61-3.023 1.999-8.967 7.488-9.374 12.095-9.748 3.016-.204 5.388-.374 5.49-3.77v-3.058a28.15 28.15 0 01-5.591-3.737 7.745 7.745 0 01-2.541-3.77 73.972 73.972 0 01-1.796-8.9 35.617 35.617 0 010-8.695 12.71 12.71 0 015.15-8.73 18.907 18.907 0 0110.978-3.396 18.94 18.94 0 0111.011 3.397 12.573 12.573 0 015.252 8.695 34.051 34.051 0 010 8.696c-.416 3-1.015 5.972-1.796 8.899a7.983 7.983 0 01-2.609 3.804 26.694 26.694 0 01-5.387 3.6v3.058c0 3.396 2.575 3.736 5.49 3.94 4.607.374 10.164.781 12.061 9.748a69.63 69.63 0 01.61 3.023c.17.951.237 1.393.339 2.14h5.794a6.497 6.497 0 004.612-1.922 6.53 6.53 0 001.893-4.633V8.764a6.53 6.53 0 00-1.976-4.72 6.496 6.496 0 00-4.766-1.836H8.708c-3.593 0-6.506 2.92-6.506 6.522v61.14a6.53 6.53 0 001.894 4.633 6.497 6.497 0 004.612 1.922h5.726zm47.096 0c0-.543-.17-1.12-.271-1.732a46.559 46.559 0 00-.61-2.921c-1.592-7.235-6.099-7.54-9.826-7.846-3.727-.306-7.623-.578-7.793-6.182v-1.97c0-.68 0-1.36.238-2.106v-.612l.779-.407a25.334 25.334 0 005.455-3.397 5.502 5.502 0 001.863-2.582 72.815 72.815 0 001.728-8.593c.338-2.684.338-5.4 0-8.084a10.194 10.194 0 00-4.303-7.201 16.574 16.574 0 00-9.588-3.023 16.912 16.912 0 00-9.623 3.023 10.432 10.432 0 00-4.269 7.065 34.051 34.051 0 000 8.084 72.813 72.813 0 001.796 8.594 5.502 5.502 0 001.863 2.581 25.333 25.333 0 005.455 3.397l.542.305v.612c0 .747.17 1.46.204 2.106.05.656.05 1.314 0 1.97 0 5.706-3.592 5.978-7.692 6.284-4.1.305-8.131.747-9.758 7.982a74.225 74.225 0 00-.576 2.921c-.169.985-.203 1.189-.203 1.732H61.53z"/></svg>