<svg width="16" height="16" xmlns="http://www.w3.org/2000/svg"><path d="M8 4C5.795 4 4 5.794 4 8s1.794 4 4 4c2.205 0 4-1.794 4-4s-1.795-4-4-4zm0 6.527A2.538 2.538 0 015.457 8 2.538 2.538 0 018 5.473 2.538 2.538 0 0110.543 8 2.538 2.538 0 018 10.527z"/><path d="M11.395 0h-6.79C2.066 0 0 2.058 0 4.588v6.824C0 13.942 2.066 16 4.605 16h6.79C13.935 16 16 13.942 16 11.412V4.588C16 2.058 13.934 0 11.395 0zm3.08 11.412a3.079 3.079 0 01-3.08 3.07h-6.79a3.079 3.079 0 01-3.08-3.07V4.588a3.079 3.079 0 013.08-3.07h6.79a3.079 3.079 0 013.08 3.07v6.824z"/><circle cx="12" cy="4" r="1"/></svg>