<svg width="17" height="14" xmlns="http://www.w3.org/2000/svg"><path d="M17 1.661c-.618.316-1.314.475-2.009.554.695-.475 1.236-1.107 1.545-1.978-.695.396-1.39.712-2.24.87C13.676.395 12.75 0 11.745 0 9.814 0 8.268 1.582 8.268 3.56c0 .316 0 .553.078.79-2.86-.158-5.41-1.582-7.187-3.717a3.53 3.53 0 00-.463 1.819A3.48 3.48 0 002.24 5.378a2.74 2.74 0 01-1.545-.474v.079c0 1.74 1.159 3.164 2.781 3.48-.309.079-.618.158-.927.158-.232 0-.464 0-.618-.079.463 1.424 1.7 2.452 3.245 2.452-1.159.95-2.704 1.503-4.327 1.503-.31 0-.541 0-.85-.079C1.545 13.446 3.323 14 5.332 14c6.413 0 9.89-5.378 9.89-10.124V3.4c.773-.395 1.314-1.028 1.778-1.74z"/></svg>