<svg display="none" xmlns="http://www.w3.org/2000/svg">
      <symbol id="arw-btn" viewBox="0 0 7 11" >
        <g id="Page-1" stroke="none" stroke-width="1" >
          <g id="index.desktop" transform="translate(-324.000000, -477.000000)">
            <g id="Banner" transform="translate(0.000000, 70.000000)">
              <path d="M326.135897,417.452681 L330.690818,412.897761 C330.910475,412.67808 330.910475,412.321941 330.690795,412.102284 L326.135897,407.547363 C325.91624,407.327706 325.560101,407.327706 325.34042,407.547363 L324.809164,408.078619 C324.58985,408.297933 324.589438,408.653363 324.808226,408.873181 L328.418073,412.500011 L324.808226,416.126864 C324.589438,416.346681 324.58985,416.702111 324.809164,416.921425 L325.34042,417.452681 C325.560078,417.672339 325.916217,417.672339 326.135897,417.452681 Z" id="arw-btn"></path>
            </g>
          </g>
      </g>
      </symbol>

      <symbol id="submit" viewBox="0 0 16 12">
        <g id="Page-1" stroke="none" stroke-width="1">
          <g id="index.desktop" transform="translate(-1043.000000, -2780.000000)">
            <g id="Subscribe" transform="translate(0.000000, 2692.000000)">
              <path d="M1049.56566,99.7314154 L1058.76565,90.5313946 C1059.07806,90.2189564 1059.07806,89.7124269 1058.76565,89.4000192 L1057.6343,88.2686437 C1057.3219,87.956236 1056.81534,87.956236 1056.50293,88.2686437 L1048.99999,95.771586 L1045.49703,92.2686342 C1045.18463,91.9561959 1044.67807,91.9561959 1044.36566,92.2686342 L1043.23431,93.4000096 C1042.92191,93.7124479 1042.92191,94.2189774 1043.23431,94.5313851 L1048.43431,99.7313849 C1048.74669,100.043823 1049.25322,100.043823 1049.56566,99.7314154 Z" id="submit"></path>
            </g>
          </g>
      </g>
      </symbol>

      <symbol id="fb" viewBox="0 0 8 16">
        <g id="Page-1" stroke="none" stroke-width="1">
          <g id="index.desktop" transform="translate(-789.000000, -2146.000000)">
            <g id="Support" transform="translate(0.000000, 1914.000000)">
              <g id="facebook" transform="translate(789.000000, 232.000000)">
                <path d="M2.63666895,0.824084503 C3.30627018,0.230129981 4.25419805,0.0282487596 5.15256448,0.00487047578 C6.1007532,-0.00292228547 7.04894193,0.000974095157 7.9968698,0.000974095157 C8.0010434,0.936592493 8.0010434,1.86831451 7.9968698,2.80393291 C7.38569891,2.80393291 6.77009358,2.80393291 6.15892269,2.80393291 C5.77208256,2.78055463 5.37298249,3.05622355 5.30229222,3.41736933 C5.29394503,4.0424949 5.29811862,4.66737694 5.29811862,5.29250251 C6.1962242,5.29639889 7.09459063,5.29250251 7.99269621,5.29639889 C7.92617953,6.20084625 7.80566696,7.10164074 7.66428641,7.99464248 C6.86999902,8.00243524 6.07571163,7.99464248 5.28142424,7.99853886 C5.27307705,10.6656114 5.28559783,13.3287876 5.27725064,15.9961036 C4.09612312,16 2.91943004,15.9922072 1.73830252,16 C1.71743454,13.3329275 1.73830252,10.6658549 1.72578173,7.99853886 C1.15191235,7.99464248 0.57386938,8.00243524 0,7.99464248 C0.00417359549,7.09774436 0,6.20108977 0,5.30808803 C0.57386938,5.30029527 1.15191235,5.30808803 1.72578173,5.30419165 C1.74247612,4.4345682 1.70908735,3.56104837 1.74247612,2.69142492 C1.80508005,1.99665155 2.08366755,1.30163465 2.63666895,0.824084503 Z" id="facebook"></path>
              </g>
            </g>
          </g>
        </g>
      </symbol>

      <symbol id="insta" viewBox="0 0 16 16">
        <g id="Page-1" stroke="none" stroke-width="1">
          <g id="index.desktop" transform="translate(-844.000000, -2146.000000)">
            <g id="Support" transform="translate(0.000000, 1914.000000)">
                <g id="insta" transform="translate(844.000000, 232.000000)">
                  <path d="M8,4 C5.79459866,4 4,5.79435701 4,8.00012667 C4,10.205643 5.79434802,12 8,12 C10.2054013,12 12,10.205643 12,8.00012667 C12,5.79435701 10.2054013,4 8,4 Z M8,10.5273758 C6.59765649,10.5273758 5.45698352,9.39345768 5.45698352,8.00012667 C5.45698352,6.60654232 6.59765649,5.47287755 8,5.47287755 C9.40209286,5.47287755 10.5430165,6.60654232 10.5430165,8.00012667 C10.5430165,9.39371101 9.40234351,10.5273758 8,10.5273758 Z" id="Shape"></path>
                  <path d="M11.3946254,0 L4.60537464,0 C2.06611165,0 0,2.05783926 0,4.5875165 L0,11.4124835 C0,13.9419001 2.06584995,16 4.60537464,16 L11.3946254,16 C13.9341501,16 16,13.9419001 16,11.4124835 L16,4.5875165 C16,2.05809994 13.9341501,0 11.3946254,0 Z M14.4758665,11.4124835 C14.4758665,13.1048438 13.0935737,14.4817766 11.3946254,14.4817766 L4.60537464,14.4817766 C2.90642634,14.4817766 1.52413353,13.1048438 1.52413353,11.4124835 L1.52413353,4.5875165 C1.52413353,2.89515617 2.90642634,1.51822344 4.60537464,1.51822344 L4.60537464,1.51822344 L11.3946254,1.51822344 C13.0935737,1.51822344 14.4758665,2.89515617 14.4758665,4.5875165 L14.4758665,11.4124835 Z" id="Shape"></path>
                  <circle id="Oval" cx="12" cy="4" r="1"></circle>
                </g>
              </g>
          </g>
        </g>
      </symbol>

      <symbol id="twitter" viewBox="0 0 17 14">
        <g id="Page-1" stroke="none" stroke-width="1">
          <g id="index.desktop" transform="translate(-904.000000, -2147.000000)">
            <g id="Support" transform="translate(0.000000, 1914.000000)">
              <g id="twitter" transform="translate(904.000000, 233.000000)">
                <path d="M17,1.66111562 C16.3816951,1.97742619 15.6864744,2.13572008 14.990983,2.21472842 C15.6864744,1.74012396 16.227322,1.10750282 16.536339,0.237302232 C15.8408475,0.632898358 15.1453561,0.949208927 14.2954915,1.1072256 C13.6771866,0.395318905 12.7501354,0 11.7456269,0 C9.8137964,0 8.26844034,1.58183006 8.26844034,3.55925625 C8.26844034,3.87556682 8.26844034,4.11286905 8.34562689,4.35017128 C5.48647443,4.19187739 2.93660985,2.76834122 1.15942329,0.632621136 C0.850406245,1.18623394 0.695762307,1.73984674 0.695762307,2.45175343 C0.695762307,3.71727293 1.31406723,4.74549019 2.24111837,5.37838855 C1.70027083,5.37838855 1.15942329,5.22009465 0.695762307,4.90378408 L0.695762307,4.98279242 C0.695762307,6.72291638 1.85491477,8.14672977 3.47745738,8.46304034 C3.16844034,8.54204867 2.85915246,8.62133423 2.55013542,8.62133423 C2.31830492,8.62133423 2.08647443,8.62133423 1.93183049,8.54232589 C2.39549148,9.96613928 3.63183049,10.9943565 5.17718655,10.9943565 C4.01803409,11.9435655 2.47267803,12.4971783 0.849864585,12.4971783 C0.540847539,12.4971783 0.309017046,12.4971783 0,12.4181699 C1.54535606,13.4463872 3.32281345,14 5.33183049,14 C11.7453561,14 15.2225426,8.62161145 15.2225426,3.87584404 L15.2225426,3.40123958 C15.9954915,3.00564345 16.536339,2.37302232 17,1.66111562 Z" id="Path"></path>
              </g>
            </g>
          </g>
        </g>
      </symbol>

      <symbol id="r-hover" viewBox="0 0 10 10">
        <g >
          <g >
            <g transform="translate(-686 -1424) translate(0 570)">
              <circle cx="691" cy="859" r="4.5"/>
            </g>
          </g>
        </g>
      </symbol>
    </svg>