<svg xmlns="http://www.w3.org/2000/svg" width="18" height="14" viewBox="0 0 18 14">
    <g fill="none" fill-rule="evenodd">
        <g fill="#00A8EB" fill-rule="nonzero">
            <path d="M750.312 700c.932 0 1.688-.756 1.688-1.687v-10.125c0-.932-.756-1.688-1.688-1.688h-14.625c-.931 0-1.687.756-1.687 1.688v10.125c0 .931.756 1.687 1.687 1.687h14.625zm-12.375-7.594c-1.087 0-1.968-.881-1.968-1.968 0-1.088.881-1.97 1.968-1.97 1.088 0 1.97.882 1.97 1.97 0 1.087-.882 1.968-1.97 1.968zm11.813 5.344h-13.5v-1.687l2.514-2.515c.165-.164.432-.164.597 0l1.951 1.952 4.765-4.764c.164-.165.432-.165.596 0l3.077 3.077v3.937z" transform="translate(-734 -686)"/>
        </g>
    </g>
</svg>
