<?xml version="1.0" encoding="UTF-8"?>
<svg width="16px" height="15px" viewBox="0 0 16 15" version="1.1" xmlns="http://www.w3.org/2000/svg" xmlns:xlink="http://www.w3.org/1999/xlink">
    <!-- Generator: Sketch 63.1 (92452) - https://sketch.com -->
    <title>alarm-red</title>
    <desc>Created with Sketch.</desc>
    <g id="Page-1" stroke="none" stroke-width="1" fill="none" fill-rule="evenodd">
        <g id="create.desktop.hovers" transform="translate(-713.000000, -2368.000000)" fill="#FF6C6C" fill-rule="nonzero">
            <path d="M727.435837,2382.75 C728.443868,2382.75 729.077392,2381.65644 728.572682,2380.7816 L722.011854,2369.40588 C721.507785,2368.53221 720.243059,2368.53061 719.738109,2369.40588 L713.177093,2380.7816 C712.673371,2381.65475 713.303985,2382.75 714.313966,2382.75 L727.435837,2382.75 Z M721.538706,2377.93751 L720.211256,2377.93751 C720.036993,2377.93751 719.893119,2377.80127 719.883639,2377.62727 L719.680805,2373.90853 C719.670551,2373.72057 719.820167,2373.56252 720.008395,2373.56252 L721.741541,2373.56252 C721.929769,2373.56252 722.079412,2373.72057 722.069158,2373.90853 L721.866323,2377.62727 C721.856844,2377.80127 721.712969,2377.93751 721.538706,2377.93751 Z M720.874981,2380.94531 C720.180307,2380.94531 719.617172,2380.38218 719.617172,2379.6875 C719.617172,2378.99283 720.180307,2378.42969 720.874981,2378.42969 C721.569655,2378.42969 722.132791,2378.99283 722.132791,2379.6875 C722.132791,2380.38218 721.569655,2380.94531 720.874981,2380.94531 Z" id="alarm-red"></path>
        </g>
    </g>
</svg>