<?xml version="1.0" encoding="UTF-8"?>
<svg width="11px" height="18px" viewBox="0 0 11 18" version="1.1" xmlns="http://www.w3.org/2000/svg" xmlns:xlink="http://www.w3.org/1999/xlink">
    <!-- Generator: Sketch 63.1 (92452) - https://sketch.com -->
    <title>arw</title>
    <desc>Created with Sketch.</desc>
    <g id="Page-1" stroke="none" stroke-width="1" fill="none" fill-rule="evenodd">
        <g id="index.desktop" transform="translate(-886.000000, -1754.000000)" fill="#000000" fill-rule="nonzero">
            <g id="Infographic" transform="translate(117.000000, 1602.000000)">
                <g id="arw" transform="translate(769.000000, 152.000000)">
                    <path d="M0.366715965,1.92799206 C0.132336298,1.71950386 0,1.43247443 0,1.1326073 C0,0.832740173 0.132336298,0.545710745 0.366715965,0.337222545 C0.593438505,0.121693047 0.905571473,0 1.23166492,0 C1.55775837,0 1.86989134,0.121693047 2.09661388,0.337222545 L10.633284,8.18732427 C10.8676637,8.39581247 11,8.6828419 11,8.98270903 C11,9.28257615 10.8676637,9.56960558 10.633284,9.77809378 L2.09661388,17.6627775 C1.86989134,17.878307 1.55775837,18 1.23166492,18 C0.905571473,18 0.593438505,17.878307 0.366715965,17.6627775 C0.132336298,17.4542893 0,17.1672598 0,16.8673927 C0,16.5675256 0.132336298,16.2804961 0.366715965,16.0720079 L7.88801125,8.98270903 L0.366715965,2.06631984 L0.366715965,1.92799206 Z" id="Path"></path>
                </g>
            </g>
        </g>
    </g>
</svg>