<svg xmlns="http://www.w3.org/2000/svg" width="78" height="78" viewBox="0 0 78 78">
    <g fill="none" fill-opacity=".15" fill-rule="evenodd">
        <g fill="#000">
            <path d="M1087 655c21.54 0 39 17.46 39 39s-17.46 39-39 39-39-17.46-39-39 17.46-39 39-39zm-6.52 41h-1.38c-6.128 0-11.1 4.838-11.1 10.8v3.343c0 2.13 1.776 3.857 3.964 3.857h29.072c2.188 0 3.964-1.728 3.964-3.857V706.8c0-5.962-4.972-10.8-11.1-10.8h-1.38c-1.833.82-3.873 1.286-6.02 1.286-2.147 0-4.179-.466-6.02-1.286zm6.02-24c-5.8 0-10.5 4.7-10.5 10.5s4.7 10.5 10.5 10.5 10.5-4.7 10.5-10.5-4.7-10.5-10.5-10.5z" transform="translate(-1048 -655)"/>
        </g>
    </g>
</svg>
