<?xml version="1.0" encoding="UTF-8"?>
<svg width="14px" height="12px" viewBox="0 0 14 12" version="1.1" xmlns="http://www.w3.org/2000/svg" xmlns:xlink="http://www.w3.org/1999/xlink">
    <!-- Generator: Sketch 63.1 (92452) - https://sketch.com -->
    <title>blts</title>
    <desc>Created with Sketch.</desc>
    <g id="Page-1" stroke="none" stroke-width="1" fill="none" fill-rule="evenodd">
        <g id="create.desktop.hovers" transform="translate(-267.000000, -1005.000000)" fill="#000000" fill-rule="nonzero">
            <path d="M268.312497,1007.68752 C269.036891,1007.68752 269.624994,1007.09942 269.624994,1006.37502 C269.624994,1005.65063 269.036891,1005.06253 268.312497,1005.06253 C267.588103,1005.06253 267,1005.65063 267,1006.37502 C267,1007.09942 267.588103,1007.68752 268.312497,1007.68752 Z M280.562468,1007.25002 C280.803941,1007.25002 280.999967,1007.054 280.999967,1006.81252 L280.999967,1005.93752 C280.999967,1005.69605 280.803941,1005.50003 280.562468,1005.50003 L271.812489,1005.50003 C271.571015,1005.50003 271.37499,1005.69605 271.37499,1005.93752 L271.37499,1006.81252 C271.37499,1007.054 271.571015,1007.25002 271.812489,1007.25002 L280.562468,1007.25002 Z M268.312497,1012.06251 C269.036891,1012.06251 269.624994,1011.47441 269.624994,1010.75001 C269.624994,1010.02562 269.036891,1009.43752 268.312497,1009.43752 C267.588103,1009.43752 267,1010.02562 267,1010.75001 C267,1011.47441 267.588103,1012.06251 268.312497,1012.06251 Z M280.562468,1011.62501 C280.803941,1011.62501 280.999967,1011.42899 280.999967,1011.18751 L280.999967,1010.31251 C280.999967,1010.07104 280.803941,1009.87501 280.562468,1009.87501 L271.812489,1009.87501 C271.571015,1009.87501 271.37499,1010.07104 271.37499,1010.31251 L271.37499,1011.18751 C271.37499,1011.42899 271.571015,1011.62501 271.812489,1011.62501 L280.562468,1011.62501 Z M268.312497,1016.4375 C269.036891,1016.4375 269.624994,1015.8494 269.624994,1015.125 C269.624994,1014.40061 269.036891,1013.81251 268.312497,1013.81251 C267.588103,1013.81251 267,1014.40061 267,1015.125 C267,1015.8494 267.588103,1016.4375 268.312497,1016.4375 Z M280.562468,1016 C280.803941,1016 280.999967,1015.80397 280.999967,1015.5625 L280.999967,1014.6875 C280.999967,1014.44603 280.803941,1014.25 280.562468,1014.25 L271.812489,1014.25 C271.571015,1014.25 271.37499,1014.44603 271.37499,1014.6875 L271.37499,1015.5625 C271.37499,1015.80397 271.571015,1016 271.812489,1016 L280.562468,1016 Z" id="blts"></path>
        </g>
    </g>
</svg>