<?xml version="1.0" encoding="UTF-8"?>
<svg width="8px" height="16px" viewBox="0 0 8 16" version="1.1" xmlns="http://www.w3.org/2000/svg" xmlns:xlink="http://www.w3.org/1999/xlink">
    <!-- Generator: Sketch 63.1 (92452) - https://sketch.com -->
    <title>fb</title>
    <desc>Created with Sketch.</desc>
    <g id="Page-1" stroke="none" stroke-width="1" fill="none" fill-rule="evenodd">
        <g id="index.desktop" transform="translate(-789.000000, -2146.000000)" fill="#000000" fill-rule="nonzero">
            <g id="Support" transform="translate(0.000000, 1914.000000)">
                <g id="fb" transform="translate(789.000000, 232.000000)">
                    <path d="M2.63666895,0.824084503 C3.30627018,0.230129981 4.25419805,0.0282487596 5.15256448,0.00487047578 C6.1007532,-0.00292228547 7.04894193,0.000974095157 7.9968698,0.000974095157 C8.0010434,0.936592493 8.0010434,1.86831451 7.9968698,2.80393291 C7.38569891,2.80393291 6.77009358,2.80393291 6.15892269,2.80393291 C5.77208256,2.78055463 5.37298249,3.05622355 5.30229222,3.41736933 C5.29394503,4.0424949 5.29811862,4.66737694 5.29811862,5.29250251 C6.1962242,5.29639889 7.09459063,5.29250251 7.99269621,5.29639889 C7.92617953,6.20084625 7.80566696,7.10164074 7.66428641,7.99464248 C6.86999902,8.00243524 6.07571163,7.99464248 5.28142424,7.99853886 C5.27307705,10.6656114 5.28559783,13.3287876 5.27725064,15.9961036 C4.09612312,16 2.91943004,15.9922072 1.73830252,16 C1.71743454,13.3329275 1.73830252,10.6658549 1.72578173,7.99853886 C1.15191235,7.99464248 0.57386938,8.00243524 0,7.99464248 C0.00417359549,7.09774436 0,6.20108977 0,5.30808803 C0.57386938,5.30029527 1.15191235,5.30808803 1.72578173,5.30419165 C1.74247612,4.4345682 1.70908735,3.56104837 1.74247612,2.69142492 C1.80508005,1.99665155 2.08366755,1.30163465 2.63666895,0.824084503 Z" id="Path"></path>
                </g>
            </g>
        </g>
    </g>
</svg>