<?xml version="1.0" encoding="UTF-8"?>
<svg width="8px" height="15px" viewBox="0 0 8 15" version="1.1" xmlns="http://www.w3.org/2000/svg" xmlns:xlink="http://www.w3.org/1999/xlink">
    <!-- Generator: Sketch 63.1 (92452) - https://sketch.com -->
    <title>geo</title>
    <desc>Created with Sketch.</desc>
    <g id="Page-1" stroke="none" stroke-width="1" fill="none" fill-rule="evenodd">
        <g id="index.desktop" transform="translate(-733.000000, -872.000000)" fill="#000000" fill-rule="nonzero">
            <g id="Projects" transform="translate(0.000000, 570.000000)">
                <path d="M736.937491,310.62501 C739.112141,310.62501 740.874981,308.862171 740.874981,306.68752 C740.874981,304.512869 739.112141,302.750029 736.937491,302.750029 C734.76284,302.750029 733,304.512869 733,306.68752 C733,308.862171 734.76284,310.62501 736.937491,310.62501 Z M734.749996,307.015644 C734.568977,307.015644 734.421872,306.868538 734.421872,306.68752 C734.421872,305.300362 735.550626,304.171901 736.937491,304.171901 C737.118509,304.171901 737.265615,304.319007 737.265615,304.500025 C737.265615,304.681043 737.118509,304.828149 736.937491,304.828149 C735.912102,304.828149 735.07812,305.662132 735.07812,306.68752 C735.07812,306.868538 734.931014,307.015644 734.749996,307.015644 Z M737.21066,316.603718 L737.812489,315.700815 L737.812489,311.416348 C737.528397,311.468846 737.236642,311.500008 736.937491,311.500008 C736.638339,311.500008 736.346584,311.468846 736.062493,311.416348 L736.062493,315.700815 L736.664588,316.603718 C736.79447,316.798381 737.080778,316.798381 737.21066,316.603718 Z" id="geo"></path>
            </g>
        </g>
    </g>
</svg>