<?xml version="1.0" encoding="UTF-8"?>
<svg width="13px" height="13px" viewBox="0 0 13 13" version="1.1" xmlns="http://www.w3.org/2000/svg" xmlns:xlink="http://www.w3.org/1999/xlink">
    <!-- Generator: Sketch 63.1 (92452) - https://sketch.com -->
    <title>hash</title>
    <desc>Created with Sketch.</desc>
    <g id="Page-1" stroke="none" stroke-width="1" fill="none" fill-rule="evenodd">
        <g id="index.desktop" transform="translate(-904.000000, -873.000000)" fill="#00A6ED" fill-rule="nonzero">
            <g id="Projects" transform="translate(0.000000, 570.000000)">
                <path d="M907.407974,315.874998 C907.569312,315.874998 907.703601,315.75804 907.730998,315.604552 L908.151487,313.250004 L910.848498,313.250004 L910.44865,315.489196 C910.412735,315.690321 910.567344,315.874998 910.771674,315.874998 L911.882698,315.874998 C912.04401,315.874998 912.178299,315.75804 912.205696,315.604552 L912.626158,313.250004 L914.788953,313.250004 C914.950265,313.250004 915.084553,313.133046 915.11195,312.979558 L915.307281,311.885811 C915.34317,311.684685 915.188534,311.500008 914.984257,311.500008 L912.938688,311.500008 L913.563667,308.000017 L915.726435,308.000017 C915.887774,308.000017 916.022062,307.883058 916.049459,307.729571 L916.244764,306.635823 C916.280679,306.434698 916.126043,306.250021 915.921766,306.250021 L913.87617,306.250021 L914.276018,304.010829 C914.311934,303.809704 914.157298,303.625027 913.953021,303.625027 L912.841997,303.625027 C912.680659,303.625027 912.54637,303.741985 912.518973,303.895473 L912.098511,306.250021 L909.401473,306.250021 L909.801321,304.010829 C909.837236,303.809704 909.682627,303.625027 909.478297,303.625027 L908.367272,303.625027 C908.205961,303.625027 908.071672,303.741985 908.044275,303.895473 L907.623813,306.250021 L905.461018,306.250021 C905.299706,306.250021 905.165418,306.366979 905.138021,306.520467 L904.94269,307.614214 C904.906801,307.81534 905.061437,308.000017 905.265714,308.000017 L907.311283,308.000017 L906.686303,311.500008 L904.523535,311.500008 C904.362197,311.500008 904.227909,311.616967 904.200511,311.770454 L904.005207,312.864202 C903.969292,313.065327 904.123928,313.250004 904.328204,313.250004 L906.3738,313.250004 L905.973952,315.489196 C905.938037,315.690321 906.092673,315.874998 906.29695,315.874998 L907.407974,315.874998 Z M911.161001,311.500017 L908.46399,311.500017 L909.088996,308.000017 L911.786007,308.000017 L911.161001,311.500017 Z" id="hash"></path>
            </g>
        </g>
    </g>
</svg>