<?xml version="1.0" encoding="UTF-8"?>
<svg width="86px" height="93px" viewBox="0 0 86 93" version="1.1" xmlns="http://www.w3.org/2000/svg" xmlns:xlink="http://www.w3.org/1999/xlink">
    <!-- Generator: Sketch 63.1 (92452) - https://sketch.com -->
    <title>icn1-m</title>
    <desc>Created with Sketch.</desc>
    <g id="Page-1" stroke="none" stroke-width="1" fill="none" fill-rule="evenodd">
        <g id="index.mobile" transform="translate(-27.000000, -1958.000000)" fill="#000000" fill-rule="nonzero">
            <g id="Infographic" transform="translate(25.000000, 1821.000000)">
                <g id="icn1-m" transform="translate(2.000000, 137.000000)">
                    <path d="M54.0969857,93 L54.0969857,92.0693983 C53.1913739,80.1311076 46.9053628,73.6168955 35.1590454,71.5961603 L34.226798,71.4366286 L34.226798,67.1026834 L38.222144,67.1026834 L38.222144,57.3978369 L16.4608258,57.3978369 L16.4608258,67.1026834 L20.4561719,67.1026834 L20.4561719,71.4632172 L19.4972888,71.7291034 C7.83087829,73.7498386 0.985518696,80.2374621 0.0799069213,92.2023414 L0,93 L54.0969857,93 Z M22.1342172,72.95218 L22.1342172,65.3744231 L18.1655068,65.3744231 L18.1655068,59.1260972 L36.4109205,59.1260972 L36.4109205,65.3744231 L32.4155744,65.3744231 L32.4155744,72.9787686 L33.188008,72.9787686 C43.7090859,74.3613769 50.5011743,79.0409741 52.072677,89.91572 L52.2591265,91.1919738 L1.83785919,91.1919738 L2.05094431,89.8891314 C3.67571838,79.0941514 11.0271551,74.3879655 21.3085123,73.0851231 L22.0543103,73.0851231 L22.1342172,72.95218 Z M81.0788895,21.2107241 C81.3846994,21.2080875 81.6671545,21.0469694 81.8246874,20.7853061 C84.8078791,15.467582 88.5901401,6.3476851 83.5027328,1.16290406 L83.5027328,1.16290406 L83.5027328,1.16290406 L83.5027328,1.16290406 L82.5704853,1.16290406 L82.5704853,1.16290406 L82.5704853,1.16290406 L71.0106174,12.3567134 L71.0106174,0.790663369 C71.0113102,0.512136318 70.8710428,0.252099483 70.6377184,0.0993592302 C70.3973418,-0.0331197434 70.1056614,-0.0331197434 69.8652848,0.0993592302 C62.8130319,2.8353039 56.448301,7.08306933 51.2203365,12.5428337 C46.0719422,17.5035411 41.9852904,23.4553593 39.2076627,30.0381462 C37.6894312,33.973262 36.5440987,39.5568724 38.8613994,43.3324565 L39.3142053,44.0769379 L33.6674495,49.7403141 C33.5014448,49.900612 33.4077146,50.121297 33.4077146,50.3518524 C33.4077146,50.5824077 33.5014448,50.8030927 33.6674495,50.9633907 C34.013881,51.2810372 34.5462575,51.2810372 34.892689,50.9633907 L40.5394447,45.3000144 L41.3118783,45.7786096 C42.8691957,46.6853862 44.6505267,47.1368428 46.4525569,47.081452 C53.8039937,47.081452 62.2741273,41.5510189 67.7610693,37.0309534 C68.0466071,36.8021261 68.153827,36.4168159 68.0274257,36.0737631 C67.9070421,35.7332067 67.5899236,35.5010637 67.2283564,35.4888134 L50.447903,35.4888134 L56.5741003,29.1873103 L75.2190486,29.1873103 C75.6392238,29.1134544 75.9455953,28.7490664 75.9455953,28.3231801 C75.9455953,27.8972938 75.6392238,27.5329059 75.2190486,27.4590499 L58.4385951,27.4590499 L64.5647924,21.2107241 L81.0788895,21.2107241 Z M63.4460955,19.9078817 L55.7483954,27.591993 L55.7483954,27.591993 L55.5885816,27.7781134 L55.5885816,27.7781134 L47.8908815,35.4622248 L47.8908815,35.4622248 L47.7310677,35.6217565 L47.7310677,35.6217565 L40.6459873,42.6943296 L40.0067319,41.0458351 C38.6216786,37.3500168 40.0067319,32.3247675 41.631506,28.8682468 C44.3340597,23.0836469 48.0709322,17.8396359 52.6586611,13.3936696 C57.0138971,8.96774172 62.0944519,5.31691913 67.6811623,2.59868958 L69.2526651,1.9871513 L69.2526651,14.0849737 L63.7390876,19.6419955 L63.7390876,19.6419955 L63.5792737,19.8015272 L63.5792737,19.8015272 L63.4460955,19.9078817 Z M66.296109,19.4824637 L82.9700199,2.86457578 L83.635911,4.40671579 C85.5004058,8.82042682 82.9966556,15.0421641 80.9723469,18.9241027 L80.6527192,19.5090524 L66.296109,19.4824637 Z M41.6048704,44.1567038 L48.5834081,37.1638965 L64.8311488,37.1638965 L61.8213214,39.2378089 C57.3198982,42.2955003 48.8231289,47.0016862 43.1763731,44.7948306 L41.5782347,44.1567038 L41.6048704,44.1567038 Z" id="Shape"></path>
                </g>
            </g>
        </g>
    </g>
</svg>