<?xml version="1.0" encoding="UTF-8"?>
<svg width="106px" height="115px" viewBox="0 0 106 115" version="1.1" xmlns="http://www.w3.org/2000/svg" xmlns:xlink="http://www.w3.org/1999/xlink">
    <!-- Generator: Sketch 63.1 (92452) - https://sketch.com -->
    <title>icn1</title>
    <desc>Created with Sketch.</desc>
    <g id="Page-1" stroke="none" stroke-width="1" fill="none" fill-rule="evenodd">
        <g id="index.desktop" transform="translate(-120.000000, -1688.000000)" fill="#000000" fill-rule="nonzero">
            <g id="Infographic" transform="translate(117.000000, 1602.000000)">
                <g id="icn1" transform="translate(3.000000, 86.000000)">
                    <path d="M66.6776801,115 L66.6776801,113.849256 C65.5614609,99.0868535 57.8135867,91.031645 43.3355675,88.5328864 L42.1865184,88.335616 L42.1865184,82.9764365 L47.1110147,82.9764365 L47.1110147,70.9758198 L20.2889248,70.9758198 L20.2889248,82.9764365 L25.2134211,82.9764365 L25.2134211,88.3684944 L24.031542,88.6972784 C9.65201277,91.196037 1.21470909,99.2183671 0.0984899262,114.013648 L0,115 L66.6776801,115 Z M27.2817096,90.2096849 L27.2817096,80.8393404 L22.3900432,80.8393404 L22.3900432,73.1129159 L44.8785764,73.1129159 L44.8785764,80.8393404 L39.9540801,80.8393404 L39.9540801,90.2425633 L40.9061494,90.2425633 C53.8739897,91.9522402 62.2456334,97.738839 64.1826019,111.186105 L64.4124118,112.764269 L2.2652683,112.764269 L2.52790811,111.153227 C4.53053661,97.8045958 13.5916098,91.9851186 26.2639803,90.3740769 L27.1832196,90.3740769 L27.2817096,90.2096849 Z M99.9344452,26.2283147 C100.311374,26.2250544 100.659516,26.0258224 100.853684,25.7022603 C104.530642,19.1265799 109.192498,7.84928802 102.921973,1.43799964 L102.921973,1.43799964 L102.921973,1.43799964 L102.921973,1.43799964 L101.772924,1.43799964 L101.772924,1.43799964 L101.772924,1.43799964 L87.5247145,15.2798069 L87.5247145,0.977702015 C87.5255684,0.633286845 87.3526806,0.31173592 87.0650948,0.122863564 C86.7688167,-0.0409545214 86.4093036,-0.0409545214 86.1130255,0.122863564 C77.4207138,3.50602096 69.5758129,8.75863412 63.1320427,15.5099557 C56.7863473,21.6441637 51.7493114,29.0039389 48.3257238,37.1439442 C46.4544152,42.0099477 45.0427263,48.9144121 47.8989341,53.5831451 L48.4570437,54.5037404 L41.4970889,61.50684 C41.2924785,61.7050579 41.1769506,61.9779479 41.1769506,62.2630433 C41.1769506,62.5481386 41.2924785,62.8210287 41.4970889,63.0192465 C41.9240859,63.4120352 42.5802708,63.4120352 43.0072678,63.0192465 L49.9672226,56.0161469 L50.9192919,56.6079581 C52.8387761,57.729241 55.0343701,58.2874938 57.2554771,58.2189998 C66.3165503,58.2189998 76.7564825,51.3802922 83.5194575,45.7909639 C83.8713995,45.5080054 84.0035542,45.0315466 83.8477572,44.6073414 C83.6993774,44.1862233 83.3085105,43.8991647 82.8628579,43.8840166 L62.1799734,43.8840166 L69.7308678,36.0918353 L92.7118506,36.0918353 C93.2297409,36.0005081 93.6073616,35.5499208 93.6073616,35.0232872 C93.6073616,34.4966537 93.2297409,34.0460664 92.7118506,33.9547392 L72.0289661,33.9547392 L79.5798604,26.2283147 L99.9344452,26.2283147 Z M78.2010014,24.617273 L68.7131385,34.1191312 L68.7131385,34.1191312 L68.5161587,34.34928 L68.5161587,34.34928 L59.0282958,43.8511382 L59.0282958,43.8511382 L58.8313159,44.0484086 L58.8313159,44.0484086 L50.0985425,52.7940635 L49.3106231,50.7556026 C47.6034644,46.1855047 49.3106231,39.9714867 51.3132516,35.6972945 C54.6443062,28.5442945 59.2502188,22.0597648 64.9048614,16.5620645 C70.272943,11.089143 76.5350221,6.57468494 83.4209675,3.21343335 L85.3579361,2.4572301 L85.3579361,17.416903 L78.5621312,24.288489 L78.5621312,24.288489 L78.3651513,24.4857594 L78.3651513,24.4857594 L78.2010014,24.617273 Z M81.7138088,24.0912186 L102.265373,3.54221737 L103.086123,5.44916468 C105.384221,10.9069794 102.298203,18.6005255 99.8031253,23.4007721 L99.4091656,24.124097 L81.7138088,24.0912186 Z M51.2804216,54.6023756 L59.8818752,45.9553559 L79.9081602,45.9553559 L76.1983729,48.5198712 C70.6501071,52.3008875 60.1773449,58.1203646 53.2173901,55.3914573 L51.2475916,54.6023756 L51.2804216,54.6023756 Z" id="Shape"></path>
                </g>
            </g>
        </g>
    </g>
</svg>