<?xml version="1.0" encoding="UTF-8"?>
<svg width="114px" height="99px" viewBox="0 0 114 99" version="1.1" xmlns="http://www.w3.org/2000/svg" xmlns:xlink="http://www.w3.org/1999/xlink">
    <!-- Generator: Sketch 63.1 (92452) - https://sketch.com -->
    <title>icn2</title>
    <desc>Created with Sketch.</desc>
    <g id="Page-1" stroke="none" stroke-width="1" fill="none" fill-rule="evenodd">
        <g id="index.desktop" transform="translate(-564.000000, -1713.000000)" fill="#000000" fill-rule="nonzero">
            <g id="Infographic" transform="translate(117.000000, 1602.000000)">
                <g id="icn2" transform="translate(447.000000, 111.000000)">
                    <path d="M90.0247352,23.3692675 C90.1924627,23.3354147 90.3652385,23.3354147 90.5329659,23.3692675 L90.5329659,23.3692675 L108.998683,31.9968265 C113.323778,34.0377162 115.199047,39.1924398 113.200057,43.5455275 L113.200057,43.5455275 L89.7197968,93.9861774 C87.6839974,98.3220868 82.5421305,100.202045 78.1999001,98.1980565 L78.1999001,98.1980565 L64.3760241,91.7104039 L64.2610882,91.6725204 C63.8518837,91.5109966 63.5816175,91.1066747 63.596737,90.6574341 C63.596737,90.0571356 64.0821613,89.5704976 64.6809626,89.5704976 C64.8481268,89.5313872 65.0220291,89.5313872 65.1891933,89.5704976 L65.1891933,89.5704976 L66.4767112,90.2837997 L79.1147154,96.227984 C82.3715898,97.7259922 86.2244341,96.3173238 87.7546379,93.0690746 L87.7546379,93.0690746 L111.234898,42.6284247 C112.72917,39.3634069 111.324015,35.5009289 108.083867,33.966899 L108.083867,33.966899 L90.60073,25.9847086 L90.4994287,25.9445818 C89.9309441,25.7087433 88.9405096,25.1295453 88.9405096,24.4901708 C88.931337,24.1960582 89.0415053,23.9107843 89.2458397,23.6995376 C89.4501741,23.4882908 89.7312128,23.3691238 90.0247352,23.3692675 Z M69.6955058,6.52157193e-05 C72.0107928,-0.00890009985 74.2343413,0.906819555 75.8746847,2.54489065 C77.5150281,4.18296174 78.4371407,6.40849697 78.4371407,8.72959067 L78.4371407,8.72959067 L78.4371407,69.8697724 C78.446124,72.1967468 77.5280462,74.4310334 75.8867183,76.0764653 C74.2453904,77.7218972 72.0166764,78.6422705 69.6955058,78.6332648 L69.6955058,78.6332648 L8.70781765,78.6332648 C6.39251314,78.6332648 4.17252876,77.7088465 2.53854328,76.0644016 C0.9045578,74.4199567 -0.00887790156,72.1908485 6.50530607e-05,69.8697724 L6.50530607e-05,69.8697724 L6.50530607e-05,8.72959067 C6.50530607e-05,3.90844344 3.89869514,6.52157193e-05 8.70781765,6.52157193e-05 L8.70781765,6.52157193e-05 Z M14.4338839,76.4253585 C14.4338839,75.6780896 14.6710583,74.9647875 14.7727044,74.2854521 C14.8743506,73.6061168 15.145407,72.3153796 15.3825813,71.2624098 L15.3825813,71.2624098 C17.3816222,62.2951832 22.8705141,61.887582 27.4784728,61.5139475 C30.4939752,61.3101469 32.8657186,61.1403131 32.9673647,57.7436363 C32.9673647,57.200168 32.9673647,56.622733 32.9673647,56.0113312 C32.9673647,55.3999294 32.9673647,55.1281952 32.9673647,54.6866272 C30.961768,53.669348 29.084895,52.4149707 27.3768266,50.9502828 L27.3768266,50.9502828 C26.1722863,49.9769615 25.2870146,48.6634834 24.835673,47.1799716 C24.0554853,44.2532951 23.4557681,41.2812424 23.0399244,38.2806785 C22.6847826,35.393114 22.6847826,32.4727505 23.0399244,29.585186 C23.473286,26.084783 25.3388672,22.9225908 28.1899958,20.8557267 L28.1899958,20.8557267 C31.4101973,18.6113726 35.2459763,17.42453 39.1677797,17.4590499 L39.1677797,17.4590499 C43.100792,17.4197217 46.9487919,18.6066821 50.1794456,20.8557267 L50.1794456,20.8557267 C53.0733553,22.8835034 54.980142,26.0406515 55.4311632,29.5512192 C55.8027739,32.4377462 55.8027739,35.3601847 55.4311632,38.2467117 C55.0153195,41.2472756 54.4156022,44.2193284 53.6354146,47.1460048 C53.1585385,48.644032 52.2509322,49.9674876 51.0264968,50.9502828 L51.0264968,50.9502828 C49.3830946,52.36509 47.5740474,53.574137 45.639251,54.5507602 C45.639251,54.9923281 45.639251,55.4338961 45.639251,55.8754641 C45.639251,56.3170321 45.639251,57.064301 45.639251,57.6077693 C45.639251,61.004446 48.2142868,61.3441137 51.128143,61.5479143 C55.7361016,61.9215487 61.2927577,62.32915 63.1901524,71.2963766 L63.1901524,71.2963766 C63.4273268,72.3493464 63.6306191,73.3683494 63.8000293,74.3194189 C63.9694395,75.2704884 64.0372036,75.7120564 64.1388498,76.4593253 L69.9326802,76.4593253 C71.6638937,76.4593253 73.3237113,75.7675909 74.5446804,74.5371938 C75.7656494,73.3067967 76.4470503,71.6392578 76.438146,69.9037391 L76.438146,8.76355744 C76.4484485,6.98603466 75.7346602,5.28127056 74.4618336,4.04373399 C73.1890069,2.80619742 71.4674458,2.14313399 69.6955058,2.20797129 L8.70781765,2.20797129 C5.11501018,2.20797129 2.20237589,5.12779974 2.20237589,8.72959067 L2.20237589,69.8697724 C2.19344751,71.6052911 2.87484839,73.2728299 4.09581747,74.503227 C5.31678655,75.7336241 6.97660414,76.425382 8.70781765,76.4253585 L14.4338839,76.4253585 Z M61.529932,76.4253585 C61.529932,75.8818902 61.3605218,75.3044552 61.2588756,74.6930534 C61.1572295,74.0816515 60.8861731,72.7229808 60.6489987,71.7719113 L60.6489987,71.7719113 C59.0565424,64.5369898 54.5502299,64.2312889 50.8232045,63.925588 C47.0961792,63.6198871 43.1997435,63.348153 43.0303333,57.7436363 L43.0303333,57.7436363 C43.0303333,57.0982677 43.0303333,56.4528992 43.0303333,55.7735638 C43.0303333,55.0942285 43.0303333,54.4148931 43.2675076,53.6676242 L43.2675076,53.0562224 L44.0467947,52.6486212 C46.0014388,51.752851 47.8344862,50.6114654 49.5018046,49.2519444 L49.5018046,49.2519444 C50.363352,48.5945417 51.0117141,47.696383 51.3653173,46.6704701 C52.1133286,43.8434186 52.6903736,40.9736655 53.0933018,38.0768779 C53.4313374,35.3928353 53.4313374,32.6768298 53.0933018,29.9927872 C52.7575608,27.0841834 51.1899914,24.4609106 48.7902816,22.7918325 L48.7902816,22.7918325 C45.9824532,20.8150853 42.6326771,19.7589881 39.2016617,19.7687225 C35.7624281,19.7739243 32.4062092,20.8283269 29.5791598,22.7918325 L29.5791598,22.7918325 C27.2466848,24.4573345 25.7023008,27.0131684 25.3100217,29.8569201 C24.989012,32.542009 24.989012,35.255922 25.3100217,37.9410108 C25.735246,40.8392142 26.3349236,43.7089837 27.1057703,46.534603 C27.4593735,47.5605159 28.1077356,48.4586747 28.9692829,49.1160774 L28.9692829,49.1160774 C30.6366014,50.4755984 32.4696488,51.6169839 34.4242928,52.5127541 L34.9664056,52.818455 L34.9664056,53.4298568 C34.9664056,54.1771257 35.1358159,54.8904278 35.1696979,55.5357964 C35.2201614,56.1915129 35.2201614,56.8501524 35.1696979,57.505869 C35.1696979,63.2122859 31.5782007,63.48402 27.4784728,63.789721 C23.3787449,64.0954219 19.346781,64.5369898 17.7204427,71.7719113 L17.7204427,71.7719113 C17.5171504,72.7229808 17.3138581,73.7080171 17.1444479,74.6930534 C16.9750376,75.6780896 16.9411556,75.8818902 16.9411556,76.4253585 L61.529932,76.4253585 Z" id="Shape"></path>
                </g>
            </g>
        </g>
    </g>
</svg>