<?xml version="1.0" encoding="UTF-8"?>
<svg width="84px" height="73px" viewBox="0 0 84 73" version="1.1" xmlns="http://www.w3.org/2000/svg" xmlns:xlink="http://www.w3.org/1999/xlink">
    <!-- Generator: Sketch 63.1 (92452) - https://sketch.com -->
    <title>icn2-m</title>
    <desc>Created with Sketch.</desc>
    <g id="Page-1" stroke="none" stroke-width="1" fill="none" fill-rule="evenodd">
        <g id="index.mobile" transform="translate(-27.000000, -2101.000000)" fill="#000000" fill-rule="nonzero">
            <g id="Infographic" transform="translate(25.000000, 1821.000000)">
                <g id="icn2-m" transform="translate(2.000000, 280.000000)">
                    <path d="M66.5839482,17.2152427 L66.7085012,17.2318841 L80.3148188,23.5936195 C83.5017308,25.098518 84.8835081,28.8994758 83.4105681,32.1093283 L83.4105681,32.1093283 L66.1093239,69.3029389 C64.6092612,72.5001246 60.8205172,73.8863562 57.620979,72.408668 L57.620979,72.408668 L47.4349652,67.6248433 L47.3339312,67.5902358 C47.0415844,67.4669533 46.8498155,67.1736464 46.8607536,66.848411 C46.8607536,66.4057667 47.2184347,66.0469326 47.6596566,66.0469326 C47.7828303,66.0180936 47.9109688,66.0180936 48.0341424,66.0469326 L48.0341424,66.0469326 L48.9828398,66.5729028 L58.2950535,70.9559882 C60.6948557,72.0605801 63.5337936,71.021865 64.6613122,68.6266914 L64.6613122,68.6266914 L81.9625563,31.4330809 C83.0635988,29.0255424 82.0282214,26.1774526 79.6407443,25.0462993 L79.6407443,25.0462993 L66.7584327,19.1604417 L66.6667946,19.1237304 C66.245489,18.9455044 65.5351124,18.5235526 65.5351124,18.0584088 C65.5283536,17.8415379 65.6095302,17.6311844 65.7600924,17.4754166 C65.9106546,17.3196488 66.1177358,17.2317781 66.3340154,17.2318841 C66.4576041,17.206922 66.5849125,17.206922 66.7085012,17.2318841 Z M51.3545832,4.80883587e-05 C53.0605842,-0.00656269989 54.6989883,0.668664924 55.9076624,1.87653553 C57.1163365,3.08440613 57.7957879,4.72545736 57.7957879,6.4369709 L57.7957879,6.4369709 L57.7957879,51.5201352 C57.8024071,53.235985 57.1259288,54.8834893 55.9165293,56.0967876 C54.7071297,57.3100858 53.0649194,57.9887449 51.3545832,57.9821044 L51.3545832,57.9821044 L6.41628669,57.9821044 C4.71027284,57.9821044 3.07449487,57.3004626 1.87050557,56.0878921 C0.666516273,54.8753216 -0.00654161168,53.2316358 4.79338342e-05,51.5201352 L4.79338342e-05,51.5201352 L4.79338342e-05,6.4369709 C4.79338342e-05,2.88198354 2.87272274,4.80883587e-05 6.41628669,4.80883587e-05 L6.41628669,4.80883587e-05 Z M10.6354934,56.3540522 C10.6354934,55.8030358 10.8102535,55.2770655 10.8851506,54.7761415 C10.9600478,54.2752174 11.1597736,53.3234617 11.3345336,52.5470295 L11.3345336,52.5470295 C12.8075111,45.934832 16.8519578,45.6342776 20.2472957,45.3587694 C22.4692448,45.2084922 24.2168453,45.0832612 24.2917424,42.5786409 C24.2917424,42.1779017 24.2917424,41.7521162 24.2917424,41.3012846 C24.2917424,40.850453 24.2917424,40.6500833 24.2917424,40.3244827 C22.8139343,39.5743677 21.4309752,38.6494228 20.1723986,37.5694005 L20.1723986,37.5694005 C19.2848425,36.8516989 18.6325371,35.8831746 18.2999696,34.789272 C17.7250945,32.6312176 17.2831975,30.439704 16.9767864,28.227167 C16.715103,26.0979527 16.715103,23.9445534 16.9767864,21.8153392 C17.2961054,19.2342339 18.6707443,16.9025165 20.7715759,15.3784651 L20.7715759,15.3784651 C23.1443559,13.7235374 25.9707194,12.8483908 28.8604692,12.8738449 L28.8604692,12.8738449 C31.7584783,12.8448453 34.5938466,13.7200787 36.9743283,15.3784651 L36.9743283,15.3784651 C39.1066828,16.8736944 40.5116836,19.2016925 40.844015,21.790293 C41.1178334,23.9187421 41.1178334,26.0736716 40.844015,28.2021208 C40.5376038,30.4146578 40.0957069,32.6061714 39.5208318,34.7642258 C39.1694494,35.8688317 38.5006868,36.8447131 37.5984714,37.5694005 L37.5984714,37.5694005 C36.3875434,38.6126421 35.0545612,39.5041617 33.6289218,40.2242979 C33.6289218,40.5498985 33.6289218,40.8754992 33.6289218,41.2010998 C33.6289218,41.5267004 33.6289218,42.0777169 33.6289218,42.4784561 C33.6289218,44.9830764 35.5263166,45.2335384 37.6733685,45.3838156 C41.0687065,45.6593238 45.1630846,45.9598782 46.5611649,52.5720757 L46.5611649,52.5720757 C46.735925,53.3485079 46.8857193,54.099894 47.0105479,54.8011877 C47.1353765,55.5024814 47.1853079,55.828082 47.2602051,56.3790984 L51.5293433,56.3790984 C52.8049743,56.3790984 54.0279978,55.8690317 54.9276592,54.9617692 C55.8273206,54.0545067 56.3294055,52.8249073 56.3228444,51.5451814 L56.3228444,6.4620171 C56.3304357,5.15131848 55.8044865,3.89427021 54.8666142,2.98174324 C53.9287419,2.06921628 52.6602232,1.58029072 51.3545832,1.62810004 L6.41628669,1.62810004 C3.76895487,1.62810004 1.62280329,3.78110486 1.62280329,6.4369709 L1.62280329,51.5201352 C1.61622448,52.7998611 2.11830934,54.0294604 3.01797077,54.936723 C3.91763219,55.8439855 5.14065568,56.3540696 6.41628669,56.3540522 L10.6354934,56.3540522 Z M45.3378446,56.3540522 C45.3378446,55.953313 45.213016,55.5275276 45.1381189,55.0766959 C45.0632217,54.6258643 44.863496,53.6240162 44.6887359,52.9227225 L44.6887359,52.9227225 C43.5153471,47.5878814 40.1949063,47.3624656 37.448677,47.1370498 C34.7024478,46.9116339 31.83139,46.7112643 31.7065614,42.5786409 L31.7065614,42.5786409 C31.7065614,42.1027631 31.7065614,41.6268852 31.7065614,41.1259612 C31.7065614,40.6250371 31.7065614,40.1241131 31.8813214,39.5730966 L31.8813214,39.122265 L32.455533,38.8217106 C33.895797,38.1611932 35.2464635,37.3195654 36.4750139,36.3170903 L36.4750139,36.3170903 C37.1098383,35.8323389 37.5875788,35.1700602 37.8481286,34.413579 C38.3992948,32.3289855 38.8244858,30.2129048 39.1213803,28.0768897 C39.3704592,26.0977472 39.3704592,24.0950361 39.1213803,22.1158936 C38.8739921,19.9711656 37.718941,18.036833 35.9507338,16.8060987 L35.9507338,16.8060987 C33.8818076,15.3484972 31.4135516,14.5697589 28.885435,14.5769368 C26.3512628,14.5807724 23.8782594,15.3582613 21.7951704,16.8060987 L21.7951704,16.8060987 C20.0765046,18.0341961 18.9385374,19.918801 18.6494896,22.0157088 C18.4129562,23.9956228 18.4129562,25.9967909 18.6494896,27.9767049 C18.9628128,30.113764 19.4046805,32.2298567 19.9726728,34.3133941 C20.2332226,35.0698754 20.7109631,35.732154 21.3457874,36.2169055 L21.3457874,36.2169055 C22.5743379,37.2193806 23.9250044,38.0610083 25.3652684,38.7215258 L25.7647199,38.9469416 L25.7647199,39.3977732 C25.7647199,39.9487897 25.8895485,40.4747599 25.9145142,40.9506378 C25.9516978,41.4341459 25.9516978,41.9198094 25.9145142,42.4033175 C25.9145142,46.6110795 23.2681479,46.8114491 20.2472957,47.0368649 C17.2264436,47.2622808 14.2555229,47.5878814 13.0571683,52.9227225 L13.0571683,52.9227225 C12.907374,53.6240162 12.7575796,54.350356 12.632751,55.0766959 C12.5079224,55.8030358 12.4829567,55.953313 12.4829567,56.3540522 L45.3378446,56.3540522 Z" id="Shape"></path>
                </g>
            </g>
        </g>
    </g>
</svg>