<?xml version="1.0" encoding="UTF-8"?>
<svg width="108px" height="108px" viewBox="0 0 108 108" version="1.1" xmlns="http://www.w3.org/2000/svg" xmlns:xlink="http://www.w3.org/1999/xlink">
    <!-- Generator: Sketch 63.1 (92452) - https://sketch.com -->
    <title>icn3</title>
    <desc>Created with Sketch.</desc>
    <g id="Page-1" stroke="none" stroke-width="1" fill="none" fill-rule="evenodd">
        <g id="index.desktop" transform="translate(-1013.000000, -1695.000000)" fill="#000000" fill-rule="nonzero">
            <g id="Infographic" transform="translate(117.000000, 1602.000000)">
                <g id="icn3" transform="translate(896.000000, 93.000000)">
                    <path d="M96.4658967,11.5724115 L96.4658967,0 C91.7338409,1.68501714 87.2227782,3.93632429 83.0309215,6.70490694 C75.3629981,11.9592331 71.0135457,18.66414 77.9082332,26.8518629 L78.7136873,27.8189168 L71.3035092,35.2329966 L70.3369642,34.3948832 C53.6954689,19.3534564 28.191454,20.0007371 12.3335565,35.8669842 C-3.52434101,51.7332313 -4.17128107,77.2506748 10.8622302,93.9009323 L11.7643388,94.8679862 L10.7655757,95.8350401 L0.45576263,106.150282 C0.254965223,106.344621 0.141590262,106.612172 0.141590262,106.89169 C0.141590262,107.171207 0.254965223,107.438758 0.45576263,107.633097 C0.650743536,107.833932 0.917000081,107.949756 1.19678044,107.955449 C1.46607563,107.944819 1.72050511,107.829109 1.90558009,107.633097 L12.2798295,97.2856209 L13.1819381,96.318567 L14.1807013,97.1889155 C30.1272729,111.603695 54.3903926,111.603695 70.3369642,97.1889155 L71.3035092,96.318567 L72.2700542,97.2856209 L82.6120854,107.633097 C82.8070663,107.833932 83.0733228,107.949756 83.3531032,107.955449 C83.7706863,107.934846 84.1374368,107.67129 84.2903126,107.281947 C84.4431884,106.892603 84.3538066,106.449758 84.0619028,106.150282 L73.7198716,95.7705698 L72.7855448,94.8679862 L73.6554353,93.9009323 C87.9634953,77.8956121 87.9634953,53.6881866 73.6554353,37.6828664 L72.7855448,36.7158125 L80.1957229,29.3017327 L81.1622679,30.107611 C83.349127,32.1680633 86.186682,33.3994581 89.1845912,33.589005 C98.1412413,33.589005 105.100365,19.6956641 108,11.5724115 L96.4658967,11.5724115 Z M82.2899486,65.7918994 C82.3179989,84.6931881 69.1504989,101.047906 50.6864004,105.045088 C32.2223019,109.042271 13.4752926,99.5965355 5.69143787,82.3742449 C-2.09241682,65.1519543 3.20048838,44.8295992 18.3950146,33.5982727 C33.5895407,22.3669463 54.5598105,23.2763701 68.7260559,35.7809938 L69.8214736,36.7480477 L61.0581325,45.5160029 L60.0915875,44.6778895 C48.7816493,35.0905801 31.926664,36.1354534 21.8861106,47.0463213 C11.8455572,57.9571892 12.1938626,74.8497938 22.6756202,85.3370703 C33.1573778,95.8243469 50.0410926,96.1728356 60.9462187,86.1269956 C71.8513447,76.0811556 72.8956681,59.2172956 63.3134041,47.9014025 L62.5079499,46.9665837 L71.271291,38.1986285 L72.237836,39.2623878 C78.7233437,46.5750735 82.3002682,56.0153263 82.2899486,65.7918994 Z M42.2749418,69.2732933 C44.184057,69.2556063 45.7223674,67.7021016 45.7222855,65.7918994 C45.769348,65.4928805 45.769348,65.1883346 45.7222855,64.8893157 L45.5289766,64.1156726 L51.0060647,58.6679357 L51.8759552,60.1829868 C52.8931125,61.8765015 53.4279011,63.816131 53.4226165,65.7918994 C53.4577553,71.8939406 48.5455284,76.870951 42.4467364,76.9123402 C36.3479444,76.9537293 31.3686913,72.0438469 31.3212847,65.9418877 C31.2738781,59.8399284 36.1762437,54.8531941 42.2749418,54.7996668 C44.2352854,54.7935792 46.1609344,55.3170079 47.8486845,56.3147713 L49.3951564,57.2173549 L43.9180683,62.6973269 L43.1448323,62.471681 C42.8557332,62.4400016 42.5640409,62.4400016 42.2749418,62.471681 C40.9578114,62.3444311 39.6825389,62.9756808 38.9844862,64.1004303 C38.2864335,65.2251799 38.2864335,66.648735 38.9844862,67.7734845 C39.6825389,68.898234 40.9578114,69.5294838 42.2749418,69.4022339 L42.2749418,69.2732933 Z M50.8127557,55.7667741 L49.8784289,55.0898364 C44.9394711,51.563414 38.2298279,51.8774549 33.6414759,55.8497972 C29.053124,59.8221395 27.7783968,66.4205266 30.556709,71.8175169 C33.3350212,77.2145071 39.444398,80.0076334 45.3410515,78.5767228 C51.2377051,77.1458122 55.3893254,71.8627025 55.3877353,65.7918994 C55.3937224,63.0661811 54.5489634,60.4066064 52.9713728,58.1844088 L52.2947914,57.24959 L61.0581325,48.3526943 L62.0246774,49.5453941 C70.6415956,60.0906205 69.4806228,75.5438417 59.3849465,84.6817436 C49.2892701,93.8196456 33.8054522,93.4321278 24.1790284,83.8006354 C14.5526046,74.169143 14.1652907,58.6771724 23.2983838,48.5761804 C32.4314769,38.4751884 47.8765659,37.3136043 58.4162429,45.9350596 L59.5760968,46.8698783 L50.8127557,55.7667741 Z M86.8004469,6.80161233 L87.5092466,6.44702591 C89.1092011,5.53648295 90.7544577,4.70804203 92.4386259,3.96492093 L94.3717159,3.0623373 L94.3717159,12.184879 L86.8004469,19.7601344 L86.8004469,6.80161233 Z M80.3568138,26.368336 L79.3902688,25.1756362 C77.3368079,23.0589617 76.4152966,20.0894144 76.90947,17.181324 C77.9270234,14.1511135 79.8783853,11.5215949 82.4832127,9.67053886 L84.7062661,7.92984186 L84.7062661,21.8554178 L80.3568138,26.368336 Z M89.345682,31.4937215 C86.9494409,31.3639599 84.6722687,30.407044 82.9020489,28.7859707 L81.7099767,27.8511519 L95.8859697,13.6354598 L105.035929,13.6354598 L104.166038,15.6018027 C101.620803,21.0817747 96.0148423,31.4937215 89.1845912,31.4937215 L89.345682,31.4937215 Z" id="Shape"></path>
                </g>
            </g>
        </g>
    </g>
</svg>