<?xml version="1.0" encoding="UTF-8"?>
<svg width="88px" height="88px" viewBox="0 0 88 88" version="1.1" xmlns="http://www.w3.org/2000/svg" xmlns:xlink="http://www.w3.org/1999/xlink">
    <!-- Generator: Sketch 63.1 (92452) - https://sketch.com -->
    <title>icn3-m</title>
    <desc>Created with Sketch.</desc>
    <g id="Page-1" stroke="none" stroke-width="1" fill="none" fill-rule="evenodd">
        <g id="index.mobile" transform="translate(-28.000000, -2206.000000)" fill="#000000" fill-rule="nonzero">
            <g id="Infographic" transform="translate(25.000000, 1821.000000)">
                <g id="icn3-m" transform="translate(3.000000, 385.000000)">
                    <path d="M78.6018417,9.42937233 L78.6018417,0 C74.7460926,1.37297693 71.0704119,3.20737535 67.6548249,5.46325751 C61.4068873,9.74456027 57.8628891,15.2078178 63.4807826,21.8792957 L64.1370785,22.6672655 L58.0991556,28.7083676 L57.3116005,28.0254604 C43.7518636,15.769483 22.9708143,16.2968969 10.0495645,29.2249501 C-2.87168527,42.1530033 -3.39882161,62.9449943 8.85070607,76.5118708 L9.58575756,77.2998406 L8.77195055,78.0878104 L0.371362143,86.492822 C0.207749441,86.6511728 0.115369843,86.8691773 0.115369843,87.0969322 C0.115369843,87.3246871 0.207749441,87.5426915 0.371362143,87.7010424 C0.530235474,87.8646849 0.747185251,87.9590606 0.975154435,87.963699 C1.19458015,87.9550381 1.40189305,87.8607553 1.55269489,87.7010424 L10.005787,79.2697652 L10.7408385,78.4817954 L11.5546455,79.1909682 C24.5481483,90.9363439 44.3180976,90.9363439 57.3116005,79.1909682 L58.0991556,78.4817954 L58.8867108,79.2697652 L67.313551,87.7010424 C67.4724244,87.8646849 67.6893741,87.9590606 67.9173433,87.963699 C68.2575962,87.9469116 68.55643,87.7321621 68.6809955,87.4149195 C68.8055609,87.0976768 68.7327313,86.7368399 68.4948838,86.492822 L60.0680435,78.0352791 L59.3067402,77.2998406 L60.0155399,76.5118708 C71.6739591,63.4704987 71.6739591,43.7459298 60.0155399,30.7045578 L59.3067402,29.916588 L65.3446631,23.8754859 L66.1322183,24.5321275 C67.9141035,26.2110146 70.2261854,27.2143733 72.6689262,27.3688189 C79.9669373,27.3688189 85.6373345,16.0483189 88,9.42937233 L78.6018417,9.42937233 Z M67.0510692,53.6082143 C67.0739251,69.0092644 56.3448509,82.3353305 41.3000299,85.5922941 C26.255209,88.8492578 10.979868,81.1527326 4.63746789,67.1197551 C-1.70493222,53.0867776 2.60780535,36.5278216 14.9885304,27.3763704 C27.3692554,18.2249192 44.4561419,18.9659312 55.9990085,29.1548838 L56.891571,29.9428536 L49.7510709,37.0871135 L48.9635157,36.4042063 C39.7480106,28.5923246 26.0143188,29.4437028 17.8331271,38.3340396 C9.65193548,47.2243764 9.93573986,60.9887208 18.4764313,69.5339091 C27.0171227,78.0790974 40.7742236,78.3630513 49.6598819,70.177552 C58.5455401,61.9920527 59.3964703,48.2511298 51.5886996,39.0307724 L50.9324036,38.2690682 L58.0729038,31.1248084 L58.860459,31.9915752 C64.1449467,37.9500599 67.0594778,45.6421177 67.0510692,53.6082143 Z M34.4462489,56.4449057 C36.0018242,56.430494 37.2552623,55.1646754 37.2551956,53.6082143 C37.2935428,53.3645693 37.2935428,53.1164208 37.2551956,52.8727758 L37.0976846,52.2423999 L41.5604972,47.8035032 L42.2692968,49.0379893 C43.0980917,50.4178901 43.5338454,51.9983289 43.5295394,53.6082143 C43.558171,58.5802479 39.5556158,62.6355897 34.5862297,62.6693142 C29.6168436,62.7030387 25.5596744,58.7023938 25.5210468,53.730427 C25.4824192,48.7584602 29.4769393,44.6951952 34.4462489,44.6515803 C36.0435659,44.6466201 37.6126132,45.0731175 38.987817,45.8861099 L40.2479053,46.6215484 L35.7850927,51.0867108 L35.1550485,50.9028512 C34.9194863,50.8770384 34.6818111,50.8770384 34.4462489,50.9028512 C33.3730315,50.7991661 32.3339206,51.3135177 31.7651369,52.2299803 C31.1963532,53.1464428 31.1963532,54.3063767 31.7651369,55.2228393 C32.3339206,56.1393018 33.3730315,56.6536535 34.4462489,56.5499683 L34.4462489,56.4449057 Z M41.4029862,45.4395937 L40.6416828,44.8880148 C36.6173468,42.0146337 31.1502301,42.2705188 27.411573,45.5072421 C23.6729158,48.7439655 22.6342492,54.1204291 24.8980592,58.5179767 C27.1618692,62.9155243 32.1398798,65.191405 36.9445605,64.0254778 C41.7492412,62.8595506 45.1320429,58.5547946 45.1307473,53.6082143 C45.1356257,51.3872587 44.4473035,49.2201978 43.1618594,47.4095183 L42.6105707,46.6478141 L49.7510709,39.3984916 L50.5386261,40.3703211 C57.5598187,48.9627278 56.6138408,61.5542414 48.3877342,68.9999392 C40.1616275,76.4456371 27.5451833,76.1298819 19.7014305,68.2819992 C11.8576778,60.4341165 11.5420887,47.8110294 18.9838683,39.5805915 C26.4256479,31.3501535 39.0105351,30.4036776 47.5984201,37.4285671 L48.5434863,38.1902712 L41.4029862,45.4395937 Z M70.7262901,5.54205449 L71.3038305,5.25313222 C72.6074972,4.51120833 73.9480766,3.8361824 75.3203619,3.23067631 L76.8954722,2.4952378 L76.8954722,9.92841989 L70.7262901,16.1008503 L70.7262901,5.54205449 Z M65.4759223,21.4853108 L64.6883672,20.5134813 C63.0151768,18.7887836 62.2643157,16.3691525 62.6669756,13.9995974 C63.4960932,11.530537 65.0860917,9.38796624 67.2085437,7.87969833 L69.0199206,6.46135263 L69.0199206,17.8081182 L65.4759223,21.4853108 Z M72.8001853,25.6615509 C70.8476926,25.5558192 68.9922189,24.7761099 67.5498176,23.4552354 L66.5784996,22.6935312 L78.1293086,11.1103746 L85.5848308,11.1103746 L84.8760312,12.71258 C82.8021359,17.1777424 78.234316,25.6615509 72.6689262,25.6615509 L72.8001853,25.6615509 Z" id="Shape"></path>
                </g>
            </g>
        </g>
    </g>
</svg>