<?xml version="1.0" encoding="UTF-8"?>
<svg width="584px" height="470px" viewBox="0 0 584 470" version="1.1" xmlns="http://www.w3.org/2000/svg" xmlns:xlink="http://www.w3.org/1999/xlink">
    <!-- Generator: Sketch 63.1 (92452) - https://sketch.com -->
    <title>illustration-desk</title>
    <desc>Created with Sketch.</desc>
    <g id="Page-1" stroke="none" stroke-width="1" fill="none" fill-rule="evenodd">
        <g id="index.desktop" transform="translate(-763.000000, -101.000000)">
            <g id="Banner" transform="translate(0.000000, 70.000000)">
                <g id="illustration-desk" transform="translate(765.000000, 32.000000)">
                    <path d="M380.42,161.48 L366.54,161.48 L366.54,188.27 C366.54,192.102856 369.647144,195.21 373.48,195.21 C377.312856,195.21 380.42,192.102856 380.42,188.27 M490.17,161.48 L504.05,161.48 L504.05,188.27 C504.05,192.102856 500.942856,195.21 497.11,195.21 C493.277144,195.21 490.17,192.102856 490.17,188.27 M399.25,147.75 L424.65,147.75 L424.65,180.5 L445.8,180.5 L445.8,150.87 M403.86,162.14 L410.05,162.14 M460.52,162.14 L466.72,162.14 M448.09,218.62 C448.220241,223.280109 445.808508,227.643062 441.793044,230.011527 C437.77758,232.379992 432.79242,232.379992 428.776956,230.011527 C424.761492,227.643062 422.349759,223.280109 422.48,218.62 L448.09,218.62 Z M387.23,225.3 C396.007234,206.706066 414.723526,194.84428 435.285,194.84428 C455.846474,194.84428 474.562766,206.706066 483.34,225.3 M411.42,253.59 L411.42,273.05 L435.28,286.71 L459.16,273.05 L459.16,253.59 M459.16,262.7 L473.83,262.7 L473.83,281.7 L435.29,303.42 L396.76,281.7 L396.76,262.7 L411.43,262.7 M490.17,217.33 L490.17,126.86 C490.126133,109.132323 475.777608,94.7659298 458.05,94.7 L412.54,94.7 C394.812392,94.7659298 380.463867,109.132323 380.42,126.86 L380.42,217.33 L411.42,253.59 L459.17,253.59 L490.17,217.33 Z M446.64,440.54 C443.062716,440.899076 440.339124,443.90974 440.339124,447.505 C440.339124,451.10026 443.062716,454.110924 446.64,454.47 L484.38,454.47 C488.245993,454.47 491.38,451.335993 491.38,447.47 L511.59,447.4 M441.05,426.6 C437.450319,426.934341 434.697379,429.954825 434.697379,433.57 C434.697379,437.185175 437.450319,440.205659 441.05,440.54 L446.63,440.54 M479.82,318.05 L533.74,318.05 C559.040164,318.05 579.55,338.559836 579.55,363.86 C579.55,389.160164 559.040164,409.67 533.74,409.67 L496.74,409.67 C485.24,409.67 477.53,394.55 474.56,368.97 C466.66,368.97 462.77,372.14 462.77,380.7 C462.794578,386.865492 463.4378,393.012957 464.69,399.05 L436.1,398.73 C432.234007,398.73 429.1,401.864007 429.1,405.73 L429.1,405.73 C429.1,409.595993 432.234007,412.73 436.1,412.73 L439.82,412.73 M441.05,426.6 L439.81,426.6 C435.944007,426.6 432.81,423.465993 432.81,419.6 L432.81,419.6 C432.81,415.734007 435.944007,412.6 439.81,412.6 M380.65,341.8 L380.65,468.05 M278.31,222.9 L278.31,468.05 M354.81,247.29 L201.81,247.29 M229.33,160.44 L229.33,99.71 C245.546525,103.212024 262.089645,104.978635 278.68,104.98 C295.09648,104.988413 311.467719,103.258773 327.52,99.82 L327.52,147.63 C327.530977,142.524297 331.664312,138.386494 336.77,138.37 L340.85,138.37 C341.772319,138.366486 342.689698,138.504767 343.57,138.78 L343.57,94.64 C343.553573,88.3364772 338.453484,83.227457 332.15,83.2 L324.75,83.2 C335.54,67.95 316.87,55.15 291.48,67.68 C295.38,31.48 221.13,54.41 230.28,83.2 L225.52,83.2 C219.218786,83.2328957 214.12187,88.3387385 214.1,94.64 L214.1,139.77 C210.105515,140.89924 207.343062,144.538985 207.33,148.69 L207.33,164.87 C207.340977,169.975703 211.474312,174.113506 216.58,174.13 L226.05,174.13 C234.583656,196.357312 256.147916,210.838877 279.951603,210.327837 C303.75529,209.816797 324.67816,194.42308 332.25,171.85 M328.54,167.85 C330.094442,171.011734 333.306829,173.018992 336.83,173.03 L340.91,173.03 C346.015688,173.013506 350.149023,168.875703 350.16,163.77 L350.16,147.63 C350.1489,143.496663 347.411118,139.866657 343.44,138.72 M250.16,139.84 L259.82,139.84 M292.6,139.84 L302.27,139.84 M290.05,184.61 C287.979047,188.96787 283.584922,191.744751 278.76,191.744751 C273.935078,191.744751 269.540953,188.96787 267.47,184.61 M285.88,160.79 L285.88,163.24 C285.874538,165.271767 284.231744,166.919025 282.2,166.93 L272.87,166.93 C270.838256,166.919025 269.195462,165.271767 269.19,163.24 L269.19,127.87 M341.92,290.58 L201.82,290.58 M124.76,63.93 C124.77644,56.9913551 130.39139,51.3674713 137.33,51.34 L137.33,51.34 L137.33,75.84 C137.33,85.57 130.05,101.89 112.96,102.65 L112.96,110.51 M124.73,77.37 L124.73,17.71 C124.719021,14.2296411 121.900359,11.4109791 118.42,11.4 L118.42,11.4 C114.943547,11.416459 112.130945,14.2335252 112.12,17.71 M99.55,50.58 L99.55,6.91 C99.55,4.65922672 100.750773,2.5794264 102.7,1.45403973 C104.649227,0.328653068 107.050773,0.328653068 109,1.45403973 C110.949227,2.5794264 112.15,4.65922672 112.15,6.91 L112.15,50.58 M99.55,13.94 C99.642112,11.6275472 98.4609382,9.45021939 96.4722392,8.26658124 C94.4835403,7.0829431 92.0064597,7.0829431 90.0177608,8.26658124 C88.0290618,9.45021939 86.847888,11.6275472 86.94,13.94 L86.94,50.58 M86.94,50.58 L86.94,27.47 M80.64,110.47 L80.64,101.59 C77.1635469,101.573541 74.3509452,98.7564748 74.34,95.28 L74.34,27.47 C74.34,23.9906061 77.1606061,21.17 80.64,21.17 C84.1193939,21.17 86.94,23.9906061 86.94,27.47 M149.37,468.05 L149.37,365.21 C149.359031,356.301329 142.148635,349.077523 133.24,349.05 L110.24,349.05 M49.3,349.05 L26.16,349.05 C17.2614584,349.093956 10.0663806,356.311365 10.05,365.21 L10.05,468.05 M62.87,315.96 L62.87,347.75 C62.87,353.773498 66.0834976,359.33944 71.2999999,362.351189 C76.5165021,365.362938 82.9434979,365.362938 88.1600001,362.351189 C93.3765024,359.33944 96.59,353.773498 96.59,347.75 L96.59,315.96 M96.59,338.14 L110.23,338.14 L110.23,347.75 C110.23,364.594685 96.5746849,378.25 79.73,378.25 C62.8853151,378.25 49.23,364.594685 49.23,347.75 L49.23,338.14 L62.87,338.14 M41.93,242.53 C41.7951499,237.530988 44.385039,232.852904 48.6932324,230.313658 C53.0014258,227.774412 58.3485742,227.774412 62.6567676,230.313658 C66.964961,232.852904 69.5548501,237.530988 69.42,242.53 M128.42,174.66 L176.54,222.84 C150.550307,248.719264 108.529693,248.719264 82.54,222.84 L34.41,174.66 C60.4077022,148.771786 102.442298,148.771786 128.44,174.66 L128.42,174.66 Z M341.91,468.05 L341.91,291.05 C341.953888,275.446357 354.586392,262.80492 370.19,262.75 L373.3,262.75 L373.3,250.91 C373.261696,235.314105 360.645779,222.671393 345.05,222.6 L309.13,222.6 L309.13,201.23 M184.11,468.05 L184.11,288.41 C172.144458,286.935179 160.432331,283.854102 149.29,279.25 M65.05,157.28 C65.05,156.02 65.05,154.75 65.05,153.48 L65.05,115.19 C65.0554744,112.617 67.1370181,110.53099 69.71,110.52 L122.38,110.52 C124.956888,110.5255 127.0445,112.613112 127.05,115.19 L127.05,153.48 C127.043714,161.517376 128.361351,169.500904 130.95,177.11 M176.34,223.11 C182.977186,225.47752 189.922989,226.868702 196.96,227.24 C201.552433,224.196569 206.940654,222.575581 212.45,222.58 L248.34,222.58 L248.34,201.18 M135.71,241.98 L135.71,262.65 C135.71,282.606856 125.063145,301.047752 107.78,311.02618 C90.496856,321.004608 69.203144,321.004608 51.9199998,311.02618 C34.6368555,301.047752 23.99,282.606856 23.99,262.65 L23.99,219.11 C24.000127,204.527911 29.7180878,190.529137 39.92,180.11 M23.92,262.69 C14.7077991,258.320291 8.84651484,249.024757 8.87423903,238.828766 C8.90216047,228.632775 14.8140884,219.369368 24.05,215.05 M148.65,239.46 C157.113762,246.572401 160.230731,258.215906 156.452271,268.605553 C152.673811,278.995199 142.805375,285.916231 131.75,285.93 L130.52,285.93 M28.86,285.64 C19.4287845,284.89294 11.1233821,279.143448 7.10378469,270.579059 C3.08418726,262.01467 3.96839895,251.952139 9.42,244.22 M9.42,244.22 C-9.4,219.22 3.17,181.72 34.42,174.67" id="Shape" stroke="#FFFFFF" stroke-width="3.2"></path>
                    <path d="M101.64,392.15 C100.996846,391.544238 99.9931542,391.544238 99.35,392.15 C99.0809341,392.443439 98.9404926,392.832354 98.96,393.23 C98.96,395.75 98.96,398.23 98.96,400.79 C99.0076296,401.566514 99.6520282,402.171459 100.43,402.17 L100.43,402.17 C101.246278,402.227417 101.956114,401.615797 102.02,400.8 C102.02,399.44 102.02,398.07 102.02,396.7 L102.02,396.29 L102.32,396.58 C102.86,397.1 103.32,397.68 103.89,398.19 C104.316828,398.630393 104.958885,398.786043 105.54,398.59 C106.45,398.19 107.02,397.23 107.76,396.59 L108.04,396.35 L108.04,396.72 C108.04,397.84 108.04,398.97 108.04,400.09 C107.991478,400.523315 108.046308,400.961962 108.2,401.37 L108.2,401.37 C108.583684,402.005578 109.34838,402.301589 110.06,402.09 C110.693885,401.92148 111.133799,401.345892 111.13,400.69 L111.13,400.69 L111.13,393.25 L111.13,393.25 C111.154304,392.846813 111.009331,392.451761 110.73,392.16 C110.09439,391.574194 109.11561,391.574194 108.48,392.16 C107.36,393.22 106.29,394.33 105.17,395.4 L105.17,395.45 L104.96,395.45 L104.96,395.4 C103.87,394.33 102.79,393.25 101.69,392.18 M111.56,386.75 C111.041674,386.942924 110.633136,387.352122 110.441048,387.870759 C110.24896,388.389395 110.292391,388.965989 110.56,389.45 L110.56,389.45 C110.912228,390.141934 111.644796,390.55543 112.419199,390.499421 C113.193602,390.443412 113.859044,389.928803 114.108038,389.193386 C114.357032,388.457968 114.141092,387.644946 113.56,387.13 C113.005292,386.663601 112.2493,386.516183 111.56,386.74 M123.21,386.74 C122.693907,386.93566 122.287685,387.34501 122.095989,387.862589 C121.904293,388.380168 121.945867,388.955367 122.21,389.44 L122.21,389.44 C122.562228,390.131934 123.294796,390.54543 124.069199,390.489421 C124.843602,390.433412 125.509044,389.918803 125.758038,389.183386 C126.007032,388.447968 125.791092,387.634946 125.21,387.12 C124.655292,386.653601 123.8993,386.506183 123.21,386.73 M99.91,386.73 C99.3939067,386.92566 98.9876852,387.33501 98.7959894,387.852589 C98.6042935,388.370168 98.6458672,388.945367 98.91,389.43 L98.91,389.43 C99.2622282,390.121934 99.9947959,390.53543 100.769199,390.479421 C101.543602,390.423412 102.209044,389.908803 102.458038,389.173386 C102.707032,388.437968 102.491092,387.624946 101.91,387.11 C101.355292,386.643601 100.5993,386.496183 99.91,386.72 M115.91,392.15 C115.266846,391.544238 114.263154,391.544238 113.62,392.15 C113.348269,392.442432 113.204312,392.831116 113.22,393.23 C113.22,395.75 113.22,398.23 113.22,400.79 C113.277426,401.565829 113.922055,402.166901 114.7,402.17 L114.7,402.17 C115.516278,402.227417 116.226114,401.615797 116.29,400.8 C116.29,399.44 116.29,398.07 116.29,396.7 L116.29,396.29 L116.58,396.58 C117.13,397.1 117.58,397.68 118.16,398.19 C118.586828,398.630393 119.228885,398.786043 119.81,398.59 C120.72,398.19 121.29,397.23 122.03,396.59 L122.3,396.35 L122.3,396.72 C122.3,397.84 122.3,398.97 122.3,400.09 C122.255041,400.524101 122.31329,400.962683 122.47,401.37 L122.47,401.37 C122.853684,402.005578 123.61838,402.301589 124.33,402.09 C124.959816,401.915425 125.396888,401.343556 125.4,400.69 L125.4,400.69 L125.4,393.25 L125.4,393.25 C125.425458,392.844759 125.27622,392.448004 124.99,392.16 C124.357708,391.575536 123.382292,391.575536 122.75,392.16 C121.63,393.22 120.56,394.33 119.44,395.4 L119.44,395.45 L119.23,395.45 L119.23,395.4 C118.14,394.33 117.06,393.25 115.96,392.18" id="Shape" fill="#FFFFFF"></path>
                    <path d="M99.31,270.05 C99.31,280.836121 90.5661212,289.58 79.78,289.58 C68.9938788,289.58 60.25,280.836121 60.25,270.05 L99.31,270.05 Z" id="Path" stroke="#FFFFFF" stroke-width="3.2"></path>
                </g>
            </g>
        </g>
    </g>
</svg>