<?xml version="1.0" encoding="UTF-8"?>
<svg width="253px" height="204px" viewBox="0 0 253 204" version="1.1" xmlns="http://www.w3.org/2000/svg" xmlns:xlink="http://www.w3.org/1999/xlink">
    <!-- Generator: Sketch 63.1 (92452) - https://sketch.com -->
    <title>illustration-mob</title>
    <desc>Created with Sketch.</desc>
    <g id="Page-1" stroke="none" stroke-width="1" fill="none" fill-rule="evenodd">
        <g id="index.mobile" transform="translate(-24.000000, -464.000000)">
            <g id="Banner" transform="translate(0.000000, 57.000000)">
                <g id="illustration-mob" transform="translate(25.000000, 408.000000)">
                    <path d="M164.671573,69.8626776 L158.654204,69.8626776 L158.654204,81.4970478 C158.654204,83.1615819 160.001238,84.5109533 161.662889,84.5109533 C163.324539,84.5109533 164.671573,83.1615819 164.671573,81.4970478 M212.251269,69.8626776 L218.268637,69.8626776 L218.268637,81.4970478 C218.268637,83.1615819 216.921604,84.5109533 215.259953,84.5109533 C213.598303,84.5109533 212.251269,83.1615819 212.251269,81.4970478 M172.834905,63.9000086 L183.846516,63.9000086 L183.846516,78.1226896 L193.015632,78.1226896 L193.015632,65.2549633 M174.833469,70.1493027 L177.517007,70.1493027 M199.397164,70.1493027 L202.085038,70.1493027 M194.008411,94.677456 C194.064875,96.7012495 193.019321,98.5959945 191.278505,99.6245722 C189.537689,100.65315 187.376482,100.65315 185.635666,99.6245722 C183.894851,98.5959945 182.849297,96.7012495 182.90576,94.677456 L194.008411,94.677456 Z M167.623898,97.5784486 C171.429075,89.5034689 179.543111,84.3521285 188.457086,84.3521285 C197.37106,84.3521285 205.485096,89.5034689 209.290273,97.5784486 M178.11094,109.864239 L178.11094,118.315335 L188.454918,124.247604 L198.807566,118.315335 L198.807566,109.864239 M198.807566,113.820533 L205.167422,113.820533 L205.167422,122.07186 L188.459253,131.504428 L171.75542,122.07186 L171.75542,113.820533 L178.115276,113.820533 M212.251269,94.1172344 L212.251269,54.8278924 C212.232251,47.1291111 206.011764,40.8900689 198.32635,40.8614369 L178.596492,40.8614369 C170.911077,40.8900689 164.69059,47.1291111 164.671573,54.8278924 L164.671573,94.1172344 L178.11094,109.864239 L198.811901,109.864239 L212.251269,94.1172344 Z M193.379796,191.052948 C191.828943,191.208888 190.64819,192.51636 190.64819,194.077711 C190.64819,195.639061 191.828943,196.946533 193.379796,197.102473 L209.741142,197.102473 C211.417158,197.102473 212.775838,195.741436 212.775838,194.062511 L221.537438,194.032111 M190.956374,184.99908 C189.395812,185.144278 188.202336,186.456015 188.202336,188.026014 C188.202336,189.596013 189.395812,190.90775 190.956374,191.052948 L193.375461,191.052948 M207.764254,137.85795 L231.140083,137.85795 C242.108412,137.85795 251,146.764968 251,157.752332 C251,168.739696 242.108412,177.646714 231.140083,177.646714 L215.099548,177.646714 C210.113976,177.646714 206.771475,171.080395 205.483897,159.971504 C202.059026,159.971504 200.372602,161.348173 200.372602,165.065613 C200.383257,167.743165 200.662112,170.412888 201.204976,173.034657 L188.810411,172.895687 C187.134395,172.895687 185.775715,174.256725 185.775715,175.93565 L185.775715,175.93565 C185.775715,177.614574 187.134395,178.975612 188.810411,178.975612 L190.423135,178.975612 M190.956374,184.99908 L190.4188,184.99908 C188.742783,184.99908 187.384104,183.638043 187.384104,181.959118 L187.384104,181.959118 C187.384104,180.280193 188.742783,178.919155 190.4188,178.919155 M164.771284,148.172108 L164.771284,203 M120.404031,96.5361758 L120.404031,203 M153.568921,107.128273 L87.2391399,107.128273 M99.16983,69.4110261 L99.16983,43.0371813 C106.200147,44.5580414 113.372053,45.3252457 120.564436,45.3258387 C127.681439,45.3294922 134.77883,44.5783437 141.737943,43.0849522 L141.737943,63.847895 C141.742701,61.6305888 143.534618,59.833622 145.748076,59.8264591 L147.516871,59.8264591 C147.916722,59.8249329 148.314431,59.8849858 148.696067,60.004514 L148.696067,40.83538 C148.688945,38.097884 146.477914,35.879137 143.745177,35.867213 L140.53707,35.867213 C145.214837,29.2444379 137.12087,23.6856496 126.113594,29.1271822 C127.804353,13.4062341 95.6149005,23.3642821 99.5816816,35.867213 L97.5180884,35.867213 C94.786336,35.8814989 92.57668,38.0988661 92.5671988,40.83538 L92.5671988,60.4344516 C90.8354777,60.9248581 89.6378772,62.5055281 89.6322144,64.3082322 L89.6322144,71.334888 C89.6369732,73.5521942 91.4288897,75.349161 93.6423482,75.3563239 L97.7478582,75.3563239 C101.447437,85.0092083 110.796147,91.2982672 121.115712,91.0763327 C131.435276,90.8543982 140.505925,84.1692093 143.78853,74.3661647 M142.180141,72.6290434 C142.854035,74.0021224 144.246695,74.8738348 145.774088,74.8786155 L147.542882,74.8786155 C149.756341,74.8714526 151.548257,73.0744858 151.553016,70.8571796 L151.553016,63.847895 C151.548204,62.052868 150.361299,60.4764278 148.639708,59.9784572 M108.200218,60.4648512 L112.388098,60.4648512 M126.599145,60.4648512 L130.791361,60.4648512 M125.493649,79.9075818 C124.595833,81.800119 122.690857,83.0060637 120.599118,83.0060637 C118.507379,83.0060637 116.602403,81.800119 115.704587,79.9075818 M123.685837,69.5630242 L123.685837,70.627011 C123.68347,71.5093673 122.971272,72.2247391 122.090454,72.2295055 L118.045638,72.2295055 C117.16482,72.2247391 116.452623,71.5093673 116.450255,70.627011 L116.450255,55.2665156 M147.980746,125.928269 L87.2434752,125.928269 M53.8358089,27.4986309 C53.8429361,24.4853139 56.277174,22.0429718 59.2852556,22.0310415 L59.2852556,22.0310415 L59.2852556,32.6709097 C59.2852556,36.8964574 56.1291719,43.9839125 48.7201787,44.3139655 L48.7201787,47.727409 M53.822803,33.3353586 L53.822803,7.42619385 C53.8180433,5.91474241 52.5960744,4.69065295 51.0872415,4.68588493 L51.0872415,4.68588493 C49.5801018,4.69303277 48.3607602,5.91642921 48.3560152,7.42619385 M42.9065684,21.7009885 L42.9065684,2.73596623 C42.9065684,1.75849965 43.4271372,0.855283273 44.2721815,0.366549974 C45.1172259,-0.122183325 46.1583635,-0.122183325 47.0034079,0.366549974 C47.8484523,0.855283273 48.369021,1.75849965 48.369021,2.73596623 L48.369021,21.7009885 M42.9065684,5.78895698 C42.9465016,4.78470419 42.4344296,3.83913355 41.572273,3.32510278 C40.7101164,2.81107201 39.6362326,2.81107201 38.774076,3.32510278 C37.9119193,3.83913355 37.3998474,4.78470419 37.4397806,5.78895698 L37.4397806,21.7009885 M37.4397806,21.7009885 L37.4397806,11.6647699 M34.7085543,47.7100377 L34.7085543,43.8536284 C33.2014146,43.8464805 31.982073,42.6230841 31.977328,41.1133194 L31.977328,11.6647699 C31.977328,10.1537376 33.2001396,8.92880381 34.7085543,8.92880381 C36.2169689,8.92880381 37.4397806,10.1537376 37.4397806,11.6647699 M64.5049325,203 L64.5049325,158.33861 C64.5001769,154.46975 61.3742688,151.332593 57.5121262,151.32064 L47.5409826,151.32064 M21.1217873,151.32064 L11.0899498,151.32064 C7.232183,151.339729 4.11291544,154.474108 4.10581399,158.33861 L4.10581399,203 M27.004762,136.950304 L27.004762,150.756076 C27.004762,153.371962 28.3979032,155.789141 30.6594029,157.097085 C32.9209025,158.405028 35.7071851,158.405028 37.9686848,157.097085 C40.2301845,155.789141 41.6233256,153.371962 41.6233256,150.756076 L41.6233256,136.950304 M41.6233256,146.582642 L47.5366473,146.582642 L47.5366473,150.756076 C47.5366473,158.071391 41.6166861,164.001626 34.3140438,164.001626 C27.0114016,164.001626 21.0914403,158.071391 21.0914403,150.756076 L21.0914403,146.582642 L27.004762,146.582642 M17.9266861,105.061099 C17.8682248,102.890126 18.9910142,100.858526 20.8587366,99.7557819 C22.726459,98.6530372 25.0445974,98.6530372 26.9123198,99.7557819 C28.7800422,100.858526 29.9028316,102.890126 29.8443703,105.061099 M55.4225213,75.5864925 L76.2838878,96.510119 C65.0166288,107.748975 46.7995164,107.748975 35.5322574,96.510119 L14.6665556,75.5864925 C25.937287,64.3437504 44.1604605,64.3437504 55.4311918,75.5864925 L55.4225213,75.5864925 Z M147.97641,203 L147.97641,126.132381 C147.995437,119.356025 153.471981,113.866098 160.236582,113.842247 L161.584854,113.842247 L161.584854,108.700368 C161.568248,101.927377 156.098895,96.4368964 149.337688,96.4058917 L133.765363,96.4058917 L133.765363,87.125321 M79.5656946,203 L79.5656946,124.985881 C74.3782974,124.345395 69.3007624,123.007344 64.4702503,121.007873 M27.949853,68.0387002 C27.949853,67.491507 27.949853,66.939971 27.949853,66.388435 L27.949853,49.7598409 C27.9522263,48.6424378 28.8546338,47.7365245 29.9700934,47.7317518 L52.8040123,47.7317518 C53.9211653,47.7341404 54.8262034,48.6407491 54.8285879,49.7598409 L54.8285879,66.388435 C54.8258629,69.8789092 55.3970954,73.3459984 56.5193471,76.6504793 M76.1971822,96.6273747 C79.0745878,97.6555421 82.0857881,98.259705 85.1365292,98.4209525 C87.1274773,97.0992504 89.4634222,96.395287 91.8518776,96.3972061 L107.411197,96.3972061 L107.411197,87.1036069 M58.5829403,104.822245 L58.5829403,113.798819 C58.5829403,122.465689 53.9672305,130.474208 46.4745038,134.807643 C38.9817772,139.141078 29.7503572,139.141078 22.2576305,134.807643 C14.7649038,130.474208 10.1491941,122.465689 10.1491941,113.798819 L10.1491941,94.8902534 C10.1535844,88.5575388 12.6324804,82.4781466 17.0552948,77.9533203 M10.1188471,113.81619 C6.12510024,111.918512 3.5840695,107.881644 3.59608871,103.453726 C3.60819344,99.0258074 6.17117961,95.0028916 10.1752057,93.1270752 M64.1927924,103.727858 C67.8620698,106.816634 69.2133631,111.87318 67.5752951,116.385199 C65.9372271,120.897218 61.6589839,123.902886 56.8661695,123.908865 L56.33293,123.908865 M12.2604753,123.782924 C8.1717795,123.45849 4.57115518,120.961599 2.82854722,117.242254 C1.08593925,113.522908 1.46926976,109.152948 3.83269136,105.795033 M3.83269136,105.795033 C-4.32630527,94.9380242 1.12314147,78.6525116 14.6708909,75.5908353" id="Shape" stroke="#FFFFFF" stroke-width="2"></path>
                    <path d="M43.1989878,171.48957 C42.9387256,171.216992 42.5325666,171.216992 42.2723045,171.48957 C42.1634228,171.62161 42.1065911,171.796612 42.114485,171.975543 C42.114485,173.10948 42.114485,174.225418 42.114485,175.377355 C42.1337591,175.726766 42.3945248,175.998977 42.7093429,175.99832 L42.7093429,175.99832 C43.0396623,176.024156 43.326908,175.748943 43.3527605,175.381854 C43.3527605,174.769888 43.3527605,174.153422 43.3527605,173.536956 L43.3527605,173.352467 L43.4741601,173.482959 C43.6926793,173.716946 43.8788253,173.977932 44.1094844,174.207419 C44.2822068,174.405585 44.5420249,174.475624 44.777182,174.387409 C45.1454273,174.207419 45.3760865,173.775443 45.6755387,173.487459 L45.788845,173.379465 L45.788845,173.545956 C45.788845,174.049928 45.788845,174.5584 45.788845,175.062372 C45.7692097,175.257353 45.7913978,175.454733 45.8535914,175.63834 L45.8535914,175.63834 C46.008855,175.924334 46.3183009,176.057532 46.6062687,175.962322 C46.8627798,175.886492 47.0407977,175.627492 47.0392604,175.332357 L47.0392604,175.332357 L47.0392604,171.984542 L47.0392604,171.984542 C47.0490956,171.803118 46.99043,171.625355 46.8773944,171.494069 C46.620185,171.230471 46.2241071,171.230471 45.9668977,171.494069 C45.5136727,171.971043 45.0806809,172.470515 44.6274559,172.951989 L44.6274559,172.974488 L44.5424762,172.974488 L44.5424762,172.951989 C44.1013911,172.470515 43.6643527,171.984542 43.219221,171.503069 M47.2132665,169.059704 C47.0035179,169.146515 46.8381968,169.330644 46.7604655,169.564018 C46.6827343,169.797391 46.7003091,170.056844 46.8086013,170.274637 L46.8086013,170.274637 C46.9511358,170.58599 47.2475804,170.772053 47.5609544,170.74685 C47.8743285,170.721647 48.1436096,170.490087 48.2443688,170.159167 C48.345128,169.828247 48.2577447,169.462407 48.0225969,169.230695 C47.7981257,169.020827 47.4922024,168.954492 47.2132665,169.055204 M51.927616,169.055204 C51.718771,169.143247 51.5543873,169.327444 51.4768147,169.560341 C51.399242,169.793239 51.4160654,170.052064 51.5229508,170.270137 L51.5229508,170.270137 C51.6654853,170.58149 51.9619299,170.767553 52.2753039,170.742351 C52.588678,170.717148 52.8579591,170.485587 52.9587183,170.154667 C53.0594775,169.823747 52.9720942,169.457908 52.7369464,169.226195 C52.5124752,169.016327 52.2065519,168.949992 51.927616,169.050705 M42.498917,169.050705 C42.290072,169.138747 42.1256883,169.322944 42.0481156,169.555842 C41.970543,169.788739 41.9873664,170.047565 42.0942518,170.265637 L42.0942518,170.265637 C42.2367862,170.57699 42.5332309,170.763054 42.8466049,170.737851 C43.1599789,170.712648 43.4292601,170.481087 43.5300193,170.150167 C43.6307785,169.819248 43.5433951,169.453408 43.3082474,169.221695 C43.0837762,169.011827 42.7778528,168.945493 42.498917,169.046205 M48.9735601,171.48957 C48.713298,171.216992 48.3071389,171.216992 48.0468768,171.48957 C47.9369168,171.621157 47.8786625,171.796055 47.8850107,171.975543 C47.8850107,173.10948 47.8850107,174.225418 47.8850107,175.377355 C47.9082492,175.726458 48.1691079,175.996926 48.4839152,175.99832 L48.4839152,175.99832 C48.8142346,176.024156 49.1014804,175.748943 49.1273328,175.381854 C49.1273328,174.769888 49.1273328,174.153422 49.1273328,173.536956 L49.1273328,173.352467 L49.2446857,173.482959 C49.4672516,173.716946 49.6493509,173.977932 49.8840568,174.207419 C50.0567791,174.405585 50.3165972,174.475624 50.5517543,174.387409 C50.9199996,174.207419 51.1506588,173.775443 51.4501111,173.487459 L51.5593707,173.379465 L51.5593707,173.545956 C51.5593707,174.049928 51.5593707,174.5584 51.5593707,175.062372 C51.5411774,175.257707 51.5647488,175.455058 51.6281637,175.63834 L51.6281637,175.63834 C51.7834273,175.924334 52.0928732,176.057532 52.380841,175.962322 C52.6357057,175.883768 52.8125735,175.626441 52.8138328,175.332357 L52.8138328,175.332357 L52.8138328,171.984542 L52.8138328,171.984542 C52.8241348,171.802194 52.7637435,171.623664 52.64792,171.494069 C52.3920534,171.231075 51.9973366,171.231075 51.74147,171.494069 C51.288245,171.971043 50.8552532,172.470515 50.4020282,172.951989 L50.4020282,172.974488 L50.3170485,172.974488 L50.3170485,172.951989 C49.8759634,172.470515 49.438925,171.984542 48.9937933,171.503069" id="Shape" fill="#FFFFFF"></path>
                    <path d="M42,117 C42,121.418278 38.1944204,125 33.5,125 C28.8055796,125 25,121.418278 25,117 L42,117 Z" id="Path" stroke="#FFFFFF" stroke-width="2"></path>
                </g>
            </g>
        </g>
    </g>
</svg>