<?xml version="1.0" encoding="UTF-8"?>
<svg width="16px" height="16px" viewBox="0 0 16 16" version="1.1" xmlns="http://www.w3.org/2000/svg" xmlns:xlink="http://www.w3.org/1999/xlink">
    <!-- Generator: Sketch 63.1 (92452) - https://sketch.com -->
    <title>insta</title>
    <desc>Created with Sketch.</desc>
    <g id="Page-1" stroke="none" stroke-width="1" fill="none" fill-rule="evenodd">
        <g id="index.desktop" transform="translate(-844.000000, -2146.000000)" fill="#000000" fill-rule="nonzero">
            <g id="Support" transform="translate(0.000000, 1914.000000)">
                <g id="insta" transform="translate(844.000000, 232.000000)">
                    <path d="M8,4 C5.79459866,4 4,5.79435701 4,8.00012667 C4,10.205643 5.79434802,12 8,12 C10.2054013,12 12,10.205643 12,8.00012667 C12,5.79435701 10.2054013,4 8,4 Z M8,10.5273758 C6.59765649,10.5273758 5.45698352,9.39345768 5.45698352,8.00012667 C5.45698352,6.60654232 6.59765649,5.47287755 8,5.47287755 C9.40209286,5.47287755 10.5430165,6.60654232 10.5430165,8.00012667 C10.5430165,9.39371101 9.40234351,10.5273758 8,10.5273758 Z" id="Shape"></path>
                    <path d="M11.3946254,0 L4.60537464,0 C2.06611165,0 0,2.05783926 0,4.5875165 L0,11.4124835 C0,13.9419001 2.06584995,16 4.60537464,16 L11.3946254,16 C13.9341501,16 16,13.9419001 16,11.4124835 L16,4.5875165 C16,2.05809994 13.9341501,0 11.3946254,0 Z M14.4758665,11.4124835 C14.4758665,13.1048438 13.0935737,14.4817766 11.3946254,14.4817766 L4.60537464,14.4817766 C2.90642634,14.4817766 1.52413353,13.1048438 1.52413353,11.4124835 L1.52413353,4.5875165 C1.52413353,2.89515617 2.90642634,1.51822344 4.60537464,1.51822344 L4.60537464,1.51822344 L11.3946254,1.51822344 C13.0935737,1.51822344 14.4758665,2.89515617 14.4758665,4.5875165 L14.4758665,11.4124835 Z" id="Shape"></path>
                    <circle id="Oval" cx="12" cy="4" r="1"></circle>
                </g>
            </g>
        </g>
    </g>
</svg>