<?xml version="1.0" encoding="UTF-8"?>
<svg width="9px" height="13px" viewBox="0 0 9 13" version="1.1" xmlns="http://www.w3.org/2000/svg" xmlns:xlink="http://www.w3.org/1999/xlink">
    <!-- Generator: Sketch 63.1 (92452) - https://sketch.com -->
    <title>italic</title>
    <desc>Created with Sketch.</desc>
    <g id="Page-1" stroke="none" stroke-width="1" fill="none" fill-rule="evenodd">
        <g id="create.desktop.hovers" transform="translate(-150.000000, -1004.000000)" fill="#000000" fill-rule="nonzero">
            <path d="M155.687486,1016.875 C155.92896,1016.875 156.124985,1016.67897 156.124985,1016.4375 L156.124985,1015.5625 C156.124985,1015.32103 155.92896,1015.125 155.687486,1015.125 L154.408902,1015.125 L156.596397,1006.37502 L158.31248,1006.37502 C158.553954,1006.37502 158.749979,1006.179 158.749979,1005.93752 L158.749979,1005.06253 C158.749979,1004.82105 158.553954,1004.62503 158.31248,1004.62503 L153.062493,1004.62503 C152.821019,1004.62503 152.624994,1004.82105 152.624994,1005.06253 L152.624994,1005.93752 C152.624994,1006.179 152.821019,1006.37502 153.062493,1006.37502 L154.341077,1006.37502 L152.153582,1015.125 L150.437499,1015.125 C150.196025,1015.125 150,1015.32103 150,1015.5625 L150,1016.4375 C150,1016.67897 150.196025,1016.875 150.437499,1016.875 L155.687486,1016.875 Z" id="italic"></path>
        </g>
    </g>
</svg>