<?xml version="1.0" encoding="UTF-8"?>
<svg width="14px" height="15px" viewBox="0 0 14 15" version="1.1" xmlns="http://www.w3.org/2000/svg" xmlns:xlink="http://www.w3.org/1999/xlink">
    <!-- Generator: Sketch 63.1 (92452) - https://sketch.com -->
    <title>link</title>
    <desc>Created with Sketch.</desc>
    <g id="Page-1" stroke="none" stroke-width="1" fill="none" fill-rule="evenodd">
        <g id="create.desktop.hovers" transform="translate(-299.000000, -1003.000000)" fill="#000000" fill-rule="nonzero">
            <path d="M305.193131,1013.1036 L305.768817,1012.52786 C305.997153,1012.29955 306.099505,1012.00181 306.08869,1011.71286 C306.083216,1011.56982 306.00949,1011.44423 305.898726,1011.36818 C305.819098,1011.31334 305.717174,1011.23488 305.61597,1011.13387 C304.848344,1010.36624 304.845113,1009.12031 305.61597,1008.34946 L307.453471,1006.51222 C308.22561,1005.74008 309.485101,1005.74473 310.251419,1006.52619 C311.010206,1007.30001 310.986174,1008.5478 310.21983,1009.31415 L309.861985,1009.67199 C309.743024,1009.79093 309.704225,1009.96703 309.758538,1010.12621 C309.918889,1010.59636 310.00578,1011.08321 310.02351,1011.56781 C310.037423,1011.94806 310.500743,1012.12686 310.769827,1011.85781 L311.784428,1010.84321 C313.405128,1009.22285 313.405128,1006.58581 311.784454,1004.96543 C310.164047,1003.34497 307.527331,1003.34476 305.906657,1004.96543 L304.069156,1006.80294 C304.065872,1006.80619 304.06232,1006.80977 304.059329,1006.81303 C302.457908,1008.42337 302.435451,1011.04532 304.069156,1012.68073 C304.242831,1012.85438 304.428336,1013.00993 304.630289,1013.15092 C304.805326,1013.27311 305.04218,1013.25452 305.193131,1013.1036 Z M306.093283,1016.53459 L307.930784,1014.69709 C307.934068,1014.69383 307.93762,1014.69025 307.940611,1014.687 C309.542059,1013.07666 309.564489,1010.45471 307.930784,1008.81929 C307.757109,1008.64562 307.571578,1008.4901 307.369624,1008.34908 C307.194587,1008.22689 306.95776,1008.24545 306.806782,1008.3964 L306.231096,1008.97214 C306.00276,1009.20045 305.900409,1009.49818 305.911223,1009.78714 C305.916697,1009.93018 305.990424,1010.05577 306.101187,1010.13182 C306.180815,1010.18666 306.282739,1010.26512 306.383943,1010.36613 C307.151569,1011.13376 307.1548,1012.37969 306.383943,1013.15054 L304.546442,1014.98778 C303.774277,1015.75991 302.514785,1015.75527 301.748494,1014.97381 C300.989707,1014.19999 301.013766,1012.95219 301.780084,1012.18585 L302.137928,1011.82801 C302.256889,1011.70907 302.295688,1011.53297 302.241375,1011.37376 C302.081024,1010.90363 301.994133,1010.41679 301.976403,1009.93219 C301.962517,1009.55194 301.49917,1009.37311 301.230086,1009.64219 L300.215486,1010.65679 C298.594811,1012.27717 298.594811,1014.91421 300.215486,1016.53459 C301.835893,1018.15505 304.472609,1018.15526 306.093283,1016.53459 Z" id="link"></path>
        </g>
    </g>
</svg>