<?xml version="1.0" encoding="UTF-8"?>
<svg width="95px" height="17px" viewBox="0 0 95 17" version="1.1" xmlns="http://www.w3.org/2000/svg" xmlns:xlink="http://www.w3.org/1999/xlink">
    <!-- Generator: Sketch 63.1 (92452) - https://sketch.com -->
    <title>logo-f-mob</title>
    <desc>Created with Sketch.</desc>
    <g id="Page-1" stroke="none" stroke-width="1" fill="none" fill-rule="evenodd">
        <g id="index.mobile" transform="translate(-28.000000, -3407.000000)" fill="#00A6ED">
            <g id="Footer" transform="translate(26.000000, 3400.000000)">
                <g id="logo-f-mob" transform="translate(2.000000, 7.000000)">
                    <path d="M17.2153115,8.87131237 C18.2226822,8.66755416 19.3632069,8.84134793 20.1317165,9.57435311 C21.1739521,10.5691726 21.1713558,12.4104876 20.1435854,13.4150456 C19.4485144,14.0944893 18.4300166,14.2960002 17.4990518,14.1746442 C16.6975319,14.0843763 15.9171534,13.6659978 15.4880194,12.9659535 C14.8975429,12.0434232 14.9368585,10.7605705 15.5877921,9.87961588 C15.979094,9.34961979 16.5769886,9.00015947 17.2153115,8.87131237 Z M16.9527127,6.06551684 C15.5892757,6.23181949 14.2670089,6.84271958 13.340124,7.88211119 C12.2852778,9.06495758 11.8353732,10.7317297 12.0538347,12.2984955 C12.2544929,13.7345415 13.040064,15.0874361 14.2269514,15.9144547 C15.5915011,16.8654512 17.3221314,17.1276401 18.9440873,16.9463552 C20.3149423,16.7927874 21.6624304,16.2152228 22.6078605,15.1803258 C23.8006824,13.8742507 24.2520705,11.961021 23.8644776,10.2388146 C23.555145,8.86457037 22.6965061,7.63715187 21.5014588,6.90527035 C20.1498907,6.07787717 18.5004881,5.87674084 16.9527127,6.06551684 L16.9527127,6.06551684 Z" id="Fill-14"></path>
                    <path d="M43.8807402,6.47012695 C43.2488619,5.8348978 42.0744006,5.84463598 41.4489546,6.49185059 C41.1515556,6.78624334 41.0202611,7.20873066 41.0297204,7.62222888 C41.0403147,10.2657709 41.0164774,12.909313 41.0403147,15.5524805 C41.0475038,16.3551315 41.8171088,16.9963534 42.6022271,16.9963534 L42.6086594,16.9963534 L42.6150917,16.9967279 C43.4331282,17.0517861 44.2901368,16.4053206 44.3011095,15.5622187 C44.320028,14.1277095 44.3011095,12.6935748 44.3117039,11.2590656 L44.3147308,10.8305855 L44.6265079,11.1279747 C45.200874,11.6755602 45.7071333,12.2916875 46.2939856,12.8209203 C46.7552189,13.221684 47.4412042,13.5186985 48.0450831,13.238913 C49.0099272,12.8209203 49.6149412,11.8171384 50.3989244,11.1519456 L50.6951883,10.9006256 L50.7054043,11.286782 C50.7371874,12.4658512 50.716377,13.6452949 50.7159987,14.8206186 C50.7258363,15.2573387 50.6645403,15.7783315 50.8919408,16.1716042 L50.8945894,16.1772224 C51.2525277,16.8480334 52.1398059,17.1457971 52.861358,16.9296843 C53.5076143,16.7558952 54.0263599,16.1450115 53.9983605,15.4678333 L53.9983605,15.4603423 C53.9983605,12.8478876 53.9983605,10.2354328 53.9983605,7.62297797 L53.9983605,7.61473797 C54.0172791,7.19637065 53.8723632,6.76901425 53.5689103,6.47162513 C52.9453561,5.86036689 51.8212181,5.84089053 51.1851778,6.44241058 C50.0023924,7.56080342 48.8616061,8.72189443 47.6791991,9.84028727 L47.6254705,9.89085091 L47.4018537,9.89122545 L47.3473684,9.83916363 C46.1876636,8.72226898 45.0434719,7.58964342 43.8807402,6.47012695 Z M28.8514956,6.47012695 C28.2192389,5.8348978 27.0451561,5.84463598 26.4197101,6.49185059 C26.122311,6.78624334 25.9910166,7.20873066 26.0004758,7.62222888 C26.0110702,10.2657709 25.9872329,12.909313 26.0110702,15.5524805 C26.0182592,16.3551315 26.7878643,16.9963534 27.5729826,16.9963534 L27.5794149,16.9963534 L27.5858472,16.9967279 C28.4035053,17.0517861 29.2608922,16.4053206 29.271865,15.5622187 C29.2907835,14.1277095 29.271865,12.6935748 29.2824593,11.2590656 L29.2854863,10.8305855 L29.5972634,11.1279747 C30.1716294,11.6755602 30.6778888,12.2916875 31.2647411,12.8209203 C31.7259744,13.221684 32.4119596,13.5186985 33.0154602,13.238913 C33.9806827,12.8209203 34.5856967,11.8171384 35.3696799,11.1519456 L35.6659438,10.9006256 L35.6761597,11.286782 C35.7079428,12.4658512 35.6867541,13.6452949 35.6867541,14.8206186 C35.6965917,15.2573387 35.6352958,15.7783315 35.8623179,16.1716042 L35.8653449,16.1772224 C36.2232831,16.8480334 37.1105614,17.1457971 37.8321134,16.9296843 C38.4783698,16.7558952 38.9971154,16.1450115 38.969116,15.4678333 L38.9687376,15.4603423 C38.9687376,12.8478876 38.9687376,10.2354328 38.9687376,7.62297797 L38.969116,7.61473797 C38.9880345,7.19637065 38.8431187,6.76901425 38.5396658,6.47162513 C37.9161116,5.86036689 36.7919736,5.84089053 36.1559332,6.44241058 C34.9731478,7.56080342 33.8323615,8.72189443 32.6499545,9.84028727 L32.5962259,9.89085091 L32.3726091,9.89122545 L32.3181238,9.83916363 C31.158419,8.72226898 30.0142274,7.58964342 28.8514956,6.47012695 L28.8514956,6.47012695 Z" id="Fill-15"></path>
                    <path d="M59.1634763,7.32702636 C59.0775646,6.32397194 57.8905879,5.75432685 57.0182536,6.10277598 L57.0138479,6.10464735 L57.0087079,6.10614445 C56.4337603,6.2985213 55.981806,6.88950001 56.0089746,7.51715757 L56.0089746,7.52501733 C56.0089746,8.97196077 55.9887817,10.4189042 56.0089746,11.8654734 C56.0288004,13.2491645 56.5795165,14.6369726 57.6034813,15.5633009 C59.7472354,17.5027889 63.3382714,17.4747184 65.4537554,15.5026685 C66.4582616,14.5662348 66.979239,13.1780524 66.9887847,11.8040924 C66.9994319,10.3474179 67.0075091,8.8907433 66.9887847,7.43369446 C66.9785047,6.60879448 66.171522,5.98375683 65.3975824,6.01107884 L65.3913409,6.01145311 L65.3850995,6.01107884 C64.6174013,5.98338256 63.8181287,6.6215198 63.8041772,7.43481729 C63.7792114,8.88887193 63.8082158,10.3429266 63.7938972,11.7969812 C63.7869214,12.5238214 63.5214763,13.2704981 62.9516687,13.7286095 C62.0958559,14.4423501 60.7392586,14.4037999 59.9260345,13.6380352 C59.4358972,13.1765553 59.193215,12.4893882 59.1836693,11.8186891 C59.1616406,10.321593 59.2038622,8.82412252 59.1634763,7.32702636" id="Fill-16"></path>
                    <path d="M71.7449658,16.9860275 C72.4555433,16.9310054 73.115182,16.3134105 73.1184802,15.5644364 C73.1247102,14.2693586 73.1188467,12.9739065 73.1287413,11.6788287 L73.1320395,11.2442665 L73.4351068,11.5496952 C75.026302,13.1539448 76.576453,14.7997416 78.1573871,16.4144715 C78.5260519,16.7913916 79.0533964,17.0623847 79.5862379,16.9875247 L79.5917349,16.9867761 L79.5972319,16.9860275 C80.3103746,16.9306311 80.9890696,16.3104161 80.9912684,15.5543303 C80.9989642,12.8470188 81.0062935,10.1393331 80.9912684,7.43202161 C80.9865043,6.57786915 80.1209117,5.92621296 79.3231153,6.00968185 L79.3172519,6.01043045 L79.3113884,6.01043045 C78.5857858,6.03812864 77.8704443,6.65272914 77.863115,7.42228981 C77.8510216,8.7169933 77.863115,10.0120711 77.8532204,11.3067746 L77.8495557,11.7409625 L77.5468548,11.4362824 C76.1055442,9.98474719 74.6843893,8.51225123 73.2529732,7.05060997 C72.9007995,6.69090773 72.5379982,6.24698801 72.0608595,6.07481003 C71.3766675,5.85135297 70.537827,6.13918962 70.1797897,6.79533742 C70.0343027,7.04649267 70.0009543,7.35267002 70.0009543,7.63900948 C70.0009543,10.1041489 70.0009543,12.5692883 70.0009543,15.0340534 C70.0009543,15.3933813 69.9789664,15.8092285 70.1460749,16.1412326 C70.4278872,16.7352466 71.108048,17.0612618 71.738003,16.9867761 L71.7449658,16.9860275" id="Fill-17"></path>
                    <path d="M87.2130866,12.2481445 C87.5795529,11.5138226 87.9329453,10.7738895 88.3172397,10.0477975 L88.487597,9.72646152 L88.663897,10.0451789 C89.0640386,10.7694006 89.428524,11.5104559 89.8021215,12.2470222 L89.9356341,12.5100015 L89.62701,12.5100015 C88.8810035,12.5100015 88.134997,12.5100015 87.3889904,12.5100015 L87.0823473,12.5100015 L87.2130866,12.2481445 Z M84.7199272,16.7352513 C85.2183214,16.3869815 85.4544445,15.7847104 85.7012645,15.2696002 L85.7519755,15.1637352 L85.8747913,15.1614907 C87.621548,15.1304419 89.3683046,15.1513905 91.1150613,15.1513905 L91.2406503,15.1513905 L91.2921537,15.259126 C91.5421432,15.7798473 91.7770778,16.3794999 92.2833955,16.7240289 C93.0032542,17.1893862 94.1121614,17.050602 94.6580972,16.3944631 C95.0154514,15.9840958 95.1176657,15.3664873 94.8446979,14.887289 C93.4541068,12.3136087 92.0769859,9.73356906 90.675698,7.16026286 C89.8928467,5.63475876 87.1798075,5.60483225 86.3605077,7.12210656 C84.9718975,9.69354235 83.5690249,12.2582447 82.1685293,14.8296805 C81.8884302,15.3133678 81.9656853,15.9609027 82.3392828,16.3881037 C82.881653,17.0494797 83.9885793,17.1897603 84.7199272,16.7352513 L84.7199272,16.7352513 Z" id="Fill-18"></path>
                    <path d="M9.32639731,16.5941507 C9.85801333,16.3950541 10.5075938,16.1847302 10.81337,15.6851174 C11.2937646,14.8992096 10.8028929,13.6769359 9.8424917,13.5118953 L9.83473088,13.5103984 C9.04856003,13.3419895 8.26277721,13.9564946 7.49445624,14.1046943 C6.42385141,14.3112758 5.20346279,14.2188381 4.32804253,13.5388407 C3.39286398,12.8397571 3.09290836,11.5216775 3.53217066,10.4857762 C3.80418733,9.78931223 4.427381,9.25938585 5.1475849,9.01313476 C6.22517447,8.64488083 7.44595113,8.73619583 8.46960301,9.21896774 C8.91934241,9.43116284 9.45871925,9.60930193 9.95579964,9.44950068 L9.96511262,9.44688099 C10.8471296,9.20886321 11.2770789,8.05507577 10.7970723,7.3200649 C10.4132999,6.76469008 9.72569139,6.49411326 9.09124452,6.31223175 C7.89142208,5.99487472 6.62834896,5.93162785 5.39476696,6.06747762 C3.42313117,6.28528635 1.48603102,7.35786332 0.576463158,9.1022043 C-0.2287217,10.6455774 -0.187201324,12.5639409 0.680846159,14.0751292 C1.47322567,15.4545845 2.92294645,16.407404 4.49916857,16.7659277 C6.08353954,17.1263225 7.77462177,17.0716832 9.32639731,16.5941507" id="Fill-19"></path>
                    <path d="M27.328182,0.0959164698 C26.1762852,0.421502263 25.6656197,1.96039192 26.2320282,2.99217788 L26.2357693,2.99982074 C26.8496903,4.2540139 28.8620492,4.33846749 29.6286087,3.19777079 C30.187909,2.40367774 30.1153309,1.19916316 29.4119967,0.518948715 C28.8669127,-0.00802641247 28.0288975,-0.102415721 27.328182,0.0959164698" id="Fill-20"></path>
                    <path d="M51.3284358,0.0959164698 C50.1765818,0.421502263 49.6655612,1.96039192 50.2319486,2.99217788 L50.2360637,2.99982074 C50.8499619,4.2540139 52.8618718,4.33846749 53.6287768,3.19777079 C54.1876822,2.40367774 54.1154809,1.19916316 53.4121729,0.518948715 C52.8671092,-0.00802641247 52.028751,-0.102415721 51.3284358,0.0959164698" id="Fill-21"></path>
                    <path d="M39.3284358,0.0959164698 C38.1765818,0.421502263 37.6655612,1.96039192 38.2319486,2.99217788 L38.2360637,2.99982074 C38.8499619,4.2540139 40.8618718,4.33846749 41.6287768,3.19777079 C42.1876822,2.40367774 42.1154809,1.19916316 41.4121729,0.518948715 C40.8671092,-0.00802641247 40.028751,-0.102415721 39.3284358,0.0959164698" id="Fill-22"></path>
                </g>
            </g>
        </g>
    </g>
</svg>