<?xml version="1.0" encoding="UTF-8"?>
<svg width="101px" height="18px" viewBox="0 0 101 18" version="1.1" xmlns="http://www.w3.org/2000/svg" xmlns:xlink="http://www.w3.org/1999/xlink">
    <!-- Generator: Sketch 63.1 (92452) - https://sketch.com -->
    <title>logo-f-desk</title>
    <desc>Created with Sketch.</desc>
    <g id="Page-1" stroke="none" stroke-width="1" fill="none" fill-rule="evenodd">
        <g id="index.desktop" transform="translate(-120.000000, -2931.000000)" fill="#00A6ED">
            <g id="Footer" transform="translate(120.000000, 2924.000000)">
                <g id="logo-f-desk" transform="translate(0.000000, 7.000000)">
                    <path d="M18.3649639,9.018 C19.4666345,8.79545455 20.7139237,8.98527273 21.5543735,9.78586364 C22.6941727,10.8724091 22.6913333,12.8835 21.5673534,13.9806818 C20.8072169,14.7227727 19.6933775,14.9428636 18.6752651,14.8103182 C17.7987149,14.7117273 16.9452851,14.2547727 16.4759799,13.4901818 C15.8302289,12.4825909 15.8732249,11.0814545 16.5850924,10.1192727 C17.0130241,9.54040909 17.6668876,9.15872727 18.3649639,9.018 Z M18.0777831,5.9535 C16.5867149,6.13513636 15.1406707,6.80236364 14.1270201,7.93759091 C12.9734297,9.2295 12.4814096,11.0499545 12.7203213,12.7611818 C12.9397631,14.3296364 13.7988715,15.8072727 15.0968635,16.7105455 C16.5891486,17.7492273 18.4817831,18.0355909 20.2555703,17.8375909 C21.754751,17.6698636 23.2283775,17.0390455 24.2623092,15.9087273 C25.5667912,14.4822273 26.0604337,12.3925909 25.6365582,10.5115909 C25.2982691,9.01063636 24.359253,7.67004545 23.0523373,6.87068182 C21.574249,5.967 19.7704458,5.74731818 18.0777831,5.9535 L18.0777831,5.9535 Z" id="Fill-14"></path>
                    <path d="M46.6486145,6.39613636 C45.9712249,5.70231818 44.7121727,5.71295455 44.0416787,6.41986364 C43.7228594,6.74140909 43.5821084,7.20286364 43.592249,7.6545 C43.6036064,10.5418636 43.5780522,13.4292273 43.6036064,16.3161818 C43.6113133,17.1928636 44.4363494,17.8932273 45.2780161,17.8932273 L45.2849116,17.8932273 L45.2918072,17.8936364 C46.1687631,17.9537727 47.087498,17.2476818 47.099261,16.3268182 C47.1195422,14.76 47.099261,13.1935909 47.1106185,11.6267727 L47.1138635,11.1587727 L47.4480964,11.4835909 C48.0638313,12.0816818 48.6065542,12.7546364 49.2356747,13.3326818 C49.7301285,13.7704091 50.4655221,14.0948182 51.1128956,13.7892273 C52.1472329,13.3326818 52.7958233,12.2363182 53.6362731,11.5097727 L53.9538755,11.2352727 L53.9648273,11.6570455 C53.9988996,12.9448636 53.9765904,14.2330909 53.9761847,15.5168182 C53.9867309,15.9938182 53.9210201,16.5628636 54.1647992,16.9924091 L54.1676386,16.9985455 C54.5513574,17.7312273 55.5025422,18.0564545 56.2760643,17.8204091 C56.9688675,17.6305909 57.5249759,16.9633636 57.4949598,16.2237273 L57.4949598,16.2155455 C57.4949598,13.3621364 57.4949598,10.5087273 57.4949598,7.65531818 L57.4949598,7.64631818 C57.515241,7.18936364 57.3598876,6.72259091 57.0345783,6.39777273 C56.3661124,5.73013636 55.161008,5.70886364 54.4791566,6.36586364 C53.2111807,7.58740909 51.9882289,8.85559091 50.7206586,10.0771364 L50.6630602,10.1323636 L50.4233373,10.1327727 L50.3649277,10.0759091 C49.1216948,8.856 47.8950924,7.61890909 46.6486145,6.39613636 Z M30.5368835,6.39613636 C29.8590884,5.70231818 28.6004418,5.71295455 27.9299478,6.41986364 C27.6111285,6.74140909 27.4703775,7.20286364 27.4805181,7.6545 C27.4918755,10.5418636 27.4663213,13.4292273 27.4918755,16.3161818 C27.4995823,17.1928636 28.3246185,17.8932273 29.1662851,17.8932273 L29.1731807,17.8932273 L29.1800763,17.8936364 C30.0566265,17.9537727 30.9757671,17.2476818 30.9875301,16.3268182 C31.0078112,14.76 30.9875301,13.1935909 30.9988876,11.6267727 L31.0021325,11.1587727 L31.3363655,11.4835909 C31.9521004,12.0816818 32.4948233,12.7546364 33.1239438,13.3326818 C33.6183976,13.7704091 34.3537912,14.0948182 35.000759,13.7892273 C36.035502,13.3326818 36.6840924,12.2363182 37.5245422,11.5097727 L37.8421446,11.2352727 L37.8530964,11.6570455 C37.8871687,12.9448636 37.8644538,14.2330909 37.8644538,15.5168182 C37.875,15.9938182 37.8092892,16.5628636 38.0526627,16.9924091 L38.0559076,16.9985455 C38.4396265,17.7312273 39.3908112,18.0564545 40.1643333,17.8204091 C40.8571365,17.6305909 41.413245,16.9633636 41.3832289,16.2237273 L41.3828233,16.2155455 C41.3828233,13.3621364 41.3828233,10.5087273 41.3828233,7.65531818 L41.3832289,7.64631818 C41.40351,7.18936364 41.2481566,6.72259091 40.9228474,6.39777273 C40.2543815,5.73013636 39.0492771,5.70886364 38.3674257,6.36586364 C37.0994498,7.58740909 35.876498,8.85559091 34.6089277,10.0771364 L34.5513293,10.1323636 L34.3116064,10.1327727 L34.2531968,10.0759091 C33.0099639,8.856 31.7833614,7.61890909 30.5368835,6.39613636 L30.5368835,6.39613636 Z" id="Fill-15"></path>
                    <path d="M63.03049,7.32477273 C62.9355743,6.22840909 61.6241968,5.60577273 60.6604378,5.98663636 L60.6555703,5.98868182 L60.6498916,5.99031818 C60.0146867,6.20059091 59.5153655,6.84654545 59.5453815,7.53259091 L59.5453815,7.54118182 C59.5453815,9.12272727 59.5230723,10.7042727 59.5453815,12.2854091 C59.5672851,13.7978182 60.1757189,15.3147273 61.307,16.3272273 C63.6754297,18.4471364 67.6428233,18.4164545 69.9800201,16.2609545 C71.0898032,15.2374091 71.6653815,13.7200909 71.6759277,12.2183182 C71.6876908,10.6261364 71.6966145,9.03395455 71.6759277,7.44136364 C71.6645703,6.53972727 70.773012,5.85654545 69.9179598,5.88640909 L69.9110643,5.88681818 L69.9041687,5.88640909 C69.056012,5.85613636 68.1729719,6.55363636 68.1575582,7.44259091 C68.1299759,9.03190909 68.1620201,10.6212273 68.1462008,12.2105455 C68.138494,13.005 67.8452289,13.8211364 67.2157028,14.3218636 C66.2701968,15.102 64.7714217,15.0598636 63.8729679,14.2228636 C63.3314618,13.7184545 63.0633454,12.9673636 63.0527992,12.2342727 C63.0284618,10.5979091 63.0751084,8.96113636 63.03049,7.32477273" id="Fill-16"></path>
                    <path d="M75.7013253,17.8821818 C76.4878273,17.8220455 77.2179478,17.1470455 77.2215984,16.3284545 C77.228494,14.913 77.222004,13.4971364 77.2329558,12.0816818 L77.2366064,11.6067273 L77.5720562,11.9405455 C79.3332691,13.6939091 81.0490522,15.4926818 82.7989076,17.2575 C83.2069639,17.6694545 83.7906546,17.9656364 84.3804297,17.8838182 L84.3865141,17.883 L84.3925984,17.8821818 C85.1819398,17.8216364 85.9331526,17.1437727 85.9355863,16.3174091 C85.9441044,13.3584545 85.9522169,10.3990909 85.9355863,7.44013636 C85.9303133,6.50659091 84.9722329,5.79436364 84.0891928,5.88559091 L84.0827028,5.88640909 L84.0762129,5.88640909 C83.2730803,5.91668182 82.4813052,6.58840909 82.4731928,7.4295 C82.4598072,8.84454545 82.4731928,10.26 82.462241,11.6750455 L82.4581847,12.1495909 L82.1231406,11.8165909 C80.5278273,10.2301364 78.9548233,8.62077273 77.3704618,7.02327273 C76.9806586,6.63013636 76.5790924,6.14495455 76.0509719,5.95677273 C75.2936747,5.71254545 74.3652048,6.02713636 73.9689116,6.74427273 C73.8078795,7.01877273 73.7709679,7.35340909 73.7709679,7.66636364 C73.7709679,10.3606364 73.7709679,13.0549091 73.7709679,15.7487727 C73.7709679,16.1415 73.7466305,16.596 73.9315944,16.9588636 C74.2435181,17.6080909 74.9963534,17.9644091 75.6936185,17.883 L75.7013253,17.8821818" id="Fill-17"></path>
                    <path d="M92.8035863,12.7035 C93.1787871,11.9004545 93.5406024,11.0912727 93.9340562,10.2972273 L94.1084739,9.94581818 L94.2889759,10.2943636 C94.6986546,11.0863636 95.0718273,11.8967727 95.4543293,12.7022727 L95.5910241,12.9898636 L95.2750442,12.9898636 C94.511257,12.9898636 93.7474699,12.9898636 92.9836827,12.9898636 L92.6697309,12.9898636 L92.8035863,12.7035 Z M90.251004,17.6105455 C90.7612771,17.2296818 91.0030281,16.5710455 91.2557309,16.0077273 L91.3076506,15.8919545 L91.4333936,15.8895 C93.2217831,15.8555455 95.0101727,15.8784545 96.7985622,15.8784545 L96.9271446,15.8784545 L96.9798755,15.9962727 C97.2358233,16.5657273 97.4763574,17.2215 97.994743,17.5982727 C98.731759,18.1071818 99.8670964,17.9554091 100.426044,17.2378636 C100.791916,16.7890909 100.896566,16.1136818 100.617092,15.5896364 C99.1933574,12.7750909 97.7834137,9.95359091 96.3487269,7.13945455 C95.5472169,5.47118182 92.7695141,5.43845455 91.9306867,7.09772727 C90.5089799,9.90981818 89.0726707,12.7145455 87.6387952,15.5266364 C87.3520201,16.0555909 87.4311165,16.7637273 87.8136185,17.2309091 C88.3689157,17.9541818 89.5022249,18.1075909 90.251004,17.6105455 L90.251004,17.6105455 Z" id="Fill-18"></path>
                    <path d="M9.81930924,17.4604091 C10.375012,17.2427727 11.0540241,17.0128636 11.3736546,16.4667273 C11.8758153,15.6076364 11.3627028,14.2715455 10.3587871,14.0911364 L10.3506747,14.0895 C9.52888353,13.9054091 8.70749799,14.5771364 7.90436546,14.7391364 C6.78525301,14.9649545 5.50957028,14.8639091 4.59448594,14.1205909 C3.61693574,13.3564091 3.30338956,11.9155909 3.76255422,10.7832273 C4.04689558,10.0219091 4.6983253,9.44263636 5.45116064,9.17345455 C6.5775743,8.77090909 7.85366265,8.87072727 8.92369478,9.39845455 C9.39381124,9.63040909 9.95762651,9.82513636 10.4772289,9.65045455 L10.4869639,9.64759091 C11.4089438,9.38740909 11.8583735,8.12618182 11.3566185,7.32272727 C10.9554578,6.71563636 10.2366948,6.41986364 9.57350201,6.22104545 C8.31931727,5.87413636 6.99901606,5.805 5.70954217,5.9535 C3.6485743,6.19159091 1.62370683,7.36404545 0.672927711,9.27081818 C-0.168738956,10.9579091 -0.125337349,13.0549091 0.782040161,14.7068182 C1.61032129,16.2147273 3.12572691,17.2562727 4.77336546,17.6481818 C6.42952209,18.0421364 8.1972249,17.9824091 9.81930924,17.4604091" id="Fill-19"></path>
                    <path d="M28.5116104,0.167727273 C27.2626988,0.516272727 26.7090241,2.16368182 27.3231365,3.26822727 L27.3271928,3.27640909 C27.9928193,4.61904545 30.1746627,4.70945455 31.0057831,3.48831818 C31.6121888,2.63822727 31.533498,1.34877273 30.7709277,0.620590909 C30.1799357,0.0564545455 29.2713414,-0.0445909091 28.5116104,0.167727273" id="Fill-20"></path>
                    <path d="M55.0076827,0.167727273 C53.7587711,0.516272727 53.2046908,2.16368182 53.8188032,3.26822727 L53.8232651,3.27640909 C54.4888916,4.61904545 56.6703293,4.70945455 57.5018554,3.48831818 C58.1078554,2.63822727 58.0295703,1.34877273 57.267,0.620590909 C56.676008,0.0564545455 55.767008,-0.0445909091 55.0076827,0.167727273" id="Fill-21"></path>
                    <path d="M41.7580241,0.167727273 C40.5091124,0.516272727 39.9550321,2.16368182 40.5691446,3.26822727 L40.5736064,3.27640909 C41.2392329,4.61904545 43.4206707,4.70945455 44.2521968,3.48831818 C44.8581968,2.63822727 44.7799116,1.34877273 44.0173414,0.620590909 C43.4263494,0.0564545455 42.5173494,-0.0445909091 41.7580241,0.167727273" id="Fill-22"></path>
                </g>
            </g>
        </g>
    </g>
</svg>