<?xml version="1.0" encoding="UTF-8"?>
<svg width="16px" height="11px" viewBox="0 0 16 11" version="1.1" xmlns="http://www.w3.org/2000/svg" xmlns:xlink="http://www.w3.org/1999/xlink">
    <!-- Generator: Sketch 63.1 (92452) - https://sketch.com -->
    <title>pastevideo</title>
    <desc>Created with Sketch.</desc>
    <g id="Page-1" stroke="none" stroke-width="1" fill="none" fill-rule="evenodd">
        <g id="create.desktop.hovers" transform="translate(-365.000000, -1005.000000)" fill="#000000" fill-rule="nonzero">
            <path d="M374.192952,1016 C374.914809,1016 375.499975,1015.41483 375.499975,1014.69298 L375.499975,1006.80705 C375.499975,1006.08519 374.914809,1005.50003 374.192952,1005.50003 L366.307023,1005.50003 C365.585166,1005.50003 365,1006.08519 365,1006.80705 L365,1014.69298 C365,1015.41483 365.585166,1016 366.307023,1016 L374.192952,1016 Z M380.749962,1014.26095 L380.749962,1007.23635 C380.749962,1006.54181 379.954272,1006.13165 379.37183,1006.53089 L376.374973,1008.59806 L376.374973,1012.90197 L379.37183,1014.96641 C379.951522,1015.36562 380.749962,1014.95822 380.749962,1014.26095 Z" id="pastevideo"></path>
        </g>
    </g>
</svg>