<?xml version="1.0" encoding="UTF-8"?>
<svg width="14px" height="11px" viewBox="0 0 14 11" version="1.1" xmlns="http://www.w3.org/2000/svg" xmlns:xlink="http://www.w3.org/1999/xlink">
    <!-- Generator: Sketch 63.1 (92452) - https://sketch.com -->
    <title>pastephoto</title>
    <desc>Created with Sketch.</desc>
    <g id="Page-1" stroke="none" stroke-width="1" fill="none" fill-rule="evenodd">
        <g id="create.desktop.hovers" transform="translate(-400.000000, -1005.000000)" fill="#000000" fill-rule="nonzero">
            <path d="M412.68747,1016 C413.412344,1016 413.999967,1015.41238 413.999967,1014.6875 L413.999967,1006.81252 C413.999967,1006.08765 413.412344,1005.50003 412.68747,1005.50003 L401.312497,1005.50003 C400.587622,1005.50003 400,1006.08765 400,1006.81252 L400,1014.6875 C400,1015.41238 400.587622,1016 401.312497,1016 L412.68747,1016 Z M403.062493,1010.09376 C402.216814,1010.09376 401.531246,1009.4082 401.531246,1008.56252 C401.531246,1007.71684 402.216814,1007.03127 403.062493,1007.03127 C403.908171,1007.03127 404.593739,1007.71684 404.593739,1008.56252 C404.593739,1009.4082 403.908171,1010.09376 403.062493,1010.09376 Z M412.249971,1014.25 L401.749996,1014.25 L401.749996,1012.93751 L403.705443,1010.98203 C403.833617,1010.85389 404.041365,1010.85389 404.169511,1010.98203 L405.687486,1012.50001 L409.39293,1008.79454 C409.521103,1008.66639 409.728851,1008.66639 409.856998,1008.79454 L412.249971,1011.18751 L412.249971,1014.25 Z" id="pastephoto"></path>
        </g>
    </g>
</svg>