<?xml version="1.0" encoding="UTF-8"?>
<svg width="17px" height="14px" viewBox="0 0 17 14" version="1.1" xmlns="http://www.w3.org/2000/svg" xmlns:xlink="http://www.w3.org/1999/xlink">
    <!-- Generator: Sketch 63.1 (92452) - https://sketch.com -->
    <title>twitter</title>
    <desc>Created with Sketch.</desc>
    <g id="Page-1" stroke="none" stroke-width="1" fill="none" fill-rule="evenodd">
        <g id="index.desktop" transform="translate(-904.000000, -2147.000000)" fill="#000000" fill-rule="nonzero">
            <g id="Support" transform="translate(0.000000, 1914.000000)">
                <g id="twitter" transform="translate(904.000000, 233.000000)">
                    <path d="M17,1.66111562 C16.3816951,1.97742619 15.6864744,2.13572008 14.990983,2.21472842 C15.6864744,1.74012396 16.227322,1.10750282 16.536339,0.237302232 C15.8408475,0.632898358 15.1453561,0.949208927 14.2954915,1.1072256 C13.6771866,0.395318905 12.7501354,0 11.7456269,0 C9.8137964,0 8.26844034,1.58183006 8.26844034,3.55925625 C8.26844034,3.87556682 8.26844034,4.11286905 8.34562689,4.35017128 C5.48647443,4.19187739 2.93660985,2.76834122 1.15942329,0.632621136 C0.850406245,1.18623394 0.695762307,1.73984674 0.695762307,2.45175343 C0.695762307,3.71727293 1.31406723,4.74549019 2.24111837,5.37838855 C1.70027083,5.37838855 1.15942329,5.22009465 0.695762307,4.90378408 L0.695762307,4.98279242 C0.695762307,6.72291638 1.85491477,8.14672977 3.47745738,8.46304034 C3.16844034,8.54204867 2.85915246,8.62133423 2.55013542,8.62133423 C2.31830492,8.62133423 2.08647443,8.62133423 1.93183049,8.54232589 C2.39549148,9.96613928 3.63183049,10.9943565 5.17718655,10.9943565 C4.01803409,11.9435655 2.47267803,12.4971783 0.849864585,12.4971783 C0.540847539,12.4971783 0.309017046,12.4971783 0,12.4181699 C1.54535606,13.4463872 3.32281345,14 5.33183049,14 C11.7453561,14 15.2225426,8.62161145 15.2225426,3.87584404 L15.2225426,3.40123958 C15.9954915,3.00564345 16.536339,2.37302232 17,1.66111562 Z" id="Path"></path>
                </g>
            </g>
        </g>
    </g>
</svg>