<?xml version="1.0" encoding="UTF-8"?>
<svg width="14px" height="15px" viewBox="0 0 14 15" version="1.1" xmlns="http://www.w3.org/2000/svg" xmlns:xlink="http://www.w3.org/1999/xlink">
    <!-- Generator: Sketch 63.1 (92452) - https://sketch.com -->
    <title>unlink</title>
    <desc>Created with Sketch.</desc>
    <g id="Page-1" stroke="none" stroke-width="1" fill="none" fill-rule="evenodd">
        <g id="create.desktop.hovers" transform="translate(-332.000000, -1003.000000)" fill="#000000" fill-rule="nonzero">
            <path d="M343.563041,1012.06478 L344.784615,1010.84321 C346.405155,1009.22266 346.405155,1006.58592 344.784615,1004.96541 C343.164074,1003.34489 340.527358,1003.34489 338.90679,1004.96541 L337.685243,1006.18696 C337.557123,1006.31508 337.557123,1006.52285 337.685243,1006.651 L338.767963,1007.73377 C338.896109,1007.86189 339.103857,1007.86189 339.232031,1007.73377 L340.453578,1006.5122 C341.221177,1005.74454 342.470175,1005.7446 343.237827,1006.5122 C344.0054,1007.27982 344.0054,1008.52879 343.237827,1009.29642 L342.016227,1010.51797 C341.888107,1010.64611 341.888107,1010.85386 342.016227,1010.98203 L343.098999,1012.06478 C343.227119,1012.1929 343.434894,1012.1929 343.563041,1012.06478 Z M345.189029,1017.55779 L345.807733,1016.93908 C346.064027,1016.68279 346.064027,1016.2673 345.807733,1016.01103 L333.738994,1003.94224 C333.482701,1003.68594 333.067205,1003.68594 332.810938,1003.94224 L332.192207,1004.56097 C331.935913,1004.81726 331.935913,1005.23276 332.192207,1005.48902 L344.260972,1017.55779 C344.517266,1017.81406 344.932762,1017.81406 345.189029,1017.55779 Z M339.093203,1016.53462 L340.31475,1015.31307 C340.44287,1015.18492 340.44287,1014.97715 340.31475,1014.84903 L339.232031,1013.76626 C339.103857,1013.63814 338.896109,1013.63814 338.767963,1013.76626 L337.546415,1014.98783 C336.778763,1015.75543 335.529765,1015.7554 334.762166,1014.98783 C333.994594,1014.2202 333.994594,1012.97123 334.762166,1012.20361 L335.983767,1010.98206 C336.111887,1010.85389 336.111887,1010.64614 335.983767,1010.51799 L334.900994,1009.43525 C334.772847,1009.30713 334.565073,1009.30713 334.436953,1009.43525 L333.215379,1010.65682 C331.594865,1012.27733 331.594865,1014.9141 333.215379,1016.53462 C334.835973,1018.15518 337.472742,1018.15508 339.093203,1016.53462 Z" id="unlink"></path>
        </g>
    </g>
</svg>