<svg display="none" xmlns="http://www.w3.org/2000/svg">
      <symbol id="arw-btn" viewBox="0 0 7 11" >
        <g id="Page-1" stroke="none" stroke-width="1" >
          <g id="index.desktop" transform="translate(-324.000000, -477.000000)">
            <g id="Banner" transform="translate(0.000000, 70.000000)">
              <path d="M326.135897,417.452681 L330.690818,412.897761 C330.910475,412.67808 330.910475,412.321941 330.690795,412.102284 L326.135897,407.547363 C325.91624,407.327706 325.560101,407.327706 325.34042,407.547363 L324.809164,408.078619 C324.58985,408.297933 324.589438,408.653363 324.808226,408.873181 L328.418073,412.500011 L324.808226,416.126864 C324.589438,416.346681 324.58985,416.702111 324.809164,416.921425 L325.34042,417.452681 C325.560078,417.672339 325.916217,417.672339 326.135897,417.452681 Z" id="arw-btn"></path>
            </g>
          </g>
      </g>
      </symbol>

      <symbol id="submit" viewBox="0 0 16 12">
        <g id="Page-1" stroke="none" stroke-width="1">
          <g id="index.desktop" transform="translate(-1043.000000, -2780.000000)">
            <g id="Subscribe" transform="translate(0.000000, 2692.000000)">
              <path d="M1049.56566,99.7314154 L1058.76565,90.5313946 C1059.07806,90.2189564 1059.07806,89.7124269 1058.76565,89.4000192 L1057.6343,88.2686437 C1057.3219,87.956236 1056.81534,87.956236 1056.50293,88.2686437 L1048.99999,95.771586 L1045.49703,92.2686342 C1045.18463,91.9561959 1044.67807,91.9561959 1044.36566,92.2686342 L1043.23431,93.4000096 C1042.92191,93.7124479 1042.92191,94.2189774 1043.23431,94.5313851 L1048.43431,99.7313849 C1048.74669,100.043823 1049.25322,100.043823 1049.56566,99.7314154 Z" id="submit"></path>
            </g>
          </g>
      </g>
      </symbol>

      <symbol id="fb" viewBox="0 0 8 16">
        <g id="Page-1" stroke="none" stroke-width="1">
          <g id="index.desktop" transform="translate(-789.000000, -2146.000000)">
            <g id="Support" transform="translate(0.000000, 1914.000000)">
              <g id="facebook" transform="translate(789.000000, 232.000000)">
                <path d="M2.63666895,0.824084503 C3.30627018,0.230129981 4.25419805,0.0282487596 5.15256448,0.00487047578 C6.1007532,-0.00292228547 7.04894193,0.000974095157 7.9968698,0.000974095157 C8.0010434,0.936592493 8.0010434,1.86831451 7.9968698,2.80393291 C7.38569891,2.80393291 6.77009358,2.80393291 6.15892269,2.80393291 C5.77208256,2.78055463 5.37298249,3.05622355 5.30229222,3.41736933 C5.29394503,4.0424949 5.29811862,4.66737694 5.29811862,5.29250251 C6.1962242,5.29639889 7.09459063,5.29250251 7.99269621,5.29639889 C7.92617953,6.20084625 7.80566696,7.10164074 7.66428641,7.99464248 C6.86999902,8.00243524 6.07571163,7.99464248 5.28142424,7.99853886 C5.27307705,10.6656114 5.28559783,13.3287876 5.27725064,15.9961036 C4.09612312,16 2.91943004,15.9922072 1.73830252,16 C1.71743454,13.3329275 1.73830252,10.6658549 1.72578173,7.99853886 C1.15191235,7.99464248 0.57386938,8.00243524 0,7.99464248 C0.00417359549,7.09774436 0,6.20108977 0,5.30808803 C0.57386938,5.30029527 1.15191235,5.30808803 1.72578173,5.30419165 C1.74247612,4.4345682 1.70908735,3.56104837 1.74247612,2.69142492 C1.80508005,1.99665155 2.08366755,1.30163465 2.63666895,0.824084503 Z" id="facebook"></path>
              </g>
            </g>
          </g>
        </g>
      </symbol>

      <symbol id="insta" viewBox="0 0 16 16">
        <g id="Page-1" stroke="none" stroke-width="1">
          <g id="index.desktop" transform="translate(-844.000000, -2146.000000)">
            <g id="Support" transform="translate(0.000000, 1914.000000)">
                <g id="insta" transform="translate(844.000000, 232.000000)">
                  <path d="M8,4 C5.79459866,4 4,5.79435701 4,8.00012667 C4,10.205643 5.79434802,12 8,12 C10.2054013,12 12,10.205643 12,8.00012667 C12,5.79435701 10.2054013,4 8,4 Z M8,10.5273758 C6.59765649,10.5273758 5.45698352,9.39345768 5.45698352,8.00012667 C5.45698352,6.60654232 6.59765649,5.47287755 8,5.47287755 C9.40209286,5.47287755 10.5430165,6.60654232 10.5430165,8.00012667 C10.5430165,9.39371101 9.40234351,10.5273758 8,10.5273758 Z" id="Shape"></path>
                  <path d="M11.3946254,0 L4.60537464,0 C2.06611165,0 0,2.05783926 0,4.5875165 L0,11.4124835 C0,13.9419001 2.06584995,16 4.60537464,16 L11.3946254,16 C13.9341501,16 16,13.9419001 16,11.4124835 L16,4.5875165 C16,2.05809994 13.9341501,0 11.3946254,0 Z M14.4758665,11.4124835 C14.4758665,13.1048438 13.0935737,14.4817766 11.3946254,14.4817766 L4.60537464,14.4817766 C2.90642634,14.4817766 1.52413353,13.1048438 1.52413353,11.4124835 L1.52413353,4.5875165 C1.52413353,2.89515617 2.90642634,1.51822344 4.60537464,1.51822344 L4.60537464,1.51822344 L11.3946254,1.51822344 C13.0935737,1.51822344 14.4758665,2.89515617 14.4758665,4.5875165 L14.4758665,11.4124835 Z" id="Shape"></path>
                  <circle id="Oval" cx="12" cy="4" r="1"></circle>
                </g>
              </g>
          </g>
        </g>
      </symbol>

      <symbol id="twitter" viewBox="0 0 17 14">
        <g id="Page-1" stroke="none" stroke-width="1">
          <g id="index.desktop" transform="translate(-904.000000, -2147.000000)">
            <g id="Support" transform="translate(0.000000, 1914.000000)">
              <g id="twitter" transform="translate(904.000000, 233.000000)">
                <path d="M17,1.66111562 C16.3816951,1.97742619 15.6864744,2.13572008 14.990983,2.21472842 C15.6864744,1.74012396 16.227322,1.10750282 16.536339,0.237302232 C15.8408475,0.632898358 15.1453561,0.949208927 14.2954915,1.1072256 C13.6771866,0.395318905 12.7501354,0 11.7456269,0 C9.8137964,0 8.26844034,1.58183006 8.26844034,3.55925625 C8.26844034,3.87556682 8.26844034,4.11286905 8.34562689,4.35017128 C5.48647443,4.19187739 2.93660985,2.76834122 1.15942329,0.632621136 C0.850406245,1.18623394 0.695762307,1.73984674 0.695762307,2.45175343 C0.695762307,3.71727293 1.31406723,4.74549019 2.24111837,5.37838855 C1.70027083,5.37838855 1.15942329,5.22009465 0.695762307,4.90378408 L0.695762307,4.98279242 C0.695762307,6.72291638 1.85491477,8.14672977 3.47745738,8.46304034 C3.16844034,8.54204867 2.85915246,8.62133423 2.55013542,8.62133423 C2.31830492,8.62133423 2.08647443,8.62133423 1.93183049,8.54232589 C2.39549148,9.96613928 3.63183049,10.9943565 5.17718655,10.9943565 C4.01803409,11.9435655 2.47267803,12.4971783 0.849864585,12.4971783 C0.540847539,12.4971783 0.309017046,12.4971783 0,12.4181699 C1.54535606,13.4463872 3.32281345,14 5.33183049,14 C11.7453561,14 15.2225426,8.62161145 15.2225426,3.87584404 L15.2225426,3.40123958 C15.9954915,3.00564345 16.536339,2.37302232 17,1.66111562 Z" id="Path"></path>
              </g>
            </g>
          </g>
        </g>
      </symbol>

      <symbol id="r-hover" viewBox="0 0 10 10">
        <g >
          <g >
            <g transform="translate(-686 -1424) translate(0 570)">
              <circle cx="691" cy="859" r="4.5"/>
            </g>
          </g>
        </g>
      </symbol>

      <symbol id="add-avka" viewBox="0 0 18 14">
        <g >
          <g >
            <path d="M750.312 700c.932 0 1.688-.756 1.688-1.687v-10.125c0-.932-.756-1.688-1.688-1.688h-14.625c-.931 0-1.687.756-1.687 1.688v10.125c0 .931.756 1.687 1.687 1.687h14.625zm-12.375-7.594c-1.087 0-1.968-.881-1.968-1.968 0-1.088.881-1.97 1.968-1.97 1.088 0 1.97.882 1.97 1.97 0 1.087-.882 1.968-1.97 1.968zm11.813 5.344h-13.5v-1.687l2.514-2.515c.165-.164.432-.164.597 0l1.951 1.952 4.765-4.764c.164-.165.432-.165.596 0l3.077 3.077v3.937z" transform="translate(-734 -686)"/>
          </g>
        </g>
      </symbol>

      <symbol id="italic" viewBox="0 0 9 13">
        <g id="Page-1" stroke="none" stroke-width="1" fill="none" fill-rule="evenodd">
          <g id="create.desktop.hovers" transform="translate(-150.000000, -1004.000000)" fill="#000000" fill-rule="nonzero">
            <path d="M155.687486,1016.875 C155.92896,1016.875 156.124985,1016.67897 156.124985,1016.4375 L156.124985,1015.5625 C156.124985,1015.32103 155.92896,1015.125 155.687486,1015.125 L154.408902,1015.125 L156.596397,1006.37502 L158.31248,1006.37502 C158.553954,1006.37502 158.749979,1006.179 158.749979,1005.93752 L158.749979,1005.06253 C158.749979,1004.82105 158.553954,1004.62503 158.31248,1004.62503 L153.062493,1004.62503 C152.821019,1004.62503 152.624994,1004.82105 152.624994,1005.06253 L152.624994,1005.93752 C152.624994,1006.179 152.821019,1006.37502 153.062493,1006.37502 L154.341077,1006.37502 L152.153582,1015.125 L150.437499,1015.125 C150.196025,1015.125 150,1015.32103 150,1015.5625 L150,1016.4375 C150,1016.67897 150.196025,1016.875 150.437499,1016.875 L155.687486,1016.875 Z" id="italic"></path>
          </g>
        </g>
      </symbol>

      <symbol id="bits" viewBox="0 0 14 12">
        <g id="Page-1" stroke="none" stroke-width="1" fill="none" fill-rule="evenodd">
          <g id="create.desktop.hovers" transform="translate(-267.000000, -1005.000000)" fill="#000000" fill-rule="nonzero">
            <path d="M268.312497,1007.68752 C269.036891,1007.68752 269.624994,1007.09942 269.624994,1006.37502 C269.624994,1005.65063 269.036891,1005.06253 268.312497,1005.06253 C267.588103,1005.06253 267,1005.65063 267,1006.37502 C267,1007.09942 267.588103,1007.68752 268.312497,1007.68752 Z M280.562468,1007.25002 C280.803941,1007.25002 280.999967,1007.054 280.999967,1006.81252 L280.999967,1005.93752 C280.999967,1005.69605 280.803941,1005.50003 280.562468,1005.50003 L271.812489,1005.50003 C271.571015,1005.50003 271.37499,1005.69605 271.37499,1005.93752 L271.37499,1006.81252 C271.37499,1007.054 271.571015,1007.25002 271.812489,1007.25002 L280.562468,1007.25002 Z M268.312497,1012.06251 C269.036891,1012.06251 269.624994,1011.47441 269.624994,1010.75001 C269.624994,1010.02562 269.036891,1009.43752 268.312497,1009.43752 C267.588103,1009.43752 267,1010.02562 267,1010.75001 C267,1011.47441 267.588103,1012.06251 268.312497,1012.06251 Z M280.562468,1011.62501 C280.803941,1011.62501 280.999967,1011.42899 280.999967,1011.18751 L280.999967,1010.31251 C280.999967,1010.07104 280.803941,1009.87501 280.562468,1009.87501 L271.812489,1009.87501 C271.571015,1009.87501 271.37499,1010.07104 271.37499,1010.31251 L271.37499,1011.18751 C271.37499,1011.42899 271.571015,1011.62501 271.812489,1011.62501 L280.562468,1011.62501 Z M268.312497,1016.4375 C269.036891,1016.4375 269.624994,1015.8494 269.624994,1015.125 C269.624994,1014.40061 269.036891,1013.81251 268.312497,1013.81251 C267.588103,1013.81251 267,1014.40061 267,1015.125 C267,1015.8494 267.588103,1016.4375 268.312497,1016.4375 Z M280.562468,1016 C280.803941,1016 280.999967,1015.80397 280.999967,1015.5625 L280.999967,1014.6875 C280.999967,1014.44603 280.803941,1014.25 280.562468,1014.25 L271.812489,1014.25 C271.571015,1014.25 271.37499,1014.44603 271.37499,1014.6875 L271.37499,1015.5625 C271.37499,1015.80397 271.571015,1016 271.812489,1016 L280.562468,1016 Z" id="blts"></path>
          </g>
       </g>
      </symbol>

      <symbol id="link" viewBox="0 0 14 15">
        <g id="Page-1" stroke="none" stroke-width="1" fill="none" fill-rule="evenodd">
          <g id="create.desktop.hovers" transform="translate(-299.000000, -1003.000000)" fill="#000000" fill-rule="nonzero">
            <path d="M305.193131,1013.1036 L305.768817,1012.52786 C305.997153,1012.29955 306.099505,1012.00181 306.08869,1011.71286 C306.083216,1011.56982 306.00949,1011.44423 305.898726,1011.36818 C305.819098,1011.31334 305.717174,1011.23488 305.61597,1011.13387 C304.848344,1010.36624 304.845113,1009.12031 305.61597,1008.34946 L307.453471,1006.51222 C308.22561,1005.74008 309.485101,1005.74473 310.251419,1006.52619 C311.010206,1007.30001 310.986174,1008.5478 310.21983,1009.31415 L309.861985,1009.67199 C309.743024,1009.79093 309.704225,1009.96703 309.758538,1010.12621 C309.918889,1010.59636 310.00578,1011.08321 310.02351,1011.56781 C310.037423,1011.94806 310.500743,1012.12686 310.769827,1011.85781 L311.784428,1010.84321 C313.405128,1009.22285 313.405128,1006.58581 311.784454,1004.96543 C310.164047,1003.34497 307.527331,1003.34476 305.906657,1004.96543 L304.069156,1006.80294 C304.065872,1006.80619 304.06232,1006.80977 304.059329,1006.81303 C302.457908,1008.42337 302.435451,1011.04532 304.069156,1012.68073 C304.242831,1012.85438 304.428336,1013.00993 304.630289,1013.15092 C304.805326,1013.27311 305.04218,1013.25452 305.193131,1013.1036 Z M306.093283,1016.53459 L307.930784,1014.69709 C307.934068,1014.69383 307.93762,1014.69025 307.940611,1014.687 C309.542059,1013.07666 309.564489,1010.45471 307.930784,1008.81929 C307.757109,1008.64562 307.571578,1008.4901 307.369624,1008.34908 C307.194587,1008.22689 306.95776,1008.24545 306.806782,1008.3964 L306.231096,1008.97214 C306.00276,1009.20045 305.900409,1009.49818 305.911223,1009.78714 C305.916697,1009.93018 305.990424,1010.05577 306.101187,1010.13182 C306.180815,1010.18666 306.282739,1010.26512 306.383943,1010.36613 C307.151569,1011.13376 307.1548,1012.37969 306.383943,1013.15054 L304.546442,1014.98778 C303.774277,1015.75991 302.514785,1015.75527 301.748494,1014.97381 C300.989707,1014.19999 301.013766,1012.95219 301.780084,1012.18585 L302.137928,1011.82801 C302.256889,1011.70907 302.295688,1011.53297 302.241375,1011.37376 C302.081024,1010.90363 301.994133,1010.41679 301.976403,1009.93219 C301.962517,1009.55194 301.49917,1009.37311 301.230086,1009.64219 L300.215486,1010.65679 C298.594811,1012.27717 298.594811,1014.91421 300.215486,1016.53459 C301.835893,1018.15505 304.472609,1018.15526 306.093283,1016.53459 Z" id="link"></path>
          </g>
        </g>
      </symbol>

      <symbol id="unlink" viewBox="0 0 14 15">
        <g id="Page-1" stroke="none" stroke-width="1" fill="none" fill-rule="evenodd">
          <g id="create.desktop.hovers" transform="translate(-332.000000, -1003.000000)" fill="#000000" fill-rule="nonzero">
            <path d="M343.563041,1012.06478 L344.784615,1010.84321 C346.405155,1009.22266 346.405155,1006.58592 344.784615,1004.96541 C343.164074,1003.34489 340.527358,1003.34489 338.90679,1004.96541 L337.685243,1006.18696 C337.557123,1006.31508 337.557123,1006.52285 337.685243,1006.651 L338.767963,1007.73377 C338.896109,1007.86189 339.103857,1007.86189 339.232031,1007.73377 L340.453578,1006.5122 C341.221177,1005.74454 342.470175,1005.7446 343.237827,1006.5122 C344.0054,1007.27982 344.0054,1008.52879 343.237827,1009.29642 L342.016227,1010.51797 C341.888107,1010.64611 341.888107,1010.85386 342.016227,1010.98203 L343.098999,1012.06478 C343.227119,1012.1929 343.434894,1012.1929 343.563041,1012.06478 Z M345.189029,1017.55779 L345.807733,1016.93908 C346.064027,1016.68279 346.064027,1016.2673 345.807733,1016.01103 L333.738994,1003.94224 C333.482701,1003.68594 333.067205,1003.68594 332.810938,1003.94224 L332.192207,1004.56097 C331.935913,1004.81726 331.935913,1005.23276 332.192207,1005.48902 L344.260972,1017.55779 C344.517266,1017.81406 344.932762,1017.81406 345.189029,1017.55779 Z M339.093203,1016.53462 L340.31475,1015.31307 C340.44287,1015.18492 340.44287,1014.97715 340.31475,1014.84903 L339.232031,1013.76626 C339.103857,1013.63814 338.896109,1013.63814 338.767963,1013.76626 L337.546415,1014.98783 C336.778763,1015.75543 335.529765,1015.7554 334.762166,1014.98783 C333.994594,1014.2202 333.994594,1012.97123 334.762166,1012.20361 L335.983767,1010.98206 C336.111887,1010.85389 336.111887,1010.64614 335.983767,1010.51799 L334.900994,1009.43525 C334.772847,1009.30713 334.565073,1009.30713 334.436953,1009.43525 L333.215379,1010.65682 C331.594865,1012.27733 331.594865,1014.9141 333.215379,1016.53462 C334.835973,1018.15518 337.472742,1018.15508 339.093203,1016.53462 Z" id="unlink"></path>
          </g>
        </g>
      </symbol>

      <symbol id="pastevideo" viewBox="0 0 16 11">
        <g id="Page-1" stroke="none" stroke-width="1" fill="none" fill-rule="evenodd">
          <g id="create.desktop.hovers" transform="translate(-365.000000, -1005.000000)" fill="#000000" fill-rule="nonzero">
            <path d="M374.192952,1016 C374.914809,1016 375.499975,1015.41483 375.499975,1014.69298 L375.499975,1006.80705 C375.499975,1006.08519 374.914809,1005.50003 374.192952,1005.50003 L366.307023,1005.50003 C365.585166,1005.50003 365,1006.08519 365,1006.80705 L365,1014.69298 C365,1015.41483 365.585166,1016 366.307023,1016 L374.192952,1016 Z M380.749962,1014.26095 L380.749962,1007.23635 C380.749962,1006.54181 379.954272,1006.13165 379.37183,1006.53089 L376.374973,1008.59806 L376.374973,1012.90197 L379.37183,1014.96641 C379.951522,1015.36562 380.749962,1014.95822 380.749962,1014.26095 Z" id="pastevideo"></path>
          </g>
        </g>
      </symbol>

      <symbol id="pastephoto" viewBox="0 0 14 11">
        <g id="Page-1" stroke="none" stroke-width="1" fill="none" fill-rule="evenodd">
          <g id="create.desktop.hovers" transform="translate(-400.000000, -1005.000000)" fill="#000000" fill-rule="nonzero">
            <path d="M412.68747,1016 C413.412344,1016 413.999967,1015.41238 413.999967,1014.6875 L413.999967,1006.81252 C413.999967,1006.08765 413.412344,1005.50003 412.68747,1005.50003 L401.312497,1005.50003 C400.587622,1005.50003 400,1006.08765 400,1006.81252 L400,1014.6875 C400,1015.41238 400.587622,1016 401.312497,1016 L412.68747,1016 Z M403.062493,1010.09376 C402.216814,1010.09376 401.531246,1009.4082 401.531246,1008.56252 C401.531246,1007.71684 402.216814,1007.03127 403.062493,1007.03127 C403.908171,1007.03127 404.593739,1007.71684 404.593739,1008.56252 C404.593739,1009.4082 403.908171,1010.09376 403.062493,1010.09376 Z M412.249971,1014.25 L401.749996,1014.25 L401.749996,1012.93751 L403.705443,1010.98203 C403.833617,1010.85389 404.041365,1010.85389 404.169511,1010.98203 L405.687486,1012.50001 L409.39293,1008.79454 C409.521103,1008.66639 409.728851,1008.66639 409.856998,1008.79454 L412.249971,1011.18751 L412.249971,1014.25 Z" id="pastephoto"></path>
          </g>
      </g>
      </symbol>

      <symbol id="more" viewBox="0 0 23 10">
        <g id="Page-1" stroke="none" stroke-width="1" fill="none" fill-rule="evenodd">
          <g id="create.desktop.hovers" transform="translate(-729.000000, -1445.000000)" fill="#000000">
            <path d="M752,1453 L752,1455 L729,1455 L729,1453 L752,1453 Z M752,1449 L752,1451 L729,1451 L729,1449 L752,1449 Z M752,1445 L752,1447 L729,1447 L729,1445 L752,1445 Z" id="more"></path>
          </g>
        </g>
      </symbol>

      <symbol id="vacancy-plus" viewBox="0 0 48 48">
        <g id="Page-1" stroke="none" stroke-width="1">
          <g id="create.desktop" transform="translate(-848.000000, -1682.000000)">
            <g id="vacancy-plus" transform="translate(848.000000, 1682.000000)">
              <rect id="Rectangle" x="22" y="0" width="5" height="48"></rect>
              <polygon id="Rectangle" transform="translate(24.000000, 24.500000) rotate(90.000000) translate(-24.000000, -24.500000) " points="21.5 0.5 26.5 0.5 26.5 48.5 21.5 48.5"></polygon>
            </g>
          </g>
        </g>
      </symbol>
    </svg>

    